<?xml version="1.0" standalone="no"?>
<!DOCTYPE svg PUBLIC "-//W3C//DTD SVG 1.1//EN" "http://www.w3.org/Graphics/SVG/1.1/DTD/svg11.dtd">
<svg xmlns="http://www.w3.org/2000/svg"><metadata>This SVG WebFont was generated by YouWorkForThem.
2016</metadata><defs><font horiz-adv-x="321" id="ywftsvg"><font-face ascent="800" bbox="-450.565 -653 864.5 1102.49" cap-height="836" descent="-200" font-family="Yorkshire Brush Script" font-stretch="normal" font-weight="400" panose-1="0 0 5 0 0 0 0 0 0 0" underline-position="-50" underline-thickness="50" unicode-range="U+0020-2212" units-per-em="1000" x-height="298"/><missing-glyph d="M410 800v-1000h-317v1000h317zM333 118h-166v-113h166v113zM300 85v-47h-100v47h100zM333 291h-100v-56h34v23h33v-47h-100v80h-33v-113h166v113zM333 413h-33v-66h-133v-34h166v100zM333 473h-166v-33h66v-37h-66v-33h100v70h66v33zM233 570v-36h-33v36h33zM267 604 h-100v-104h166v34h-66v70zM333 733h-165v-33h65v-37h-66v-33h166v33h-66v37h66v33zM333 -18h-166v-33h70l-70 -47v-33h166v33h-102l70 47h32v33z" horiz-adv-x="500"/><glyph d="M410 800v-1000h-317v1000h317zM333 118h-166v-113h166v113zM300 85v-47h-100v47h100zM333 291h-100v-56h34v23h33v-47h-100v80h-33v-113h166v113zM333 413h-33v-66h-133v-34h166v100zM333 473h-166v-33h66v-37h-66v-33h100v70h66v33zM233 570v-36h-33v36h33zM267 604 h-100v-104h166v34h-66v70zM333 733h-165v-33h65v-37h-66v-33h166v33h-66v37h66v33zM333 -18h-166v-33h70l-70 -47v-33h166v33h-102l70 47h32v33z" glyph-name=".notdef" horiz-adv-x="500"/><glyph glyph-name=".null" horiz-adv-x="0"/><glyph glyph-name="nonmarkingreturn" horiz-adv-x="333"/><glyph glyph-name="space" horiz-adv-x="250" unicode=" "/><glyph d="M64 125q-13 18 -6 74q4 25 21 75.5t21 76.5q30 197 50 374l3 26q4 39 33 41q15 0 28 -11t17 -29q4 -22 -8 -66.5t-13 -48.5q-13 -69 -32 -197.5t-27 -178.5q-27 -172 -69 -152q-9 4 -18 16zM73 -61q-24 -3 -36.5 18.5t-4 46.5t34.5 30q32 6 47.5 -10t10 -39t-26.5 -37 q-13 -7 -25 -9z" glyph-name="exclam" horiz-adv-x="262" unicode="!"/><glyph d="M53 708q-21 -10 -37 5q-7 6 -7 18q0 4 -0.5 13t-1.5 13q0 6 -0.5 17t-1.5 17q0 3 -0.5 7t-0.5 7q0 20 -3 38q-3 24 6 45l2 3q2 10 10 13q1 1 3.5 1.5t3.5 0.5q13 0 21 -11q1 -2 4 -5l3 -5v-3q-1 -8 2 -19q4 -14 4 -21v-5q-2 -33 12 -95q3 -14 -7 -26q-8 -6 -12 -8z M167 708q-21 -10 -37 5q-7 7 -7 18q0 4 -0.5 13t-1.5 13q0 12 -2 34q0 9 -1 14q0 20 -3 38q-3 25 7 45q0 2 1 3q2 9 10 13q1 0 3.5 1t3.5 1q13 0 22 -11l3 -5l3 -5v-3q0 -2 2 -19q4 -14 4 -21q0 -1 0.5 -2.5t0.5 -2.5q-3 -33 11 -95q3 -16 -7 -26q-5 -5 -12 -8z" glyph-name="quotedbl" horiz-adv-x="187" unicode="&quot;"/><glyph d="M148 164q-32 24 -28 64q1 0 0 22v23q0 15 -15 12l-43 -9q-21 -4 -32 7v16q9 9 27 11l49 6q17 2 18 17q2 14 4.5 40.5t3.5 39.5q1 5 -1.5 6t-6.5 0q-26 -5 -46 -4q-17 2 -17 17q-1 12 15 16q12 3 36 1q23 -2 33 8t9 33q0 5 -0.5 10.5t-1.5 13t-1 11.5q-2 29 4.5 40 t31.5 23h27q16 -10 16 -40q1 -32 -11 -72q-4 -17 14 -18q7 0 49 5q11 2 19 14q7 12 3 34q-2 20 -1 30q5 34 38 26q32 -8 33 -41q1 -21 -6 -52q-1 -6 1.5 -9t8.5 -2q5 1 15 2t18.5 2t15.5 2q26 2 38 -7v-14q-11 -14 -30 -14q-34 0 -51 1q-12 0 -16.5 -3.5t-4.5 -14.5 q0 -14 -5 -74q-2 -12 0 -13.5t14 -0.5l23 3q21 0 30 -4q10 -5 10 -13q0 -10 -11 -15q-9 -3 -18 -3q-21 -3 -43 -3q-12 0 -15 -13q-3 -19 2 -39q6 -27 -16 -58q-14 -21 -33 -3q-22 19 -19 54q0 2 6 37q1 11 -4.5 17.5t-14.5 4.5q-12 -2 -35 -3t-34 -3q-13 -1 -14 -14 q-1 -14 -1 -43q-2 -50 -20 -67h-17zM233 321q16 0 48 5q8 1 8 9q0 42 9 84q1 12 -12 12q-44 -2 -67 -2q-6 0 -8 -8q-7 -43 -13 -71q-4 -24 0 -27.5t35 -1.5z" glyph-name="numbersign" horiz-adv-x="495" unicode="#"/><glyph d="M133 -66q-8 10 3.5 42t-4.5 44q-5 5 -24 9.5t-25 8.5q-20 12 -35 35q-27 40 -15 92t57 75q8 5 15 -2q3 -3 3 -8q0 -11 -7 -17q-6 -3 -7 -3q-26 -10 -33 -45l-1 -1v-3q-12 -78 56 -109q37 -15 62 -2t39 45t19.5 64.5t3.5 57.5q-5 60 -42 137q-7 15 -36.5 72t-42.5 94 t-16 78q-7 76 23 125q16 23 47.5 46.5t57.5 23.5h2q0 1 1 3q2 11 6 33.5t6 34.5v3q0 2 1 3q0 10 5 16q6 6 12 6l2 1q11 0 13 -12q1 -17 -4 -43q-4 -15 -10 -45v-2q7 0 10 -1h2q117 -21 71 -184q-3 -9 -14 -9h-1q-9 0 -13 11q-3 14 2.5 36t7 35t-14.5 34q-33 29 -63.5 23.5 t-48.5 -37.5t-8 -65q32 -112 92 -240q71 -151 66 -250q-4 -61 -31 -89q-16 -17 -49 -33t-54 -14q-9 1 -27 -5q-7 -2 -17 -4q0 -1 -1 -2q-2 -11 -4 -20t-7.5 -28.5t-12 -20.5t-17.5 6z" glyph-name="dollar" horiz-adv-x="392" unicode="$"/><glyph d="M33 1q-13 0 -23 10q-10 11 -10 29q1 20 18 44l1 2q17 27 38 56l14 21q24 38 36 60q5 10 11 21t13.5 24.5t11.5 20.5l2 4q30 54 45 84q33 61 56 97q6 9 41 68q4 7 17 37t26.5 56t30.5 54.5t37 45t38 14.5q3 0 7 -2q48 -15 -42 -146q-38 -56 -113 -204q-14 -27 -53 -90.5 t-55 -98.5q-11 -22 -20 -33q-8 -9 -12 -21q-10 -25 -42 -71l-7 -12q-4 -7 -13.5 -20t-14.5 -19q-3 -4 -14 -19q-9 -12 -24 -12zM328 175q-3 0 -4 1q-18 1 -26 23q-1 4 -1 10v1q0 20 7 30q2 2 10 16q2 2 4.5 6t3.5 6q3 7 9 11q10 12 22 12q7 0 19 -5q32 -14 18 -44 q-2 -4 -12 -17q-15 -15 -22 -30q-12 -20 -28 -20zM119 612q-9 0 -14 5q-14 13 -16 30v1v1q0 2 1 2q0 6 1 9q6 17 18 49q3 10 15 10q17 2 37 -14q5 -5 5 -16q-5 -37 -22 -63q-8 -13 -20 -14h-5z" glyph-name="percent" horiz-adv-x="460" unicode="%"/><glyph d="M237 -104q-52 0 -92 20q-68 32 -104 97.5t-41 137.5q-6 85 60.5 161.5t154.5 103.5q9 3 29 5q6 0 18 2q-1 2 -3.5 5t-3.5 4q-14 16 -20 25q-33 45 -26 115q4 22 5 27q9 43 40.5 95.5t74.5 77.5q43 26 87 12q76 -22 100 -83q4 -15 5 -19q1 -3 1 -9.5t1 -9.5v-1l3 -18 q3 -19 -9 -48q-3 -9 -13 -13q-7 -3 -17 -1q-16 6 -12 20q5 18 6 20q3 8 3 12l-2 9q-1 7 -3.5 22t-4.5 23q-3 15 -18 24q-11 8 -31 8h-1q-26 0 -49.5 -24t-38 -59.5t-23.5 -69.5t-12 -60q-1 -10 10 -34l1 -3q8 -18 25 -32q6 -6 14 -8q21 -7 25 -8q3 -1 9.5 -3t10.5 -3 q15 -7 17 -16t-4 -17.5t-15 -9.5q-4 -1 -10 -1h-11q-18 0 -28 1q-14 2 -46 -5q-47 -14 -94 -52q-23 -18 -50 -59q-65 -95 -11 -212q24 -53 66.5 -81.5t95.5 -10.5q35 12 61.5 41t36.5 69q22 82 -27 138q-7 9 -30 16h-3q-1 -1 -3 -2.5t-4.5 -3t-3.5 -2.5q-20 -11 -24 -20 q-3 -5 -7 -11q-19 -21 -36 -66q-12 -31 -46 -25q-23 4 -27 26q-5 21 -2 36q4 27 10 49q8 22 29 39q37 30 104 50q30 8 101 6q29 -3 56.5 -1t49 8.5t37 26t19.5 52.5q2 8 4 12q6 10 17 10h3q9 -2 13 -6q7 -6 7 -16q-4 -49 -32 -83q-25 -32 -74 -45q-25 -5 -46 -5h-2 q-34 0 -83 -9l14 -14l5 -5q34 -37 35 -90q3 -91 -58 -163q-60 -69 -163 -69z" glyph-name="ampersand" horiz-adv-x="641" unicode="&amp;"/><glyph d="M83 620q-21 -10 -37 5q-7 6 -7 18q-1 5 -1 14t-1 13q-1 5 -1 16t-1 17q0 3 -0.5 7.5t-0.5 6.5q0 20 -3 38q-3 24 6 45l2 3q2 10 10 13q1 1 3.5 1.5t3.5 0.5q13 0 21 -11q1 -2 4 -5l3 -5v-3q-1 -8 2 -19q4 -14 4 -21v-5q-2 -33 12 -95q3 -14 -7 -26q-8 -6 -12 -8z" glyph-name="quotesingle" horiz-adv-x="133" unicode="'"/><glyph d="M276 861q18 -11 13 -29q-6 -19 -30 -50t-30 -43q-21 -38 -49 -120q-12 -37 -31.5 -107.5t-29.5 -102.5q-48 -151 12 -407q2 -7 17.5 -33t27 -49t6.5 -29q-6 -7 -19 -2l4 -2q-10 -6 -21 -3t-19 3.5t-16.5 9t-14 13.5t-12.5 16.5t-10.5 18.5t-9 19.5t-7.5 19t-6.5 17.5 t-5.5 15q-12 32 -13 58q-4 74 8 246q4 45 15.5 95t28 109t24.5 93l2 9q26 113 100 214q3 5 13 13l4 4q10 10 19 11q14 1 30 -7zM148 -104q-2 1 -5.5 3t-5.5 3q8 -4 11 -6z" glyph-name="parenleft" unicode="("/><glyph d="M58 -87q-19 0 -25.5 11.5t-2 29.5t10.5 31.5t12 24.5q16 27 31.5 80t20.5 65q45 118 52 142q8 29 11 62.5t2 56t-4.5 62.5t-4.5 60q-5 118 -34 220q-2 6 -3.5 11.5t-3.5 14.5t-3 15.5t-1 15t2.5 12.5t6.5 9t12 3.5t18 -3.5q13 -4 30 -35q6 -14 10 -29t8 -37.5t6 -29.5 q7 -28 12.5 -63t8.5 -58.5t7 -66.5t6 -60q8 -77 -10 -171q-27 -137 -69 -239q-1 -2 -8 -19t-10.5 -24.5t-12 -24t-15.5 -26t-17 -20t-20.5 -15.5t-22.5 -5z" glyph-name="parenright" horiz-adv-x="276" unicode=")"/><glyph d="M259 797q17 -5 14 -18q-2 -33 -34 -33q-6 0 -10 1q-4 0 -6 1q-11 2 -16 1h-1q17 -18 18 -38q1 -17 -18 -26q-17 -6 -29 4q-9 9 -14 15q-7 9 -15 13l-2 -20v-10q-2 -13 -8 -18q-11 -11 -22 -11t-21 10q-2 2 -8 10q-2 2 -3 4l-4 4q-1 0 -7 -3q-6 -2 -11 -8q-4 -2 -5 -4 q-16 -12 -32 1q-8 6 -10 8q-16 16 -5 36q9 14 28 24l7 3l6 3t6 4h-5q-7 -1 -16 -1q-14 0 -19.5 6t-14.5 25l-2 4l4 4q11 12 36 14q6 0 14 2q-8 6 -15 9q-31 17 -35 52l-2 9h11h11q36 -2 50 -12l9 -6q1 0 8 -5q1 0 2 -1v1q1 4 3 14q0 4 2 11t2 10q2 14 20 18q12 2 26 -5 t17 -18q4 -16 3 -26q20 13 41 21q15 7 26 -4q16 -11 17 -21q1 -8 -10 -21q-6 -6 -18 -14q-11 -8 -14 -12q4 -1 13 -1h6q17 -2 32 -6z" glyph-name="asterisk" horiz-adv-x="273" unicode="*"/><glyph d="M65 -105q-7 0 -14 3q-21 10 -21 31q0 9 8 17q6 7 18 19q16 16 24 25l9 9q25 28 26 29q16 19 37 26q2 0 3 1q12 3 17 1q4 -2 6 -4q9 -9 6 -23q0 -3 -1 -5l-1 -7l-3 -1q-4 -3 -12 -15q-5 -11 -13 -17l-3 -4q-26 -21 -62 -73q-9 -12 -24 -12z" glyph-name="comma" horiz-adv-x="215" unicode=","/><glyph d="M73 1q-24 -3 -36.5 18.5t-4 46.5t34.5 30q32 6 47.5 -10t10 -39t-26.5 -37q-14 -9 -25 -9z" glyph-name="period" horiz-adv-x="156" unicode="."/><glyph d="M101 -200q-9 -39 -37 -31q-23 6 -32 35q-3 13 -1 26q1 2 1.5 7t0.5 7q3 19 8.5 68.5t11.5 75.5q13 53 20 89q9 46 44.5 175t43.5 202q11 90 83 270q10 28 32 28q7 1 22 -2q1 0 3 -1t3 -1q16 -5 11 -20l-8 -25q-20 -67 -60 -230q-5 -20 -12.5 -69t-15.5 -75 q-4 -12 -20.5 -65t-22.5 -74.5t-17.5 -63t-17.5 -75t-9 -67.5q-13 -111 -31 -184z" glyph-name="slash" horiz-adv-x="316" unicode="/"/><glyph d="M129 28q-60 40 -83.5 109.5t-13.5 148.5t30 145.5t48 127.5q6 14 27 51l4 7q12 21 61 61q79 65 86 24v-12q-1 -21 -23 -34q-33 -18 -52 -52q-57 -105 -80.5 -231.5t-3.5 -239.5q8 -53 48.5 -70t79.5 21q6 7 12 15t10 15.5t8.5 19t7 17.5t6 20t4.5 18.5t4.5 19.5t4.5 18 q18 67 9 147.5t-47 143.5l-5 7q-2 4 -8 4q-1 1 -5 1q-5 0 -8 1q-9 2 -12 8q-4 5 -2 13q8 19 24 14q16 -4 30 -16q33 -28 45 -72q55 -211 -25 -374q-22 -42 -37 -57q-33 -34 -72.5 -38t-71.5 19z" glyph-name="zero" horiz-adv-x="387" unicode="0"/><glyph d="M50 14q-20 15 -20 45q0 28 5.5 60t14 69.5t11.5 58.5q4 23 15 101t19 120q6 31 18 162q1 7 1 27t1.5 33.5t6 28.5t16.5 22t31 5q33 -5 30 -35q-4 -22 -7 -34q-6 -27 -8 -53q-1 -17 -5 -44l-2 -13q-6 -35 -9 -73q-1 -11 -5 -31l-3 -17q-3 -25 -10 -74.5t-11 -74.5l-3 -28 q-2 -18 -3 -26q-6 -36 -8 -58q-1 -5 -2.5 -68t-16.5 -88q-23 -40 -56 -15z" glyph-name="one" horiz-adv-x="229" unicode="1"/><glyph d="M90 -8q-11 0 -29 9q-42 19 -28 59q47 138 60 190q7 25 24.5 68t23.5 62q31 98 53 188q2 9 16 42q0 2 2 5t2 4q7 15 17 45q2 5 5 14.5t5 14.5q6 11 0 21q-9 8 -25 7q-38 -5 -59 -29q-23 -22 -35 -45q-6 -11 -13 -19q-7 -10 -20 -5q-12 5 -12 17q2 10 4 15q15 22 19 27 q15 18 30 33q33 34 77 45.5t87 -11.5q22 -15 25 -40q7 -65 -12.5 -140.5t-55.5 -168t-48 -135.5q-5 -19 -15 -42q-14 -31 -30 -75q-1 -4 -3.5 -11t-3.5 -10q-3 -9 -10.5 -27t-11.5 -27l-9 -22l-3 -6l-3 -9q-1 -2 -1 -5l2 1h3q19 5 55.5 15t51.5 14q38 10 63 10h1q7 0 15 -2 q13 -5 10 -17q-2 -9 -10 -12q-3 -2 -9 -2q-36 -1 -112 -22l-23 -7q-6 -2 -21.5 -6.5t-24.5 -6.5q-18 -4 -24 -4z" glyph-name="two" horiz-adv-x="351" unicode="2"/><glyph d="M164 -12q-49 -9 -85 8.5t-46 61.5l-1 3q0 1 -0.5 3.5t-0.5 4.5q-5 66 14 113q14 36 67 102l5 6q5 5 17 13l3 2q13 8 25 -4q9 -11 2 -22q-3 -5 -7 -6q-32 -17 -63 -74q-17 -35 -23 -69q-1 -2 -1.5 -6.5t-0.5 -6.5q-2 -16 -4 -25q-8 -37 14 -52.5t52 6.5q34 25 70 91 q75 136 42 256q-6 23 -16 37l-4 6q-2 -2 -6 -2q-35 -15 -59 -32q-14 -8 -22 -12h-1q-14 -7 -26 -2.5t-18 17.5q-3 8 -1 23q9 46 31 126l2 3q0 2 1 3l6 30l15 63q3 17 9 33q2 10 4 13q-49 -36 -69 -61q-2 -3 -5 -6t-6.5 -6t-5.5 -5t-8 -2q-3 0 -9 2q-3 1 -7 7q-1 4 2 9 q0 1 5 8q34 40 89 79q8 5 26 15q6 4 10 6q7 4 23 6q19 2 28 -7q8 -8 7 -23q-2 -15 -7 -25q-17 -44 -39 -129.5t-26 -97.5l-3 -10q-4 -9 -7 -25l12 6q6 2 37 18q15 10 44 14l5 1q18 4 34 -6q25 -16 34 -45q11 -34 11 -75q0 -15 1 -23q0 -41 -2 -61l-3 -17q0 -1 -0.5 -3.5 t-0.5 -3.5q-7 -38 -28 -96q-15 -40 -29 -66.5t-42.5 -54t-64.5 -34.5z" glyph-name="three" horiz-adv-x="364" unicode="3"/><glyph d="M194 9q-27 0 -38 17q-7 10 -8 23q-4 21 1 48l3 11q4 18 6 36q-9 1 -30 -1h-2q-23 -2 -61 10l-3 2q-28 9 -31 37q-1 7 -1 18q2 44 12 123l3 22q11 76 24 138q9 50 15 112q2 21 8 53q0 4 1.5 12.5t2.5 13.5q0 2 0.5 5t0.5 4q0 7 1 10q3 24 28 24h7h6q22 0 29 -12 q14 -22 6 -48q-9 -23 -12 -49q-5 -56 -23 -138l-6 -33q-18 -89 -23 -143l-4 -34q0 -2 -1 -8t-2 -8q-3 -32 -2 -58q0 -5 2 -15l3 -3h55q1 0 2 3q0 1 1 3v1q2 4 2 7q2 20 12 58t12 57q4 28 14 63q10 40 13 61q2 22 28 19q22 -3 29 -10.5t8 -27.5q1 -15 -8 -55l-2 -8 q-3 -11 -5 -29q0 -8 -5 -35q-2 -8 -2 -11q-6 -28 -8 -38q-1 -5 -3.5 -16t-3.5 -17q3 1 9 1q19 5 20 6q12 4 24 6q18 3 21 -10q2 -13 -12 -18l-5 -2q-17 -8 -34 -12q-3 -1 -15 -4q-13 -4 -15.5 -7t-4.5 -20l-2 -11q-2 -10 -2 -15q-2 -16 -4 -24q-5 -23 -6 -46l-2 -15 q0 -2 -2 -10q-2 -9 -9 -10q-4 -3 -12 -3z" glyph-name="four" horiz-adv-x="349" unicode="4"/><glyph d="M60 27q-20 20 -26 50q-7 41 -1 91q5 34 19 68v2q5 12 11 16q9 6 18 1q8 -6 7 -13q0 -6 -5 -14q-31 -57 -21 -140q1 -16 15 -37q4 -6 8 -6q5 0 8 1q30 10 44 33q69 123 92 323q2 10 4 30q4 45 -21 69q-6 6 -8 9q-1 3 -5 7q-13 13 -31 9q-25 -7 -44 -22q-18 -15 -47 -29 q-11 -5 -20 2q-4 6 -4 13v2q3 23 3 25l3 17q2 8 10 53t16 72t22 49q-14 4 -17 9q-5 6 7 11.5t35 9.5t35.5 6t22.5 3q82 5 164 12l11 1q5 0 8 -3l4 -2v-5q-3 -25 -33 -25q-23 -1 -80.5 -8.5t-88.5 -6.5h-1h-1v-2q4 -15 -5 -42l-5 -14q-1 -2 -5 -13.5t-7 -17.5q-7 -18 -14 -49 q-3 -15 -7 -26h1q1 1 2 1l9 5q47 22 88 16q12 -1 22 -8q36 -24 53.5 -65.5t19 -84.5t-8 -96t-20.5 -90.5t-26 -76.5q-19 -51 -55 -105q-28 -41 -77 -44.5t-78 29.5z" glyph-name="five" horiz-adv-x="407" unicode="5"/><glyph d="M129 -4q-83 0 -96 86q-6 17 -3 48t5.5 53.5t11 56t15 56t17 53t17 47.5t15 39t10.5 28l1 4q7 32 36 97l3 5q0 1 0.5 2.5t0.5 2.5l1 1q11 33 45 106l2 4q15 32 21 53q10 25 35 22q21 0 29 -11q7 -10 1 -28q-7 -24 -26 -75q-3 -6 -10 -28q-3 -11 -7 -20l-6 -19 q-7 -22 -43 -115.5t-48 -146.5q-6 -20 -8 -30q-14 -53 -17 -83v-6q30 44 68 55q30 9 62 -5q15 -7 21 -28q11 -30 5 -67.5t-21 -70.5t-45 -57t-67 -27h-5q-3 0 -5 -1q-2 0 -7 -0.5t-8 -0.5zM164 35q23 -7 40 10q14 13 21 30l5.5 11t4.5 10q5 14 12 27q12 25 10 71v3 q0 4 -2 10q-4 14 -11 18t-22 2q-36 -5 -56 -29l-2 -3q-8 -10 -13 -14q-3 -4 -11 -4h-5q-5 2 -6 5q-2 -12 -2 -16q-4 -24 -5 -36q-1 -25 0 -43q6 -40 42 -52z" glyph-name="six" horiz-adv-x="329" unicode="6"/><glyph d="M355 718q6 -8 -1 -29q0 -1 -1 -2l-1 -3q-13 -35 -37 -87l-1 -2l-3 -7l-2 -4q-1 -4 -5 -11t-5 -10q-2 -5 -9 -19.5t-10 -23.5q-4 -9 -10 -29l-9 -25q-2 -7 -14 -35q-21 -51 -26 -68q0 -3 -1 -5l31 7l1 1q2 2 5 2q11 4 20.5 1.5t11.5 -10.5q4 -18 -14 -26q-8 -5 -16 -6 q-7 0 -25 -6q-13 -5 -24 -6q-4 -2 -6 -6l-3 -8q-4 -8 -5 -12l-7 -18q-28 -80 -30 -88q-8 -28 -16 -50q-16 -50 -23 -76q-1 -4 -4 -10t-3 -7q-7 -11 -17 -11q-8 0 -13 4q-4 3 -14 7q-6 2 -10 4q-26 12 -19 36q2 5 5.5 15t5.5 15q8 22 11 33q6 18 16 52q1 6 5 17t5 16 q9 31 21 51q1 2 2.5 6.5t2.5 6.5l-8 -1q-8 -2 -24 -4q-15 -3 -24 11q-5 6 -1 15q3 6 10 8t19 4q2 1 8 1q2 0 5 0.5t4 0.5q17 4 22 8.5t10 21.5q11 37 14 44q7 16 26 84q3 17 7 28q4 14 7 21q6 16 20 48q5 12 13.5 34t11.5 30q1 3 9 26h-1h-1q-5 -2 -16 -4.5t-17 -3.5 q-25 -8 -53 -8h-8q-6 0 -9 -1q-30 -6 -35 -27q-9 -28 -28 -69q-2 -7 -8 -19l-1 -1v-2q-6 -18 -22 -19q-8 0 -12 6q-6 8 5 28l18 42q2 6 11 29q2 6 4 16q2 6 2 8q2 8 2 10q2 4 4 16q5 16 21 16q2 -1 5 -1q12 0 56 7q17 4 28 5q46 6 105 17l30 5q14 2 16 2q11 0 16 -6z" glyph-name="seven" horiz-adv-x="328" unicode="7"/><glyph d="M167 12q-62 1 -103.5 37t-31.5 97q10 68 62 138t117 116q13 9 12 26q-1 20 -4.5 59t-5 63.5t1 58t10.5 61.5q14 45 59 64t83.5 -2t37.5 -75v-9q3 -42 -14 -85q-13 -35 -52 -87q-3 -4 -7 -7q-4 -4 -10 -4q-4 0 -7 3q-9 6 -6 17l3 5l11 16q14 22 21 34q30 47 31 98 q0 13 -2 39q-2 9 -12.5 18.5t-20.5 9.5q-20 0 -34 -15q-5 -5 -19 -26l-1 -3q-2 -2 -4 -12v-6q0 -58 7 -82t8 -44q2 -23 6 -36q4 -16 4 -37q1 -4 1 -14q12 -119 11 -206q-1 -9 -1 -28v-8q0 -17 1 -25q2 -29 -4 -47q-11 -49 -53.5 -75.5t-94.5 -26.5zM218 91q22 42 10 153 q-2 22 -2 69q-1 12 -1 36v9q1 7 0 11q-4 -2 -8 -6l-9 -7q-2 -1 -6 -5q-2 -2 -3 -4l-13 -12q-13 -12 -37 -36q-6 -6 -9 -10q-11 -19 -20 -30q-31 -45 -42 -73l-3 -7q-4 -10 -10 -28q-6 -28 6 -58q13 -30 43 -40.5t60 0.5t44 38z" glyph-name="eight" horiz-adv-x="435" unicode="8"/><glyph d="M261 715q17 -5 22.5 -12t2.5 -24q-3 -12 -1 -21q2 -11 -3 -27q-14 -48 -23.5 -137t-15.5 -118q-7 -37 -22 -103.5t-25 -121.5t-13 -104v-2q0 -2 -2 -12q-5 -15 -21 -17q-2 -1 -6 -1q-13 0 -21 11q-10 14 -10 28v43q0 61 11.5 129t31 151.5t26.5 126.5q0 2 0.5 5.5 t0.5 4.5q-9 -15 -17 -31q-16 -27 -35 -42q-26 -22 -67 -10q-8 3 -18 13q-25 28 -26 62q-3 68 18.5 130.5t71.5 97.5q14 9 35 9q16 0 52 -17q25 -12 18 -19q16 14 36 8zM208 656q2 25 -20 43q-19 16 -45 6q-25 -11 -38 -32q-38 -62 -42 -147l1 -5l3 -22q0 -2 0.5 -6.5 t1.5 -6.5q2 -11 11 -16q15 -5 21 -5q8 0 21 8q6 5 12 12l1 1q22 26 50 82q7 14 8 17l3 8l2 9q4 13 7 32q3 12 3 22z" glyph-name="nine" horiz-adv-x="317" unicode="9"/><glyph d="M73 241q-24 -3 -36.5 18.5t-4 46.5t34.5 30q32 6 47.5 -10t10 -39t-26.5 -37q-13 -9 -25 -9zM73 1q-24 -3 -36.5 18.5t-4 46.5t34.5 30q32 6 47.5 -10t10 -39t-26.5 -37q-14 -9 -25 -9z" glyph-name="colon" horiz-adv-x="156" unicode=":"/><glyph d="M101 241q-24 -3 -36.5 18.5t-4 46.5t34.5 30q32 6 47.5 -10t10 -39t-26.5 -37q-14 -9 -25 -9zM65 -59q-7 0 -14 3q-21 10 -21 31q0 9 8 17q6 7 18 19q16 16 24 25l9 9q25 28 26 29q16 19 37 26q2 0 3 1q12 3 17 1q4 -2 6 -4q9 -9 6 -23q0 -3 -1 -5l-1 -7l-3 -1 q-4 -3 -12 -15q-5 -11 -13 -17l-3 -4q-26 -21 -62 -73q-9 -12 -24 -12z" glyph-name="semicolon" horiz-adv-x="215" unicode=";"/><glyph d="M52 311q-27 17 -21 53q3 22 20 25q24 3 35.5 2.5t37 -3.5t36.5 -4q14 -1 58.5 -1.5t69.5 -2.5q13 -1 93 4q3 0 19 3t24 2.5t18.5 -11t14.5 -33.5q6 -34 -12 -34q-6 0 -20 2q-21 3 -31 1q-8 -1 -25 -1l-7 1q-29 0 -42 -1q-9 -1 -18 0q-2 0 -5 0.5t-5 0.5q-15 0 -43.5 0.5 t-42.5 0.5q-11 0 -16 -1h-15h-33q-10 0 -29.5 -5t-30.5 -5.5t-30 7.5zM52 149q-27 18 -21 53q3 22 20 25q24 3 36 2.5t37 -3.5t37 -4q14 -1 58.5 -1.5t69.5 -2.5q13 -1 92 4q3 0 19 3t24 2.5t18.5 -11t14.5 -33.5q6 -34 -12 -34q-4 0 -20 2q-20 3 -30 1q-9 -1 -26 -1l-7 1 q-28 0 -42 -1q-9 -1 -18 0q-2 0 -5 0.5t-5 0.5q-14 0 -43 0.5t-43 0.5q-11 0 -16 -1h-15h-33q-10 0 -29.5 -5t-30.5 -5.5t-30 7.5z" glyph-name="equal" horiz-adv-x="488" unicode="="/><glyph d="M122 86q-8 0 -13 2l-11 3l-4 1q-26 10 -30 33v2q-7 29 -6 51q5 65 17 132q6 31 18 61q20 52 40 81q6 9 17 26.5t15 24.5l1 1q8 14 12 20q25 42 71 93q44 49 73 108q15 33 30 69q4 10 0 28q-1 5 -4 12l-3 8q-5 18 -33 30q-9 3 -28 5q-8 0 -11 1q-5 0 -9 -3l-10 -7 q-43 -33 -55 -51q-39 -60 -51 -94q-1 -3 -3.5 -9t-3.5 -9q-11 -27 -16 -48l-1 -6q-4 -16 -5 -24q-5 -23 -8 -33q-6 -19 -30 -19h-1q-21 0 -34.5 11.5t-14.5 30.5q-1 8 -1 23v10q-3 55 28 113q3 5 13 28l1 2q13 34 41 53l15 11l36 25q21 14 60 26q4 2 12 4.5t12 3.5l2 1 q10 2 29 2q47 0 79 -26t37 -69q0 -3 0.5 -10t1.5 -10q1 -4 1 -11t1 -10q3 -27 -14 -58q-11 -21 -16 -43q-2 -7 -9 -22q-1 -2 -5 -9.5t-6 -10.5q-19 -41 -37 -65q-28 -34 -52 -81q-10 -20 -16 -29q-3 -5 -7.5 -13.5t-6.5 -12.5q-10 -21 -18 -41q-11 -24 -31 -74l-5 -12 l-4 -11q-16 -96 -20 -127q-2 -12 -2 -18q-4 -20 -4 -43q0 -14 -8 -21q-6 -6 -16 -6zM105 -123q-25 1 -45 20q-16 16 -13 34q5 46 44 64q23 11 38 -8q6 -7 12 -18q11 -18 0 -37q-9 -14 -9 -34q-2 -21 -24 -21h-3z" glyph-name="question" horiz-adv-x="299" unicode="?"/><glyph d="M309 -75q-86 -41 -149 -12t-98 95.5t-32 138.5q6 150 106.5 300t243.5 205q55 22 94.5 5t66 -54t41.5 -88t21 -97.5t3 -81.5q-16 -188 -121 -249q-29 -17 -56 -3q-17 8 -22 23q-17 39 -10 89l12 84q-2 -2 -2 -4q-8 -16 -26 -48q-16 -28 -25.5 -43.5t-30.5 -35.5t-44 -26 q-32 -9 -57 4t-34 43q-7 23 2 75q10 67 56 133q8 11 11.5 16t13.5 18t18 18.5t18.5 12t21 6t20.5 -7.5q34 -24 37 -62q1 -8 2.5 -23.5t2.5 -22.5q0 -7 -4 -17q-2 -6 -12 -9h-2q-6 0 -9 4q-3 3 -3 8q1 13 -5 43q-2 10 -4 26q0 2 -1 5.5t-1 4.5l-2 3q-1 0 -2 -1 q-14 -8 -20 -15q-28 -35 -51 -100q-20 -53 -22 -101q-3 -50 30 -30q12 7 33 35q38 48 66 105q1 1 7 14.5t9 20.5q10 19 19 38q2 5 16 43l3 9q7 21 19 21q5 0 19 -7q18 -9 18 -26v-6q2 -26 -3 -44q-26 -92 -40 -215q0 -12 12 -20q8 -3 13 0q22 10 31 24q52 77 65 158 q14 94 -17 197q-15 56 -38 83q-11 14 -32 27t-37 12q-61 -3 -136 -76q-20 -20 -40 -47.5t-30 -44.5t-30 -53q-94 -169 -86 -316q1 -22 3 -39.5t8 -38.5t16.5 -35t29 -23.5t44.5 -8.5q59 0 81 20q29 27 39 43q5 8 13 8q2 0 8 -2q12 -6 9 -19q-1 -5 -6 -13q-24 -32 -62 -53z " glyph-name="at" horiz-adv-x="637" unicode="@"/><glyph d="M386 -133q-3 0 -17 2q-31 6 -36 36q-10 56 -2 151q3 32 15 89q11 64 13 87q2 12 2 17q-1 -3 -13 -28.5t-18 -39.5l-2 -3q-56 -130 -100 -193q-16 -25 -48 -44q-22 -14 -61 -14q-27 0 -48.5 18.5t-27.5 42.5q-17 58 -12 115l3 29q0 11 1.5 34.5t2.5 35.5q1 13 11 62l3 13 q10 43 20 72q4 14 13 35l6 13q24 48 31 59l2 4q33 56 60 82q10 10 22 19q2 2 6.5 5.5t8 6.5t6.5 6q17 19 50 32q69 26 105 -41q15 -29 11 -71q-3 -27 -20 -95l-8 -29q-1 -6 -6 -13q-5 -8 -15 -8q-14 0 -17 11q-3 6 -3 14q-1 18 10 47q16 45 18 95q0 17 -15 45v1q-3 5 -10 9 q-12 8 -22 -1q-16 -14 -28 -36q-63 -111 -79 -141q-23 -43 -31 -70l-6 -22q-28 -111 -32 -135q-15 -83 -6 -132q2 -10 2 -29v-3q0 -11 9 -24q6 -7 8 -7q3 0 11 2q28 5 53 43q28 41 42 74l45 105l10 21q5 12 12 24q17 27 45 99l4 9q3 9 8 20q2 5 5.5 14.5t5.5 13.5 q18 48 58 160l6 23q1 2 2 5t1 5q4 14 16.5 24t28.5 10q9 0 16 -3q26 -12 23 -38q-4 -19 -8 -26q-13 -21 -30 -80l-2 -7q-15 -56 -37 -159q-23 -106 -23 -194q0 -19 -4 -59q-4 -32 -6 -100q0 -3 0.5 -10.5t0.5 -11.5q1 -8 1 -25q0 -48 -40 -48zM69 192l3 3q0 3 0.5 10t0.5 11 q1 2 -2.5 4t-6.5 1v-2q-5 -13 -2 -22q1 -1 3.5 -2.5t3.5 -2.5zM72 -4q0 1 1 3l1 2q-2 19 -3 21q-10 34 -4 69l3 22v34q-1 5 -1.5 16.5t-0.5 17.5q0 1 -2 6l-3 -3l-2 -1q-1 0 -1 -1v-2l-3 -46q-3 -25 -1 -55q2 -33 5 -49q2 -3 2 -9l2 -21z" glyph-name="A" horiz-adv-x="534" unicode="A"/><glyph d="M333 -159q-77 3 -112 41q-46 47 -33 111l2 10q8 42 22 61q5 6 14 6h3q2 0 4 -2h-1l-1 -2q1 0 2 1v1q5 -2 6 -6q3 -6 -1 -13q-1 -1 -1 -3l-6 -9q-24 -25 -4 -103q7 -31 39.5 -41.5t61.5 4.5q7 4 14 9t11.5 9t12 12t10 11t11 13t9.5 12l1 3q5 6 10 18q1 1 1 3t1 3 q2 4 5.5 12t5.5 12q2 5 6.5 16t6.5 16q19 40 14 93q-2 22 -4 33l-1 10v3v2q-28 46 -50 57q-31 15 -67 3q-3 -1 -20 -13l-3 -3q-10 -9 -22 -9q-20 0 -29 22q-5 12 2 21l3 6q2 3 7 9.5t8 10.5q2 3 8 9q13 15 15 20q2 4 3 5q16 13 31 37q24 32 28 36q10 9 20 31q14 24 21 35 l22 39q11 23 18 51q6 22 10 52q-2 -1 -7.5 -3.5t-7.5 -4.5q-57 -41 -81 -69q-27 -31 -38 -43l-19 -21l-1 -2q-8 -8 -11 -12q-65 -93 -116 -194q-39 -78 -44 -122q-4 -18 -7 -27q-2 -6 -4 -14q-5 -23 -7 -53q-2 -22 -4 -33v-5q0 -3 -2 -13q-7 -23 -30 -23q-5 0 -15 4 q-4 2 -12 8l-5 3q-5 3 -5 9q-5 77 11 142q9 37 13 112l2 25q0 18 3 36q5 37 28 179q3 16 5 48q1 4 1 12.5t1 12.5q1 13 12 22.5t26 9.5q10 0 15 -4q7 -3 9 -9q10 -13 10 -38q1 -29 -10 -96q-2 -8 -4 -20q-2 -8 -4 -25.5t-4 -26.5q-1 -13 -5 -37q-6 -30 -8 -39q-3 -13 -3 -27 q2 5 8 15q2 3 11.5 20t14.5 26q41 74 69 113q36 51 85 106q47 51 93 81l4 3q27 16 38 19q43 11 72 -2q13 -6 17 -13t3 -21q-4 -43 -40 -113q-14 -28 -46 -76l-11 -18q-8 -13 -26 -39q-17 -24 -21 -31q-5 -7 -14.5 -18.5t-10.5 -12.5q-8 -8 -11 -13q-5 -5 -7 -8q25 0 45 -4 q41 -7 93 -51l10 -10l2 -3q34 -37 33 -85q-6 -119 -74 -210q-29 -39 -67 -63q-32 -19 -63 -19h-3zM110 469l6 11l-2 10q-4 -4 -6 -9q0 -8 2 -12zM104 430l6 12l-6 7q-5 -8 -6 -13q0 -2 6 -6zM58 34q7 11 14 56q5 17 6 30q5 27 5 47q1 7 1 20.5t1 20.5q0 2 4 22t3 31 q-1 18 -0.5 25t5 24.5t5.5 24.5q-7 5 -5 20q1 3 3.5 12t2.5 12t-3 11q-1 -2 -3.5 -6t-4.5 -7.5t-2 -6.5q-10 -106 -16 -159q-2 -18 -4.5 -38.5t-5.5 -45t-5 -38.5q-1 -10 -1 -27v-28zM461 -38q3 2 6 2q1 0 1 1.5t1 1.5l20 44q11 23 19 51q7 23 10 50q0 2 2 8l4 21l-6 6 q0 -1 -2 -2.5t-2 -2.5q-4 -14 -4 -21q0 -36 -18 -66q-7 -11 -11 -21q-3 -5 -6.5 -16.5t-5.5 -16.5q-1 -5 -4.5 -15.5t-4.5 -16.5q-1 -1 1 -7zM451 -71l1 2q11 13 9 20q0 1 -6 7q-2 0 -4 -2q-1 -3 -4 -10t-4 -10q-4 -4 4 -6q2 -1 4 -1z" glyph-name="B" horiz-adv-x="589" unicode="B"/><glyph d="M174 -183q-9 0 -31 4q-24 7 -54 41l-6 7q-7 8 -17 26l-3 6q-14 26 -23 65q-13 59 -9 112q7 98 13 140q12 77 43 175q18 61 45 111q35 64 83 93q32 21 52 26q16 5 34 5q32 0 52 -19l3 -2q61 -34 48 -115q-3 -19 -9 -34l-4 -9q-24 -61 -39 -85q-12 -17 -17 -22 q-12 -12 -23 -5q-13 9 -7 26l4 8q13 18 31 60l5 14q21 47 16 94q-2 12 -4 13q-26 28 -50 33q-19 4 -31 -13q-6 -7 -16 -30l-6 -14q-8 -16 -17 -43q-4 -9 -7 -20l-10 -26l-18 -49l-9 -27q-2 -4 -7 -19l-3 -11q-9 -23 -14 -30q0 -1 -3 -11q0 -3 -2 -13q-19 -56 -28 -131 q-7 -58 -8 -102v-20q0 -51 5 -74q11 -46 19 -67l3 -6q1 -3 2 -4q8 -13 18 -13q4 0 12 4q46 21 62 68q3 9 36 100l11 32q2 5 8 11q7 5 16 4q10 -4 11 -11q3 -10 -1 -26q-8 -25 -16 -43l-4 -12l-6 -17q-2 -6 -6.5 -18.5t-6.5 -18.5q-9 -31 -32 -66q-16 -27 -41 -40 q-19 -12 -44 -12zM165 491q4 2 5 2q1 4 4 10.5t4 9.5q2 2 -0.5 5t-6.5 2l-2 -1q-11 -13 -10 -20q1 -2 3 -4.5t3 -3.5zM94 306q5 2 5 4q4 14 5 21q2 38 21 66q2 3 6 10.5t5 9.5q3 5 7 16t6 16q1 4 5 15t6 17q1 1 -1 7l-6 -2q-1 0 -1 -1.5t-1 -1.5q-4 -7 -11 -21t-11 -21 q-16 -34 -21 -51q-9 -26 -12 -49q0 -2 -2 -8l-5 -21z" glyph-name="C" horiz-adv-x="406" unicode="C"/><glyph d="M247 -170q-36 6 -64.5 31.5t-33.5 62.5q-1 7 -1 20v10v1l1 1v8q0 19 5 27q4 10 16 10q14 0 16 -15v-13q-4 -72 32 -94q21 -12 44 -4.5t36 27.5q50 74 77 147q4 11 10 35l2 8q1 3 3.5 11.5t3.5 13.5q12 46 17 69l9 39q15 57 17 90q1 13 1 77l-1 6q0 32 -13 86 q-1 5 -3.5 16.5t-4.5 17.5l-1 4q-1 1 -6 2q-8 0 -18 -5q-31 -14 -68 -51l-14 -15q-8 -10 -13 -14q-16 -17 -37 -57q-30 -59 -79 -192l-1 -4q-2 -4 -17 -45.5t-23 -62.5q-21 -54 -31 -126l-1 -10q-2 -20 -4 -28q-5 -24 -19 -42t-31 -2q-5 4 -10 12q-15 27 -13 51v2q4 47 7 73 q2 18 2 26q0 2 0.5 5t1.5 5q0 3 0.5 7t0.5 6l2 27q2 20 4 60t4 60q5 95 -2 140v5q1 25 1 75q2 112 8 155l2.5 10t1.5 9l1 5q3 12 17 18q10 5 22 5q26 0 33 -35q3 -14 1 -45l-3 -21q-1 -7 -2.5 -21t-1.5 -21q-3 -36 -1 -103v-24v-5q2 -4 2 -6v-39v-89q0 -6 -0.5 -17.5 t-1.5 -17.5q1 4 3.5 12t3.5 12q28 95 87 197q7 12 22 45q20 43 52 64q57 40 96 55q53 20 96 -14q12 -9 18 -23l5 -14q10 -22 12 -34q8 -30 18 -97q1 -10 -1 -24l-1 -4q-3 -22 -11 -66q-21 -124 -50 -212q-31 -94 -97 -182q-30 -42 -60.5 -58.5t-74.5 -8.5zM455 288q3 3 5 3 v2t1 2q2 8 4 24.5t3 24.5q4 38 4 57q0 35 -3 52q-1 5 0 9l-2 23l-6 5q-3 -5 -2 -6q0 -15 1 -22q9 -38 0 -72q-2 -6 -4 -24q-1 -6 -1.5 -18t-0.5 -18q0 -5 -0.5 -17.5t-0.5 -18.5q-1 -1 2 -6zM455 252v2q6 14 3 23q-1 2 -7 6l-3 -3q0 -4 -0.5 -11.5t-0.5 -10.5q-1 -3 2 -5.5 t6 -0.5z" glyph-name="D" horiz-adv-x="572" unicode="D"/><glyph d="M105 -138q-26 0 -47 12q-14 8 -18 19q-13 39 -9 76q8 67 24 131q4 14 7 36q4 37 14 85q16 71 19 101q4 44 17 88q14 47 18 76q-15 -3 -30 -3h-3q-9 0 -17 3q-12 4 -12 15q-1 10 6 17q10 10 28 10h2q36 0 81 19q48 21 133 47q32 10 48 16l38 12q32 10 48 14l18 6l7 1 q2 0 3.5 0.5t2.5 0.5q13 0 18 -11q3 -7 0 -15q-3 -10 -14 -13l-31 -12q-53 -21 -92 -31l-11 -3q-64 -15 -101 -29q-4 -2 -7 -2l-8 -3q-14 -5 -15 -22q-4 -25 -15 -77l-15 -63q-7 -40 -22 -91l-1 -3q-4 -14 -3 -20q0 -3 -3 -24q-3 -7 -3 -15v-1q17 0 42 9q3 0 8 2t7 2l58 16 q14 4 50 13.5t56 15.5h4q10 0 16 -7q9 -16 -5 -26q-7 -5 -15 -8q-37 -12 -85 -23q-28 -4 -88 -26q-6 -2 -10 -4q-29 -9 -39 -11q-8 -1 -8 -8q-1 -13 -7 -37q-4 -17 -6 -33q-6 -46 -20 -98q-11 -46 -8 -81q10 -1 25 3q32 10 104 27q52 12 77 20l16 4q12 4 19 6q8 2 16 0 q11 -2 14 -14q2 -12 -8 -19q-3 -2 -8.5 -4t-6.5 -3q-13 -4 -52 -13l-13 -3q-40 -10 -77 -21q-6 -2 -16.5 -4.5t-14.5 -3.5q-9 -4 -17 -5q-26 -8 -39 -11q-16 -2 -24 -2zM68 -5q4 2 5 4t1 11q1 7 2.5 20t2.5 20q0 2 0.5 4.5t0.5 3.5q-3 16 7 40q2 13 1 18q-5 23 8 38 q4 4 4 11q-10 27 8 61q2 6 1 10q-6 21 12 52l1 5q-11 2 -1 9q2 2 2 5l-8 8q-4 -6 -4 -8q-2 -8 -6.5 -30.5t-6.5 -34.5q-8 -47 -22 -141q-2 -13 -6 -37t-5 -35h2q-1 -5 -1 -15t-1 -15q0 -1 3 -4z" glyph-name="E" horiz-adv-x="533" unicode="E"/><glyph d="M561 688q9 -5 11 -14q0 -10 -8 -16l-12 -6q-86 -35 -182 -63q-2 -1 -7 -2.5t-7 -2.5q-41 -18 -110 -36h-2q-2 -1 -3 -1l-8 -3q-11 -2 -11 -14q-2 -18 -2 -28l-1 -9q-5 -61 -15 -116l-1 -2v-6q1 -22 -8 -79l-3 -23v-2q10 1 37 9q5 2 15 4q40 11 83 29l1 1q10 4 17 4 q8 0 15 -5q6 -6 5 -13q-2 -13 -20 -21q-22 -9 -83 -27l-16 -4q-15 -4 -52 -20q-10 -5 -13 -17q-1 -11 -5 -28q-1 -3 -2.5 -9.5t-2.5 -11.5t-1 -9q-6 -34 -10 -52q-14 -83 -15 -92q-4 -29 -7 -40q-4 -17 -5 -23l-9 -52l-6 -36q-2 -7 -5 -18q-6 -17 -21 -17q-6 0 -14 3 q-4 2 -22 8q-26 7 -26 30t3 53q1 6 10 91q5 22 6 26q5 15 3 30q0 13 1 19l1 7q3 45 15 106l9 54l1 4q13 88 21 125q4 15 8 49l6 34q1 6 3.5 18.5t3.5 18.5q2 6 4 18h-1q-20 -7 -43 -17q-19 -6 -33 -4q-13 0 -16 10q-3 11 8 19q6 4 9 4q7 3 20 7t19 7q42 15 72 23l15 4 q91 25 130 39l9 3q83 30 116 45l56 24q5 2 13.5 6t9.5 4q2 1 6 1q9 9 21 9q13 0 25 -7zM103 222l6 11l-6 6q-1 -1 -3 -5l-3 -6zM101 137q-7 5 -5 18l3.5 10.5t2.5 10.5t-3 11q-9 -17 -9 -19q-3 -24 -8.5 -71t-8.5 -71q-2 -16 -4.5 -34.5t-5.5 -40.5t-5 -35q-1 -8 -0.5 -24.5 t-0.5 -25.5q7 11 14 51q5 13 6 27q5 23 5 42q1 6 1 18t1 19q0 3 4 20.5t3 26.5q-1 16 -0.5 22.5t5 22.5t5.5 22z" glyph-name="F" horiz-adv-x="422" unicode="F"/><glyph d="M376 -247q-11 0 -25 12q-23 24 -18 66q2 19 4 57q4 71 12 105q-8 -10 -11 -15q-9 -14 -41 -56l-10 -12q-29 -37 -72 -58q-29 -14 -48.5 -20t-44 -3t-42.5 21q-9 9 -13 15q-45 63 -36 154v2q9 96 72 238q18 39 97 191q60 115 126 166q24 18 41 29t42 21t47 4t40 -28 q21 -24 13 -58q-21 -102 -47 -160l-9 -20q-6 -14 -16 -17q-9 -2 -14 2q-6 3 -8 13q-2 8 1 14q6 10 9 23q28 82 34 128q6 42 -30 21q-6 -3 -44 -34q-2 -1 -3 -2q-21 -16 -35 -40l-33 -51q-38 -56 -54 -86q-47 -83 -76 -157q-5 -13 -15.5 -38t-12.5 -30l-5 -11 q-18 -44 -26 -106q-1 -7 0 -15l1 -13q1 -7 2 -19.5t2 -22.5t2 -18q4 -30 20 -46q-4 -9 -5 -11q1 -2 6 -7l6 12q29 -19 72.5 22.5t71.5 84.5q8 12 46 68q10 16 11 27l3 20q4 36 8 54q-5 -2 -16 -11q-16 -14 -38 -8q-9 2 -13 13q-3 10 4 19q23 26 75 49q79 35 87 -16 q1 -4 1 -9v-8v-5q3 -22 -10 -48q-13 -28 -19 -73q-4 -20 -11 -102q-1 -10 -2.5 -27.5t-3 -32t-3.5 -27.5l-3 -24q-2 -13 -5.5 -37.5t-4.5 -35.5q-3 -24 -24 -32q-3 -1 -9 -1zM388 608h5q3 3 8.5 8t7.5 7q3 2 1.5 5.5t-4.5 5.5l-2 -1q-15 -6 -18 -15q0 -1 1 -4.5t1 -5.5z M245 458l6 3q10 12 13 18q2 4 3 5q1 0 3 -2l6 13l-1 2q16 23 36 37q11 7 19 14q4 4 8.5 8t9.5 9.5t8 8.5q1 2 10 11.5t14 15.5q1 1 1 4q1 2 1 3q-5 0 -7 1l-1 -1q-1 -2 -2 -1q-7 -5 -19.5 -16t-18.5 -16q-26 -23 -41 -40q-18 -21 -32 -42q0 -1 -5 -8l-13 -18zM447 192l7 13 l-6 7q-4 -6 -6 -13q0 -2 5 -7z" glyph-name="G" horiz-adv-x="541" unicode="G"/><glyph d="M167 -172q-10 4 -27 18q-12 12 -10 27q0 9 -1 13q0 15 1 24q3 25 3 53q0 40 3 61q-2 15 2 43q0 2 0.5 6.5t0.5 6.5q-3 -2 -36 -18t-36 -18q-11 -8 -21 -4q-8 3 -12 10q-10 11 0 25q7 9 12 12q39 21 89 44q7 3 8 10q1 17 5 46q4 36 5 53q3 42 17 119v4q8 42 11 77 q5 35 11 52q5 13 7 28q0 2 3 26q4 15 3 27q0 5 3 10q4 6 7 18q11 33 32 40q1 2 2 2q30 36 40 -25q4 -26 2 -48q-1 -11 -6.5 -30t-6.5 -25q-3 -16 -6 -45.5t-4 -38.5q-3 -18 -7 -62t-8 -67q-1 -7 -3.5 -21.5t-3.5 -22.5q-6 -52 -8 -77l4 1q21 7 25 9q30 16 86 28l29 7l42 9 q4 1 7 7v2q4 12 4 16q2 23 10 60q6 30 9 55q3 29 16 63q4 10 8.5 29t5.5 23q9 40 14 53q2 8 7.5 23.5t8.5 23.5q3 10 11 32q1 5 5 13q2 4 2 5q14 31 44 31l5 -1q21 -1 27 -7.5t5 -31.5v-1q0 -29 -11 -51q-12 -23 -24 -79q-4 -20 -19 -100q-2 -21 -10 -49q-1 -4 -3.5 -14.5 t-4.5 -16.5q-3 -16 -10 -58v-1h23q7 0 12 -8q5 -11 1 -21q-8 -21 -27 -21h-1h-2q-10 0 -14.5 -5.5t-7.5 -23.5q-10 -65 -24 -121q-19 -84 -27 -168q-3 -40 -39 -51q-8 -3 -14 1l-2 2q-23 14 -28 33q-9 30 -3 65v2q0 2 1 6t1 6q12 40 22 111q2 14 4 22q4 22 4 34q0 10 6 24 q0 1 1 3.5t1 3.5l3 9q3 6 3 12q0 2 0.5 5t1.5 5v6q-6 -2 -11 -3t-18 -4.5t-20 -5.5q-81 -23 -87 -25q-1 0 -34 -14l-18 -9q-6 -3 -7 -11l-3 -35q-6 -44 -8 -71q-2 -24 -4 -38v-2q-10 -68 -14 -110q-3 -20 -18 -32q-6 -4 -13 -4h-4zM504 467l7 12l-1 11l-7 -9q0 -9 1 -14z M496 422l7 14l-6 8q-1 -3 -3.5 -7.5t-3.5 -6.5q0 -2 6 -8zM405 -51q8 11 15 42q4 16 5 23q5 20 5 35q1 5 1 15t1 15q0 2 4 17t3 22q-2 11 -1 14.5t5 11t5 14.5q-10 5 -5 30q1 4 6 6q1 0 -2 4q-9 -12 -10 -16q-3 -20 -8.5 -50.5t-7.5 -50.5q-1 -4 -15 -91q-1 -6 -0.5 -20 t-0.5 -21zM444 -63l5 5q0 12 -0.5 33.5t-0.5 33.5q-6 -39 -8 -66q0 -4 4 -6z" glyph-name="H" horiz-adv-x="583" unicode="H"/><glyph d="M115 -146q-43 0 -80 34q-21 19 -30 63q-9 59 21 105q10 15 34 28q2 1 6 1q8 0 13 -6q6 -7 2 -16q-4 -12 -12 -19q-17 -12 -20 -45q-4 -33 5 -63q3 -11 9 -16q24 -23 52 -24q20 -2 30 13q6 8 15 28q1 3 3.5 10t4.5 10q10 21 15 38q0 1 2 7q2 4 2 6q1 11 8 63q6 30 7 46 q0 2 6 37q2 12 4 17q1 7 3.5 22t3.5 23q3 16 8.5 48t8.5 48q2 13 -6 19q-16 11 -27 37l-29 80q-6 21 -3 46q8 65 33 138q3 9 13 23q1 2 3.5 5.5t3.5 5.5q17 35 48 70q43 49 76 71l18 15q17 16 36 14q21 -2 36 -15q7 -7 6 -14v-10q0 -23 -7 -35q-17 -27 -43 -96q-4 -9 -7 -20 q-3 -8 -13 -44q-1 -7 -5 -21q-5 -20 -11 -60q-8 -47 -9 -50q-2 -12 -8 -36q-1 -8 -4.5 -23.5t-5.5 -23.5l-9 -45q-1 -9 -5 -27q-1 -8 -4 -22.5t-5 -26.5t-3 -23q-4 -37 -20 -109q-12 -54 -16 -86q-2 -8 -2 -12q-6 -32 -5 -45q0 -17 -6 -29q-6 -13 -13 -31q-20 -52 -79 -73 q-13 -4 -29 -4q-8 0 -12 -1h-8zM244 383l8 36q8 35 19 91q8 34 11 61q3 25 17 78l3 11l3 10q4 18 7 26l24 55q-50 -45 -73 -91q-4 -9 -12 -19q-13 -16 -23 -50l-3 -11q-2 -10 -4 -16q-13 -36 -10 -88q0 -9 4 -21q7 -21 19 -54q5 -12 10 -18zM291 461l4 6l4 8q0 2 0.5 4.5 t0.5 3.5l-2 2l-7 -7v-8h-1zM226 59l6 6q1 4 1 13q2 8 4 24.5t3 24.5q0 1 0.5 4t0.5 5q-3 17 8 48q3 13 3 22q-5 26 9 46q4 3 4 13q-8 36 11 73q3 7 2 12q-5 24 14 63l2 6q-11 2 -2 11q3 2 3 6q-1 3 -8 10q0 -1 -2 -4.5t-2 -5.5q-1 -5 -7.5 -34t-8.5 -44q-5 -28 -14.5 -84.5 t-14.5 -84.5q-2 -17 -7 -47.5t-6 -40.5h1q0 -6 -1 -18t-1 -18q0 -2 2 -6z" glyph-name="I" horiz-adv-x="421" unicode="I"/><glyph d="M159 -214q-7 0 -10 1q-41 0 -82 19l-5 5l-5 5q-1 0 -1 0.5t-1 0.5q-21 24 -24 57v19v7q-6 29 17 68q3 6 10 10q5 3 14 1q8 -4 10 -8q2 -7 -1 -13l-2 -3l-3 -7q-21 -34 -12 -72q3 -10 4 -14t5.5 -13t10 -11.5t13.5 -0.5q7 2 13.5 7t11.5 9.5t10.5 13.5t8.5 14.5t7.5 16.5 t6 15l6 16t4.5 13l5 12q11 26 25 80q8 28 13 43q4 15 14 72l1 9l3 21q2 23 6 45q0 3 1 8t1 8q0 11 1 16q5 44 12 79q5 28 5 45q3 27 5 37q3 11 5 34q0 16 3 31q8 46 21 91q-6 -3 -17 -8t-15 -7q-42 -19 -57 -29q-11 -7 -33 -19q-34 -19 -49 -33q-11 -8 -29 -11h-2 q-7 0 -15 8q-6 6 -4 14q0 8 8 13l7 4q4 2 10.5 6.5t12 8t10.5 6.5q6 3 41 23q40 24 56 30l44 21q9 4 50 23l9 3q2 1 5.5 2.5t6.5 3t6 3.5q19 10 42 15q52 10 116 35q73 26 153 34q7 1 11 0q8 -2 11 -8t0 -14q-8 -22 -32 -22h-1q-9 0 -29 -4l-17 -3q-48 -8 -90 -24 q-13 -6 -60 -20q-3 0 -8.5 -2t-8.5 -2q-2 -1 -7 -2.5t-8 -2.5q-18 -4 -26 -7q-11 -4 -13 -18q-2 -7 -4 -23q-1 -4 -2.5 -11t-1.5 -9q-1 -5 -2.5 -13t-1.5 -12q-6 -30 -8 -45q-4 -26 -10 -76v4q-6 -6 -7 -8q0 -8 1 -13l6 9q-2 -17 -4 -49q-2 -15 -4 -45q-2 -14 -4 -42 q-1 -8 -1 -22q0 -23 -2 -34q-4 -34 -7 -51q-10 -76 -19 -113l-6 -23q-9 -38 -10 -51q-1 -4 -8 -24l-3 -7l-3 -9q-10 -24 -13 -36q-6 -25 -30 -62q-26 -39 -61 -39zM319 346l7 12l-5 6q-3 -4 -7 -12q0 -1 5 -6zM246 -46q6 8 9 16t6 22t4 17q2 7 7 29q6 23 9 47q1 7 2 20.5 t3 19.5q1 3 6 22.5t4 30.5t1 23t7 28t7 22q-6 5 -4 21q1 4 4.5 12t3.5 11t-2 12q-10 -18 -11 -20l-27 -157q-1 -7 -24 -121q-1 -9 -2 -27.5t-3 -27.5z" glyph-name="J" horiz-adv-x="416" unicode="J"/><glyph d="M553 603q4 -9 -3 -17q-15 -13 -34 -21q-50 -21 -127 -80q-80 -62 -119 -93l-54 -42l-7 -5q-9 -9 -10 -18q-3 -39 -12 -87q-1 -5 4 -9q62 -60 116 -135l5 -6q38 -56 53 -81q21 -36 40 -56l25 -29q30 -38 47 -52l19 -15l1 -1q17 -11 7 -24q-10 -16 -22 -16q-7 0 -12 4 q-10 8 -15 13q-19 18 -66 72l-7 9q-40 46 -62 90q-5 8 -15 22q-9 12 -12 18q-19 30 -78 102l-12 13q-7 9 -25 25l-1 1q-1 -1 -1 -3.5t-1 -3.5q-8 -43 -8 -49q-3 -26 -11 -56l-3 -15l-4 -15q-10 -44 -17 -81q-6 -36 -22 -79q-5 -12 -15.5 -16.5t-21.5 0.5q-37 17 -42 57 q-3 16 4 55l1 3q0 4 2 10.5t2 9.5q5 14 6 25q4 25 16 71q10 40 13 60q6 32 15 63v2q0 1 3 17q-11 3 -20 9l-6 4l-4 3q-4 4 -4 9q0 6 4 9l15 14q15 15 25 21q5 3 7 12q0 2 1 6t1 6l3 20q4 30 14 77q9 41 21 125l1 14q6 46 28 85q7 14 21 15q2 0 8 2q1 0 1 1q11 7 15 7 q2 0 6 -2q9 -4 15 -18l2 -3q7 -19 3 -32q-2 -6 -2 -11q-2 -12 -4 -16q-12 -38 -20 -105l-3 -20q-5 -40 -12 -81q8 6 11 9q32 29 87 69q34 23 85 65q28 22 105 66l17 10q14 8 28 3q8 -2 11 -10zM194 612q-11 2 -1 9q3 3 3 5l-2.5 2.5l-3 3l-2.5 2.5q-5 -5 -5 -8 q-1 -6 -7.5 -29t-8.5 -35q-4 -24 -13.5 -70t-14.5 -70q-2 -12 -6.5 -36t-6.5 -36h1q0 -1 -1 -12t-2 -17q0 -2 3 -5l1 1q3 2 4 4q2 3 2 11l6 40q0 1 1 3.5t1 3.5q-3 17 8 40q0 2 1.5 8t1.5 10q-5 23 9 37q4 4 4 12q-9 27 11 59q2 7 1 10q-5 23 15 52zM99 272q5 -1 6 3t0 9 l-1 6l-8 -18h3z" glyph-name="K" horiz-adv-x="434" unicode="K"/><glyph d="M75 -164q-14 0 -23 8q6 14 13 51l8 32q6 27 9 51q1 6 1.5 21t2.5 23q1 5 6.5 25t4.5 31q-2 13 0.5 25.5t7.5 30l7 24.5q-8 8 -4 22q1 4 4.5 13t3.5 12.5t-2 12.5q-11 -18 -11 -22l-27 -170q-23 -122 -24 -130q-1 -7 -4 -48q-16 17 -17 40v2q-2 17 1 26l6 39q4 39 12 58 q1 2 1 7q0 14 6 36l1 5l9 39q1 6 3.5 16t3.5 16l21 94l2 10q1 1 1 2q1 2 1 3q1 1 1 5t1 5q0 20 7 48l3 18q6 32 13 53q0 1 1 2l1 2l1 3q0 21 7 45q5 18 6 34q0 9 7 35l4 16q1 4 2.5 12.5t2.5 12.5q8 44 16 66q4 12 6 25q1 6 6 22l1 2q9 25 36 22l4 -1q7 -1 21 -1 q17 1 24 -10q7 -12 1 -27q-1 -3 -4.5 -12.5t-5.5 -15.5q-10 -24 -9 -43q0 -21 -10 -51l-1 -2q-15 -46 -26 -107q-7 -40 -13 -64q-7 -33 -11 -55q-13 -64 -19 -110q-1 -9 -8 -36q-1 -3 -3 -11.5t-3 -13.5l-3 -14q-4 -17 -5 -28q-3 -17 -9 -34q-10 -33 -24 -101q-4 -24 -7 -35 q-2 -10 -2 -16v-1h5h4h9q9 2 25 2q24 0 32 3q6 2 20 2q17 -1 49 5q8 2 12 1q9 -2 13 -13q2 -17 -10 -20q-7 -1 -16 -5q-31 -9 -45 -9q-26 -2 -32 -4q-7 -3 -20 -3h-5h-21q-7 0 -20.5 -0.5t-20.5 -1.5q-5 -1 -12 -1zM129 302l7 12l-1 10q-6 -6 -7 -9q0 -8 1 -13zM120 260 l7 13l-5 7q-6 -8 -7 -13q0 -2 5 -7z" glyph-name="L" horiz-adv-x="267" unicode="L"/><glyph d="M625 -253q-5 0 -10 3q-3 2 -9 4.5t-8 3.5l-27 15q-44 32 -44 87q-1 80 33 256q24 123 61 265q11 39 25 117l1 3q2 11 8 33q-3 -3 -4 -5q-19 -24 -29 -43q-1 -4 -10 -19q-19 -23 -39 -69q-8 -16 -28 -44q-17 -22 -29 -50q-10 -22 -16 -32q-2 -5 -5.5 -12.5t-4.5 -9.5 l-38 -80l-19 -41q-2 -4 -16 -35t-21 -48q-2 -6 -5 -12t-7 -13t-6 -11q-6 -9 -7 -11q-7 -14 -23 -22q-12 -5 -18 -1q-6 3 -7 4q-22 11 -29 28q-14 42 -9 91q2 26 8 86q4 50 7 76q7 95 6 130q-1 -1 -3 -5l-4 -7q-2 -3 -6 -10.5t-5 -9.5q-6 -10 -9 -16l-5 -7l-8 -16l-12 -24 q-8 -19 -26 -50q-32 -53 -73 -137q-2 -4 -22 -50l-12 -28q-10 -24 -9 -40q1 -21 -11 -33q-9 -13 -22 -13q-10 0 -22 10q-18 13 -21 36q-5 28 -6 58.5t2.5 63.5t6.5 58.5t9 63.5t9 58q4 33 16 95.5t16 90.5q9 51 17 70l3 15q0 5 2 13q7 24 31 22q1 -1 3.5 -1t3.5 -1h5 q25 0 31 -9q8 -8 2 -35q-7 -36 -11 -59l-6 -30q-1 -6 -3 -16t-3 -16l-2 -14q-10 -47 -22 -145l-5 -33q-5 -40 -6 -78v-18q6 14 20 44q10 21 28 54q76 139 89 164l4 7q26 44 52 80q6 8 17.5 28t23 34.5t24.5 22.5q19 12 37 6t19 -30q1 -12 -1 -35q-8 -61 -25 -150 q-8 -39 -11 -65l-1 1q0 -1 -2 -3q-1 -1 -1 -2v-20q-6 -43 -9 -89v-5q-1 -5 -2 -15.5t-2 -15.5l-3 -34l3 -6q1 1 3 2l1 1q1 0 1 2l1 1q0 2 3.5 19.5t5.5 26.5q0 4 2 12q46 98 89 173l17 29q33 60 61 98q7 8 10 18q4 10 8 15q30 43 73 101q11 14 31 29l9 8q10 7 23 7 q24 0 36 -17q7 -10 10.5 -22.5t4.5 -22t-1 -27t-3.5 -24t-6 -27t-5.5 -22.5q-9 -35 -46 -159q-30 -99 -57 -231q-19 -96 -43 -190q-10 -44 1 -110q2 -9 9 -13q12 -6 18 -11q7 -5 7 -13q0 -7 -8 -14q-9 -7 -18 -7zM138 145l3 2q8 12 14 23q26 47 50 91l67 129q2 4 16 30l7 13 l2 5q0 3 -2 3q-1 -1 -3 -6q-6 -9 -18 -29q-27 -47 -72 -136q-33 -66 -46 -88l-17 -33q0 -3 -1 -4zM560 -55q9 13 18 55q6 23 7 30q7 24 9 46q1 7 2.5 20.5t2.5 20.5q1 4 6.5 23t4.5 29q-2 12 0.5 24t7 27.5t6.5 22.5q-7 7 -3 20q1 3 4.5 11.5t3.5 11.5t-2 12 q-11 -19 -11 -20l-27 -157q-23 -114 -24 -121q-2 -9 -3 -27.5t-2 -27.5zM386 81l1 2q6 12 4 21q-1 2 -7 6l-1 -1q-1 -1 -2 -1l-3 -21q-1 -3 2 -5t6 -1z" glyph-name="M" horiz-adv-x="738" unicode="M"/><glyph d="M67 -185q-8 0 -23 10l-1 2q-10 8 -13 26v3q0 2 3 18q14 37 22 92l9 48l9 41q2 10 4.5 30t3.5 29l3 24v5q0 9 2 15q5 9 9 40q0 2 0.5 8t0.5 8q1 4 15 73l4 17l24 107l10 43l3 9q9 21 26 22q2 0 5.5 0.5t4.5 0.5q22 0 30 -17q16 -31 22 -57q25 -125 63 -240q12 -30 14 -38 q18 -48 23 -66q8 -30 23 -67q2 -6 7.5 -21.5t8.5 -24.5l15 46q7 19 11 34q3 10 5 27l1 4q7 45 26 118l4 14q6 23 15 46l6 17q6 17 18 52t18 52q2 6 5 13q25 54 40 104q5 18 20 50q8 16 11 24q37 74 57 100q9 11 18 16t14 5.5t20.5 -1.5t21.5 -2q1 0 3.5 -0.5t4.5 -0.5 q27 -2 9 -25l-1 -1q-32 -43 -44 -70l-11 -22q-49 -100 -67 -157l-1 -4q-3 -9 -4 -11q-11 -23 -31 -85l-12 -35q-13 -41 -24 -81q-4 -12 -10 -34q-1 -3 -2 -8t-2 -7q-1 -5 -3.5 -13.5t-3.5 -11.5q-15 -44 -20 -75q-2 -14 -14 -57q-6 -16 -8 -24q-4 -15 -11 -34q-1 -3 -3.5 -9 t-3.5 -9q-9 -28 -29 -41q-8 -7 -16 -7q-9 0 -22 11q-25 26 -48 92l-3 10q-7 21 -31 94q-26 82 -38 114q-32 93 -50 184l-21 -94l-12 -53q-2 -10 -2 -13q-2 -32 -14 -90q-4 -20 -10 -60q-3 -25 -13 -75l-9 -42q0 -4 -6 -26q-6 -29 -7 -39q-2 -21 -22 -41q-2 -3 -5 -5l-1 -1 h-2h-2h-1h-1h-2h-1q-6 -3 -11 -3zM135 232l1 2q6 12 4 21q-1 1 -3.5 3t-3.5 3q-1 0 -1 -1l-2 -1l-3 -21q-1 -3 2 -5t6 -1zM63 -134q8 11 17 55q1 4 3 14t3 16q7 27 8 47q2 6 2 20t2 20q1 6 4 16.5t4.5 19.5t0.5 17q-2 11 0 23t7 28t6 23q-6 5 -4 20q1 3 4.5 11.5t3.5 11.5 t-2 12q-11 -19 -11 -20l-24 -158q-1 -7 -21 -121q-1 -9 -1.5 -27.5t-1.5 -27.5zM373 -88l1 2q4 14 2 21l-3 6l-2 -2q-2 -14 -2 -21q-1 -2 0.5 -4.5t3.5 -1.5z" glyph-name="N" horiz-adv-x="579" unicode="N"/><glyph d="M164 -127q-25 0 -55 11q-27 11 -45 46q-27 54 -33 129q-3 36 2 92q4 47 5 68q4 53 7 77q10 113 55 224q35 85 108 131l26 13q34 14 73 -3l3 -1q2 -2 4 -3q2 -2 4 -2q38 -13 41 -62q0 -5 0.5 -15t0.5 -15q0 -13 -8 -21q-7 -7 -14 -5q-11 2 -14 12q0 2 -1 6t-1 6t-2 10v3 q-4 17 -7 21q-23 34 -59 15q-13 -6 -24 -19q-35 -43 -52 -97q-15 -43 -37 -148q-4 -22 -5 -34q-2 -33 -7 -91t-6 -78l-4 -50v-17q0 -72 6 -97q7 -25 11 -32q10 -25 29 -24q4 0 6 -1q6 -3 12 -3q10 0 33 17q9 8 17 27l2 8q9 25 37 112q1 5 8 23q13 45 14 49q1 5 5 20 q4 17 5 23l7 43q11 51 11 80q0 11 4 35q1 2 1.5 5t0.5 5q5 35 -16 81q-11 26 -36 7q-19 -15 -36 -37q-14 -17 -27 -17q-11 0 -15 9q-8 21 11 37l12 12q22 20 34 29q33 24 73 7q45 -19 73 -67q11 -20 13 -47q2 -62 -7 -112q-20 -123 -54 -201q-8 -16 -16 -40q-22 -56 -35 -77 q-13 -24 -30 -35q-4 -2 -5 -3q-29 -29 -85 -38q-6 -1 -18 -1zM271 -37q2 1 5 1l1 2q1 1 2 1q4 7 11.5 20t11.5 20q12 21 24 49q10 23 16 47q0 3 3 8l6 20l-4 7q-1 -1 -3 -2l-1 -2q-1 -2 -3 -9t-3 -11q-6 -37 -26 -64q-4 -5 -12 -19q-2 -4 -7 -14.5t-8 -16.5q-10 -21 -13 -31 v-6zM257 -68l2 1q10 12 10 19q0 2 -4 8h-1q-2 -1 -3 -1q-1 -3 -4.5 -9.5t-4.5 -9.5q-2 -2 0 -5t5 -3z" glyph-name="O" horiz-adv-x="444" unicode="O"/><glyph d="M73 -178q-11 0 -25 9q-21 15 -18 39q1 2 1 7v3q-2 10 3 37q3 15 3 16q6 49 12 87q19 113 50 314q4 21 12 82t16.5 102t21.5 80q3 14 9 27q13 27 42 28h4h12q11 -2 18.5 -10.5t7.5 -20.5v-1q0 -6 -2 -18q-7 -23 -15 -69q0 -2 -3.5 -19.5t-5.5 -26.5q-9 -45 -11 -62l-2 -2 v-6q0 -3 -2 -7q-1 -3 -6 -19v-1q1 -3 -1 -7q-4 -8 -2 -12v-4q-1 -5 -5 -13q-1 -2 -1 -5q3 -7 -1 -14q-2 -4 -2 -13q0 -3 2 -3q3 0 3 1q4 5 8 17q-1 2 1 6t0 6v2q2 2 1 2q-1 2 2 12q2 2 3.5 7t1.5 6v1q0 4 -2 14q-1 4 1 11q3 5 5 17l1 1q40 78 70 113q8 9 29 39l17 23 q27 38 72 61q40 23 73 8q40 -18 48 -62q3 -19 1 -77q-3 -93 -60 -206q-19 -38 -29 -55.5t-34 -44t-50 -34.5q-30 -9 -62.5 2t-54.5 36q-10 11 -17 42l-1 4q-2 12 5 22t23 12h1q16 0 19 -16q1 -5 1 -15q1 -21 20 -33t36 0q20 16 39 60q27 58 49 126q3 10 10 30.5t11 33 t8.5 30t5.5 32.5q3 27 -10.5 50t-40.5 3q-79 -58 -158 -225q-18 -40 -26 -61q0 2 2 8q3 11 7 33q0 5 -1 5l-3 -4q0 -1 -1 -2q-1 -3 -2.5 -10t-1.5 -10l-3 -21v-3l2 2q-33 -79 -41 -144q-6 -41 -17 -107l-4 -24l-6 -27l-6 -24l-8 -50q-2 -9 -5 -25t-4 -25v-3q-7 -31 -11 -44 q-9 -24 -29 -24zM396 263q2 2 5 2q1 0 2 1l1 1l23 41q13 24 24 48q10 23 16 47q0 2 3 8l7 21l-4 6q-4 -2 -4 -4q-6 -12 -7 -20q-6 -36 -26 -63q-8 -12 -12 -19q-2 -4 -7 -14.5t-8 -16.5q-9 -21 -13 -31v-7zM214 374q2 2 2 3l1 10v3l-2 -2q-2 -3 -2 -12q0 -2 1 -2zM184 341v3 q0 3 -2 1q-1 0 -1 -2q0 -1 3 -2zM382 232l2 2q10 10 10 18q0 3 -4 9l-2 -1q-1 -1 -2 -1q-1 -4 -4.5 -10.5t-4.5 -8.5q-2 -2 0 -5t5 -3z" glyph-name="P" horiz-adv-x="521" unicode="P"/><glyph d="M219 -150q-26 0 -53 10q-53 20 -85 64.5t-37 102.5q-1 10 -7 36.5t-6 41.5q-2 45 3 92q5 65 26 146q37 145 112 228q36 40 81.5 62t111.5 39q9 3 16 3q12 0 19 -11q18 -26 -30 -32q-7 -1 -13.5 -4t-15.5 -7.5t-14 -6.5q-42 -18 -68 -42t-50 -66q-52 -91 -59 -141 l-12 -101q-22 -146 -1 -257l1 -5q4 -20 20 -60l3 -7q2 -6 10 -16q18 -27 41.5 -27t44 19t36.5 41.5t25 42.5q8 18 13 27q-28 24 -43 36l-9 8q-2 2 -3 2l-8 7q-12 10 -2 25q13 16 28 6q8 -6 11 -9q1 -1 2.5 -2t2.5 -2l10 -8q16 -14 26 -22v1l1 1q2 6 5 16t5 16q31 93 43 234 q0 2 4 26.5t6 44t2 43t-8 37.5t-23 14q-27 0 -56 -38t-40 -70q-7 -24 -23 -84q-3 -11 -1 -27v-6q0 -8 -7 -13.5t-16 -4.5q-18 2 -16 19v8q0 19 2 29l2 9q15 70 30 96q2 2 2 4q6 10 15 28t17.5 32t19.5 26q44 46 94 61l9 3q8 4 20 0q27 -6 43.5 -24t23 -46t7.5 -48.5t1 -51.5 q-2 -90 -23 -181l-6 -21q-1 -3 -2.5 -8.5t-2.5 -7.5q-26 -96 -59 -170l-3 -6l4 -5l24 -21l9 -8q2 -2 3 -2q1 -1 3 -2.5t3 -3t2 -2.5q24 -28 43 -40q10 -4 10 -19q-2 -14 -13 -21q-13 -5 -23 3l-3 3l-20 18q-6 5 -17.5 17t-17.5 17l-20 20q-1 1 -2 2.5t-2.5 2.5t-2.5 2l-6 -9 q-3 -4 -13 -17q-22 -28 -50 -48q-40 -30 -80 -39q-16 -2 -24 -2zM415 65q1 1 3 2l2 1l1 2l1 1q4 9 16 43q12 31 17 52q7 29 8 49q0 4 2 8l3 21l-5 6l-3 -4q-4 -14 -4 -21q0 -35 -15 -67l-9 -20q-2 -5 -5 -16.5t-5 -16.5q-1 -5 -4 -16t-4 -17q-1 -1 1 -7zM406 33l2 1 q8 12 7 21q0 2 -5 7l-2 -1l-2 -1q0 -4 -3 -10.5t-3 -9.5q-2 -2 0.5 -5t5.5 -2z" glyph-name="Q" horiz-adv-x="513" unicode="Q"/><glyph d="M467 -159q-12 0 -15 12q-2 7 -15 13q-13 7 -24 19q-2 1 -5 4q-16 12 -49 49q-18 20 -27 29l-13 13q-28 26 -39 43q-16 26 -56 53q-14 9 -32 22q-1 1 -9 7t-13 9q-5 4 -15 10q-3 -23 -21 -58q-7 -16 -7 -26q1 -16 -5 -44q-2 -10 -4 -30q0 -10 -3 -21q-2 -12 -2 -17 q0 -9 -8 -21q-9 -13 -21 -13q-6 0 -13 3q-38 12 -41 56q0 31 1 46v9q1 7 1 21.5t1 21.5q0 17 2 53q0 4 -0.5 13.5t-0.5 15.5q-4 57 1 90q2 13 2 42q-1 59 13 150q2 9 5.5 26t4.5 24q8 36 11 54q1 7 5 19l1 2q6 18 30 25q12 3 20 3q11 0 17.5 -5.5t8.5 -11.5t4 -17l1 -4 q4 -19 -3 -32q-1 -1 -3 -15v-2q-8 -81 -20 -142q-2 -8 -5 -49v-51q0 -4 -0.5 -12t-0.5 -12q10 1 15 11q8 20 28 56q23 41 31 61q3 9 7 17q6 14 8 21q13 40 47 90q9 12 45 53q12 12 17 18q19 22 57 44q9 6 27 20q33 25 67 31q19 4 57 4q30 0 39 -26q27 -74 0 -123 q-9 -16 -29 -48l-16 -21q-10 -12 -16 -20q-25 -35 -62 -63q-36 -28 -53 -42q-4 -4 -13.5 -11.5t-14.5 -11.5q-63 -48 -97 -63q-20 -9 -47 -25q-1 -1 -5 -3.5t-6 -4.5q-24 -12 -31 -14q14 -10 23 -15q14 -7 50 -34q16 -14 29 -22q11 -9 16 -18q12 -21 41 -50l4 -4 q37 -37 54 -58q14 -16 27 -28q2 -2 17.5 -15t23.5 -20q8 -6 24 -20q6 -5 6 -13t-6 -13q-5 -5 -15 -11q-3 -3 -8 -3zM197 248q10 5 28 17q72 50 115 86l2 2q32 27 50 47q8 10 24 28l21 24q36 43 49 59q12 17 6 36t-20 34q-4 4 -10 4h-2h-1q-13 0 -36 -15l-3 -2 q-52 -32 -93 -79q-33 -37 -55 -81q-9 -17 -19 -40l-12 -26q-4 -9 -12.5 -27.5t-13.5 -28.5l-17 -36q-1 -1 -1 -2zM58 29q3 9 3 10q7 64 8 80q2 28 5.5 85t5.5 86q0 17 2 48.5t2 40.5h-2q1 7 0 19.5t-1 16.5q0 3 -3 5q-4 -4 -5 -6v-13q-1 -9 -1 -25v-24l-1 -10q5 -18 -3 -49 v-22q8 -28 -5 -46q-4 -6 -2 -14q12 -33 -3 -73q-2 -9 0 -13q7 -25 -8 -64l-1 -6q11 -1 2 -10q-2 -4 -2 -7zM319 263q1 -1 3 0l1 1q8 5 21.5 15.5t15.5 12.5q21 13 42 34q21 19 35 36q1 4 5 6l15 16l-1 8q-1 0 -3 -1q-2 0 -2 -1q-10 -8 -15 -16q-21 -30 -49 -47 q-4 -2 -19 -12q-5 -3 -13.5 -10.5t-12.5 -11.5q-16 -14 -25 -23l-3 -6h4zM289 241l2 1q14 6 17 13v9h-4q-3 -3 -8.5 -6.5t-8.5 -6.5q-2 -1 -1.5 -5t3.5 -5zM52 -11q1 1 3 3.5t3 4.5q-1 3 -1 8h1l-2 9q-2 -5 -4 -7l-3 -8q1 0 1 -5l-1 -4z" glyph-name="R" horiz-adv-x="485" unicode="R"/><glyph d="M164 -191q-60 0 -96 40t-38 101q-1 49 50 121q23 33 43 47q25 16 53 41q16 14 32 17q7 1 16 -1q8 -4 12 -13q3 -8 -4 -16q-1 -2 -9 -7q-61 -23 -122 -109q-31 -44 -23 -102q8 -53 51.5 -65.5t85.5 15.5q37 21 65.5 61.5t32.5 80.5q5 59 -28 134q-12 28 -23 39 q-22 21 -47 73l-3 6q0 1 -1 2.5l-2 3t-1 2.5q-24 35 -37.5 83t-10.5 89q1 12 4.5 25.5t7 23t10.5 24.5t10.5 21.5t13 23.5t11.5 21q5 9 14 15l13 10q5 4 14 11t16.5 13t14.5 12q41 35 109 43h5h6.5h5.5h7q4 1 12 1q50 0 81 -28q26 -25 30.5 -64t-14.5 -79l-1 -2 q-17 -36 -58 -92q-5 -9 -11 -16q-2 -4 -10 -9q-3 -2 -9 -2q-4 0 -6 1q-15 5 -10 21q2 9 7 15q2 2 10.5 14t12 17t11.5 17t12 19t10 18.5t8 20t4.5 18.5t1.5 19.5t-4 17.5q-13 33 -40 46.5t-62 5.5q-23 -5 -61 -30q-60 -41 -92 -112q-19 -39 -12 -83.5t26.5 -83t48.5 -70.5 q114 -126 110 -207q-2 -49 -30.5 -103t-67.5 -92q-30 -28 -74 -45q-16 -6 -40 -13q-21 -6 -41 -6zM315 -84q2 0 3 2q2 0 4 3l36 37q3 4 1 7q-6 2 -5.5 9t-1.5 9q-15 -39 -29 -51q-4 -4 -8 -12q-1 -3 0 -4zM285 -114q12 8 20 18v1l-3 1q-6 -4 -22 -18zM258 -136q2 1 6.5 5.5 t7.5 6.5l-1 2q-6 0 -8 -2l-3 -4q-4 -3 -6 -5z" glyph-name="S" horiz-adv-x="547" unicode="S"/><glyph d="M245 -84h-1l-2 1q-18 1 -32.5 17.5t-16.5 35.5q-1 31 4 71v5q4 42 23 132l20 100q1 5 3 15.5t3 15.5q13 59 19 99q6 34 19 92q10 42 14 64q4 15 11 35q1 3 2.5 8t1.5 6q17 53 41 102l-2 -1q-88 -12 -143 -30q-82 -29 -124 -91q-1 -2 -14 -20q-24 -32 -31 -48 q-2 -6 -12 -9h-2q-11 -4 -14 8l-1 1q-3 8 -2 13q6 22 28 56q19 28 35 49q24 28 65 54q4 2 8.5 4.5t9.5 5t8 3.5l7 4q42 22 100 30q7 0 21 4l5 1q32 7 97 11q54 3 130 21q21 5 86 19q24 4 36 7q30 6 44 13l37 18q46 20 67 33q11 5 20 4q10 -2 13 -9q5 -10 -2 -18 q-11 -14 -37 -27q-45 -22 -89 -39q-31 -14 -56 -16q-20 -2 -31 -5l-70 -18l-36 -10q-1 -1 -5 -1t-5 -1q-18 -6 -29 -7q-13 -1 -17 -13q-1 -4 -4.5 -12t-5.5 -12q-19 -41 -22 -67q-1 -15 -9 -34q-2 -5 -4 -13q-38 -123 -61 -234q-7 -39 -23 -117l-27 -133q-6 -29 -12 -91 l-3 -23q-2 -23 -9 -42q-7 -17 -24 -17zM394 670l7 11l-1 10q-3 -3 -7 -9q0 -8 1 -12zM386 630l7 12l-6 7q-3 -4 -7 -12q0 -3 6 -7zM222 54q9 14 18 56q6 23 7 31q7 24 9 48q2 7 2.5 21t2.5 21q1 5 6.5 24.5t4.5 29.5q-2 12 0.5 25t7.5 28.5t6 22.5q-7 7 -3 21q1 4 4.5 12.5 t3.5 11.5t-2 12q-10 -16 -11 -20q-4 -24 -13.5 -79t-14.5 -84q-3 -20 -11.5 -61.5t-11.5 -62.5q-2 -9 -3 -28.5t-2 -28.5z" glyph-name="T" horiz-adv-x="419" unicode="T"/><glyph d="M300 -173q-59 0 -35 179q7 72 11 93q3 16 4.5 48.5t4.5 48.5q1 4 2.5 12t2.5 12q0 5 2 13q0 -1 -2 -3.5t-2 -4.5q-71 -135 -85 -160q-21 -37 -70 -90q-17 -19 -40 -23q-26 -4 -47.5 12.5t-31.5 44.5q-20 53 -10 161q1 15 3.5 46.5t4.5 51t6 46t9 47.5q9 36 21 107t19 104 q12 48 33 77.5t58 22.5q14 -3 19 -14.5t1.5 -28.5t-9 -32.5t-12.5 -32t-8 -21.5q-6 -20 -10 -44t-7.5 -53.5t-6.5 -45.5q-6 -37 -31 -222q0 -5 -2 -15t-2 -15q-20 -103 8 -139q54 31 103 129q3 7 23 44q92 169 146 367l13 49l6 20q12 34 38 34q13 0 22 -7q26 -18 6 -111 q-8 -35 -22.5 -100t-20.5 -91q-4 -18 -13.5 -54.5t-14.5 -59t-9.5 -54t-4.5 -58.5q0 -19 -6 -51q-20 -106 -24 -191q-1 -36 -29 -46q-8 -2 -11 -2zM25 125l2 1l3 3v9v15.5t1 15.5q0 1 1 3v3q-5 10 3 32v14q-7 16 5 30q4 4 2 9q-12 19 3 47q2 6 0 8q-7 15 8 42l1 4 q-8 -1 -7 1q0 2 5 5q2 2 2 5q-1 2 -9 4q-3 -6 -3 -7q-7 -42 -8 -51q-2 -19 -5 -56t-5 -55q-1 -10 -3 -29t-2 -28h2q0 -3 0.5 -11t0.5 -12q0 -2 3 -2z" glyph-name="U" horiz-adv-x="415" unicode="U"/><glyph d="M111 -84q-14 0 -25 11q-26 25 -35 58q-2 9 -6.5 25t-6.5 22l-21 78q-6 21 -6 40q0 7 -2 21q0 3 -0.5 9.5t-0.5 9.5q0 17 -4 49q-4 36 -4 49l2 30q0 10 0.5 29t1.5 28l2 24q2 48 4 72q3 32 19 87l2 8q10 33 41 33q1 0 3.5 0.5t4.5 0.5q6 2 10 2h7q11 0 15 -5q6 -6 6 -22 q-2 -37 -6 -75q0 -7 -1.5 -23t-2.5 -24q0 -5 -1 -14t-1 -14v-6q0 -1 0.5 -3t0.5 -4q-2 -11 -2 -54q0 -48 -4 -73q-1 -1 -1 -3l-1 -2q3 -22 3 -67v-37q3 -49 11 -107l3 -21q1 -22 6 -43v-1l2 4q4 13 14 39q14 42 37 94q18 43 29 79q9 30 25 66l21 50q18 44 28 66q10 24 14 36 q16 38 23 52q10 21 32 63q16 28 35 66q19 37 61 99l34 51q15 22 29 28q14 5 21 -8q4 -9 1 -16q-3 -8 -8 -11q-8 -8 -26 -34l-6 -9q-37 -53 -81 -136q-3 -7 -10 -19t-9 -15l-12 -21q-9 -16 -29 -60q-16 -35 -30 -61q-3 -6 -18 -43q-1 -5 -5 -13l-15 -45q-13 -36 -26 -69 q-4 -10 -31 -92q-8 -24 -11 -35q-6 -16 -10 -23q-1 -2 -2.5 -5.5t-1.5 -4.5l-12 -29q-24 -58 -37 -87q-3 -12 -4 -15q-5 -30 -33 -30zM29 345l1 2q-2 8 -4 14q0 2 -3 3.5t-5 0.5v-1q0 -10 4 -15q0 -1 3 -2t4 -2zM62 11v8q-1 13 -5 32q-14 58 -14 103q-1 5 -1.5 16.5 t-0.5 16.5q0 7 -2 25l-3 27q-6 45 -7 51q0 1 -1.5 4.5t-1.5 5.5q-1 -3 -3 -5v-2v-1.5v-1.5q1 -19 5 -69q1 -36 8 -81q4 -34 12 -76q2 -6 2 -12l6 -33z" glyph-name="V" horiz-adv-x="279" unicode="V"/><glyph d="M337 -136q-16 0 -30 14q-12 12 -17 26q-11 24 -18 70q-11 85 -6 186q1 20 1 61t1 72.5t5 60.5q3 24 3 49q0 9 1 13q-3 -5 -10 -25q-5 -12 -31 -83l-17 -46l-12 -32q-15 -38 -26 -70q-12 -39 -53 -125l-10 -18q-4 -10 -12 -20q-10 -12 -25 -14t-27 8q-16 12 -26 35 t-13 37.5t-6.5 49.5t-4.5 40q-4 43 -4 64t3.5 64t3.5 64q1 24 10 105q8 75 9 119q0 17 10 43l3 8q6 15 22 18q14 2 18 2h1q8 0 14 -3t9 -10t5 -12.5t2 -16.5v-15.5t-1 -16t-1 -12.5q-2 -23 -3 -49.5t-1.5 -59t-1.5 -49.5q-1 -20 -5 -96t-3 -117v-54q0 -1 2 -17q0 -2 3 -11.5 t5 -18t1 -10.5q12 24 32 74q2 7 8 21q19 47 48 136.5t57.5 160t66.5 126.5q5 6 8 16q5 16 14 27l2 3q9 15 18 15q3 0 4 -1q15 -4 15 -26v-4q2 -30 2.5 -40t-2.5 -40.5t-3 -39.5q-2 -42 -4 -130q0 -201 -2 -258q-2 -74 -2 -111v-29l54 152q10 26 28 80q35 103 56 153 q8 19 22 59l21 56l30 75q42 112 77 184l2 5q11 24 21 33q10 11 23 0q6 -8 5 -16q0 -7 -4 -14q-13 -21 -33 -67l-4 -8q-30 -67 -63 -155q-16 -40 -23 -60l-8 -19q-22 -54 -44 -114q-20 -54 -41 -118q-2 -5 -5.5 -15t-5.5 -15q-20 -64 -37 -105q-12 -28 -38 -103l-15 -45 l-2 -4q-8 -21 -12 -27q-15 -20 -34 -20zM307 -89q3 5 1 8q-2 24 -4 34q-10 58 -9 108q1 10 1 34l-3 55q-2 39 -4 53q0 2 -1 6q-2 2 -2 4q0 -1 -3 -4q-1 0 -1 -3v-2q2 -48 2 -72q0 -29 4 -85q4 -50 8 -80q2 -8 2 -13l4 -35z" glyph-name="W" horiz-adv-x="606" unicode="W"/><glyph d="M16 -164q-7 0 -12 5q-4 4 -4 11q2 14 8 25q31 56 93.5 159.5t71.5 118.5q9 13 25 41q5 8 5 11t-7 10q-56 63 -104 149q-36 66 -46 93q-2 6 -12.5 25.5t-15.5 35.5t-1 27q3 8 23 17l2 1q2 0 4 2q17 11 34 -3q9 -8 16.5 -19t12 -19t11.5 -22.5t11 -21.5q4 -8 14.5 -24.5 t14.5 -26.5q7 -18 25.5 -48t22.5 -39q1 -2 5 -11t8 -17t9.5 -16.5t11 -13t10.5 -3.5t21 34q24 45 110 191q8 14 25 44t27.5 48t26.5 42.5t32 43.5q8 11 22 4q7 -4 11 -12q1 -5 -2 -12l-5 -9q-16 -28 -22 -35q-31 -43 -62 -101q-32 -58 -95 -160l-2 -4q-13 -22 -39 -68 l-19 -34q-3 -5 2 -11q23 -26 47 -57.5t52.5 -69t45.5 -58.5q43 -57 63 -104q19 -39 28 -66l5 -14q4 -18 -1 -27t-28 -9q-20 0 -35 11.5t-21 22.5t-15 34q-2 5 -3 7q-14 34 -38 68q-10 14 -30 37.5t-26 31.5q-6 7 -22 30t-27 34q-34 34 -44 54l-2 2q-10 -12 -16 -20 q-18 -24 -47 -78l-11 -20q-21 -37 -65 -109l-32 -51q-15 -27 -21 -40q-8 -15 -21 -17h-3zM483 -76q-6 20 -7 22q-19 25 -53.5 72t-41.5 56q-12 16 -35.5 50t-35.5 50q-5 6 -17.5 20t-18.5 22q2 -15 27 -51q7 -14 16 -26q13 -22 28 -39q4 -6 13 -16t13 -15q2 -3 12 -20 t18 -24q9 -7 16.5 -17t15 -24.5t11.5 -19.5q9 1 18 -12q2 -3 4 -8t3.5 -8.5t5 -7t8.5 -4.5z" glyph-name="X" horiz-adv-x="496" unicode="X"/><glyph d="M176 -195q-19 0 -30 16q-25 29 -19 59q11 60 22 92q1 3 2 8t2 7q1 11 6 22q6 15 17 54q2 7 6 19.5t5 17.5q17 45 28 93q3 14 17 59q2 6 5.5 17t5.5 16l2 9q7 24 10 31q-7 -7 -11 -10l-25 -24q-19 -18 -59 -34q-10 -5 -19 -8q-1 -1 -3 -1q-9 -2 -25 -2q-60 0 -90 51 l-15 30l-2 6q-6 13 -6 46l1 5q1 42 0 87l3 42q3 13 3 27q1 10 8 47q4 15 6 29q3 23 25 29q15 3 31 6q17 2 24 -14v-1q11 -28 4 -46q-15 -44 -15 -94q0 -11 -2 -29q-2 -34 -1 -43l5 -44l3 -27q1 -14 15 -38l2 -3q6 -10 27 -10q5 0 7 1q20 6 30 14q6 6 18 14q19 15 24 22 q4 6 16 14q5 5 8 7q32 31 83 115l3 9q1 1 1 2q1 2 1 3l3 9q1 2 4 9t5 11q17 34 26 61q3 7 18 38l7 13q4 8 12.5 24.5t12.5 24.5q2 4 5 7l3 7q10 18 31 18q22 0 33 -19q6 -13 3 -25q-3 -7 -7 -23q-10 -42 -21 -60q-10 -15 -19 -47q-1 -2 -3.5 -9t-3.5 -11q-1 -1 -1 -3t-1 -3 q0 -2 -1.5 -6t-2.5 -6q-9 -19 -25 -57q-42 -99 -48 -115q-3 -7 -19 -54l-4 -13q-2 -8 -8 -26q-20 -68 -30 -92q-8 -22 -12 -48q-6 -31 -32 -105l-1 -2q-28 -74 -34 -121q-2 -12 -4 -17q-4 -14 -3 -21q0 -5 -2 -7q-7 -24 -24 -28q-8 -2 -11 -2zM200 298q3 0 4 1q2 0 4 3 q28 20 42 31q4 2 3 6q-6 3 -4.5 9.5t-0.5 9.5q-21 -35 -36 -46q-4 -1 -10 -10q-2 -1 -2 -4zM166 273q11 6 23 14v2l-2 1q-9 -4 -25 -14zM136 257q3 1 16 9l-1 2q-5 0 -8 -1q-2 -1 -5 -4t-5 -4zM189 -105q12 14 13 19q28 102 41 153q29 96 35 118q3 10 6 29t4 26 q-9 -10 -23 -53q-8 -21 -10 -29q-8 -19 -13 -46q-2 -6 -4.5 -19t-4.5 -20q-1 -6 -7.5 -23.5t-7.5 -27.5q0 -12 -3 -24t-10 -27t-9 -22q7 -6 2 -20q-1 -4 -5 -11.5t-4.5 -11t0.5 -11.5z" glyph-name="Y" horiz-adv-x="394" unicode="Y"/><glyph d="M48 -148q-13 0 -22 10l-8 9q-1 2 -5 6q-23 27 -7 63l4 10q20 44 33 65q7 11 17 40q2 6 10 25l5 8q27 50 45 73q8 9 22 33q3 5 7.5 14t6.5 12q32 58 50 86q13 19 29 48q35 58 49 76l9 15l2 4q13 26 32 51q16 18 40 56q22 34 29 43q-33 -6 -35 -6q-42 -8 -67 -8h-18h-9 q-1 0 -4 -0.5t-4 -0.5h-5h-17q-26 5 -60 -9q-10 -4 -10 -12q0 -7 -4 -13q-5 -12 -17 -12q-10 0 -14 6q-9 11 -8 27t11 26q24 24 44 26q10 0 23 5q10 2 15 4q37 7 66 4q19 -1 44 2q19 4 45 4q14 0 70 7l16 3l9 1q30 4 48 12q5 4 16 2q2 -1 4 -1h1q1 0 1 -1h1q9 -2 9 -11 q0 -4 -3 -7q-2 -13 -15 -20q-16 -10 -33 -38q-3 -5 -9 -13l-62 -92l-32 -48q-22 -30 -32 -56q-13 -18 -16 -23q-16 -19 -26 -33q-18 -24 -39 -56q-5 -7 -16 -24t-17 -25q-3 -4 -19.5 -25.5t-24.5 -35.5q-8 -16 -17 -29t-25.5 -33.5t-19.5 -23.5q-2 -14 -14 -28 q-3 -4 -9.5 -11.5t-11.5 -14.5t-8 -16q2 2 6.5 6t7.5 7t6 7l130 186q12 17 36.5 51t36.5 51q-10 -21 -22 -35q-15 -21 -29 -50q-11 -22 -21 -37q-4 -7 -12.5 -20.5t-12.5 -20.5l-26 -44l-3 -5q-28 -42 -45 -76l-10 -21q-10 -19 -19 -38l-8 -15q0 -1 -1 -2q1 1 3 1 q35 9 46 13q33 11 86 11h21q59 -1 165 -15q16 -2 49 -2h21q4 -1 11 -1h10h24q15 -1 31 0q5 1 16 1h1q16 0 19 -15q3 -16 -10 -24q-18 -9 -34 -6q-20 3 -63 3q-4 0 -12.5 0.5t-13.5 0.5q-63 1 -135 13l-4 2h-1q-31 0 -46 1q-30 2 -45 2q-28 0 -47 -4q-64 -12 -100 -33 q-20 -12 -26 -22q-3 -8 -12 -14q-8 -6 -18 -6z" glyph-name="Z" horiz-adv-x="435" unicode="Z"/><glyph d="M83 -123q-41 1 -48 8q-5 5 -5 23q1 5 1 16q0 14 6 38l2 8q13 53 24.5 154t14.5 121q16 100 39.5 319t43.5 333q4 23 3 39q-1 10 5 16.5t17 8.5q8 1 21 -1l11 -3q18 -3 33 -10q21 -10 36 -13q13 -2 23 -11q7 -7 3 -16q-4 -6 -12 -8q-9 0 -14 1l-38 11l-4 2q-3 -10 -12 -22 q-2 -4 -4 -6q-10 -17 -12 -55q0 -11 -5 -51l-3 -18q0 -5 -1 -7q0 -2 -0.5 -6t-0.5 -5q-2 -44 -12 -123t-12 -103q-6 -78 -37 -287q-14 -96 -20 -144q-2 -12 -3.5 -38.5t-4.5 -47.5t-9 -38q-4 -9 -8 -40q0 -10 -1 -14v-1h1q10 1 35 5l11 2h2q1 1 3 1.5t3 0.5q8 0 12 -6 q4 -8 0 -13q-10 -12 -18 -12q-18 -2 -26 -4q-24 -4 -35 -4h-5z" glyph-name="bracketleft" horiz-adv-x="315" unicode="["/><glyph d="M246 -232q-22 1 -32 28q-72 180 -83 271q-8 73 -43.5 201t-44.5 176q-6 29 -20 89q-6 26 -11.5 75.5t-8.5 68.5q-1 2 -1.5 7t-0.5 7q-6 33 20 54q25 19 42 -5q5 -8 8 -20q18 -73 31 -184q3 -34 9 -67.5t17.5 -75t17.5 -63t22.5 -74.5t20.5 -65q8 -26 15.5 -75t12.5 -69 q42 -172 60 -230l8 -24q4 -15 -11 -21q-1 0 -3 -0.5t-3 -0.5q-14 -3 -22 -3z" glyph-name="backslash" horiz-adv-x="316" unicode="\"/><glyph d="M169 -126l-14 2q-8 2 -12 2l-18 2q-40 5 -74 5q-4 0 -10 2q-13 3 -11 16q5 18 22 18q10 0 34 -4q12 -3 18 -3q4 0 5.5 1t4.5 6t5 16q4 23 11 58q1 11 5 31q2 10 4 15q9 24 11 66q1 11 5 31q2 10 2 14q4 23 8 73l3 44v2q5 31 6 34q12 45 23 116l3 12q2 10 3.5 22t3 26 t2.5 22q0 5 1.5 17t2.5 18t2.5 17t2.5 17q6 40 8 65q7 70 17 135q2 24 2 35q0 41 10 91q-1 0 -2.5 -0.5t-2.5 -0.5q-4 -3 -9 -3l-26 -6q-8 -1 -25 -5t-25 -5q-7 -2 -15 0q-7 1 -12 6.5t-4 12.5q1 11 12 16q6 2 10 2q22 2 64 12l11 3q16 6 20 7q2 1 6.5 2.5t6.5 2.5 q25 8 47 -6q11 -6 12 -17l1 -1q4 -19 1 -28q-5 -13 -3 -38v-12q0 -43 -5 -77q-7 -56 -13 -88q-4 -27 -5 -38q-1 -1 -1 -4q-1 -39 -10 -91l-6 -47q0 -8 -2 -23.5t-2 -23.5l-6 -62q-4 -32 -6 -67q-5 -70 -10 -95q0 -3 -1.5 -10t-2.5 -11t-2.5 -13t-2.5 -13q-2 -11 -8 -33 l-9 -42q-4 -20 -5 -30l-3 -19q-1 -6 -3.5 -18t-3.5 -18q-13 -70 -14 -84l-3 -30l-1 -8q-3 -21 -23 -21h-5z" glyph-name="bracketright" horiz-adv-x="357" unicode="]"/><glyph d="M334 811q-4 2 -10 6q-27 19 -36 31q-10 14 -15 20q-12 20 -27 36q-17 20 -34 50q-24 36 -30 43l-10 10q-2 -2 -7 -11q-21 -36 -49 -73l-5 -7q-13 -19 -26 -55q-8 -24 -17 -35q-22 -22 -43 -12q-25 13 -25 42v1q1 13 7 23q3 6 11 18q18 31 28 42q8 21 31 51q1 1 7 9t9 13 l27 39q5 6 13 18q6 8 9 13l3 3q18 26 45 11q15 -8 25 -26q25 -45 59 -86l3 -3q7 -13 34 -47q22 -26 31 -41l6 -6l6 -6l2 -2q2 -3 6 -8.5t6 -8.5q6 -12 6 -22q0 -19 -22 -30q-10 -6 -18 0z" glyph-name="asciicircum" horiz-adv-x="374" unicode="^"/><glyph d="M608 -90l-16 2q-25 3 -146 8q-13 0 -43.5 -3.5t-46.5 -1.5q-4 1 -30.5 4.5t-33 4.5t-29 3.5t-33.5 2.5h-29t-33.5 -1.5t-30.5 -4.5q-65 -12 -114 -11q-19 0 -22 18.5t7.5 37t25.5 19.5q3 1 9 1q10 1 41.5 6.5t48.5 5.5q9 1 28 1h28q31 2 119 -4.5t119 1.5q55 10 172 -20 q18 -6 20 -26q1 -6 1 -22q-1 -2 -1 -5q-1 -9 -3.5 -13t-7.5 -3z" glyph-name="underscore" horiz-adv-x="620" unicode="_"/><glyph d="M284 824q-1 0 -2.5 0.5t-2.5 0.5l-7 2l-1 2q-6 7 -15 12q-12 8 -17 13l-4 4q-21 26 -73 62q-12 9 -12 23q0 8 3 14q10 22 31 22q8 0 17 -9q7 -6 19 -18q7 -7 25 -23q6 -6 9 -10q28 -25 29 -26q18 -14 26 -37q0 -2 1 -3q3 -12 1 -17q-1 -2 -4 -5q-10 -10 -23 -7z" glyph-name="grave" horiz-adv-x="462" unicode="`"/><glyph d="M219 -26q-2 0 -3 1q-27 2 -39 18q-19 23 -23 48q-2 19 2 53q0 2 0.5 6.5t0.5 6.5q-1 0 -1 -2q0 -1 -1 -2q-27 -35 -57 -62q-26 -24 -68 -26q-20 0 -33 13q-25 26 -27 57q0 21 5 46l1 5q12 58 44 131q25 57 80 78q43 17 69 -21t14 -86q-6 -17 -20 -10q-10 4 -10 14l2 11 q2 9 0 17q0 5 -1 7q0 4 -1 6q0 3 -1 5q-3 13 -7 13q-7 1 -16 -12q-23 -27 -29 -54q-2 -12 -11 -35q-11 -26 -23 -84l-6 -26q-3 -17 5 -31h2q22 17 36 34l11 13q21 28 43 51q11 11 17 32q6 23 22 71q4 12 15 37q8 19 29 19q8 0 12 -1q4 -2 6 -2q18 -4 26 -13.5t6 -24.5 t-6 -26t-13 -29.5t-11 -24.5q-41 -112 -36 -156q2 -6 5 -6t5 1q11 6 28 27l3 3q36 45 52 78l2 2q7 13 9 23q2 8 6 12q11 9 21 2q7 -4 7 -14q0 -8 -3 -11q-26 -57 -61 -100q-6 -6 -9 -12q-25 -41 -50 -56q-2 -2 -3 -4q-7 -10 -17 -10z" glyph-name="a" horiz-adv-x="312" unicode="a"/><glyph d="M122 -72q-22 0 -35 10q-60 50 -73 110q-2 10 -7 38l-6 35q-1 6 -1 19q0 2 0.5 4t0.5 4l3 32q2 30 8 80q1 10 5 28q1 3 2.5 9t2.5 9l1 7q4 20 10 60q1 10 7 28q1 3 2.5 8.5t2.5 7.5q21 85 54 187l9 28q22 67 29 84q0 2 1 4q3 14 14 17q23 6 38 0t13 -21q0 -18 -5 -30 l-6 -19q-27 -81 -47 -145q-3 -10 -9.5 -33t-10.5 -35q-11 -46 -16 -61q-13 -42 -24 -117q-2 -15 -8 -45l-9 -55q-9 -75 9 -135q11 -34 32 -55l4 -3q2 1 4 3q3 3 11 18q11 22 16 47q4 17 14 69q2 7 0.5 10t-8.5 5q-13 4 -22 15q-18 21 -10 44q10 30 38 37q7 2 13 1 q41 -15 49 -43q1 -2 2 -5.5t2 -5.5l1 -3q5 0 15 3q42 10 91 55l4 4q6 6 9 8q14 10 22 -5q7 -7 1 -17q-8 -11 -15 -16q-18 -14 -60 -44q-12 -9 -30 -13q-6 -2 -8 -2l-7 -3q-19 -6 -19 -26q-1 -53 -24 -115q-11 -33 -49 -67q-13 -9 -31 -9zM137 655q2 4 4 5l4 6q0 2 2 6l-3 1 l-4 -2t-3 -2v-7l-1 1zM62 360l2 2q2 1 3 2q2 3 2 10q2 6 4.5 18t3.5 17l1 7q-2 14 10 36q0 2 1.5 7t1.5 9q-4 22 11 33q4 4 4 10q-8 28 13 54q2 6 1 9q-4 22 17 46l1 4q-12 3 -1 8q3 3 3 5l-8 8l-2 -3q-2 -2 -2 -4l-6 -18t-7 -21.5t-5 -17.5l-33 -125l-16 -64l2 -1 q-1 -4 -2 -13t-2 -14q0 -2 3 -4zM160 169l1 1v1v7v3q0 2 1 3v5l-1 1l-1 1q-1 -1 -1 -2q-10 -8 -1 -18q0 -2 2 -2z" glyph-name="b" horiz-adv-x="337" unicode="b"/><glyph d="M97 -48q-22 0 -48 16q-32 22 -41 55q0 3 -2 9q-8 38 -4 57v3q-3 57 21 121l1 4q4 13 5 16q6 33 40 82l1 1l2 3q23 31 58 31q22 0 44 -14q17 -12 23 -37q12 -42 -5 -80q-4 -10 -12 -11h-3q-11 0 -14 9q-1 6 0 15q5 23 7 30q6 19 -11 44q-3 4 -8 1q-12 -7 -17 -17 q-2 -3 -3.5 -8t-2.5 -7q-31 -108 -38 -178v-12v-3q-1 -28 6 -50q1 -7 7 -10q18 -12 42 -12q1 0 6 3q37 35 51 61q6 10 24 35q2 3 11 16q48 68 70 113q3 5 4 6q8 10 17 5q12 -5 12 -15t-4 -15l-9 -15q-3 -6 -17.5 -29t-22.5 -36l-43 -63q-1 -2 -8 -12t-11 -16 q-35 -50 -85 -82q-22 -14 -43 -14z" glyph-name="c" horiz-adv-x="280" unicode="c"/><glyph d="M461 245q13 -8 6 -20l-3.5 -7t-3.5 -8l-10 -19q-34 -69 -71 -122q-14 -20 -21 -31l-8 -12q-22 -34 -64 -49q-13 -5 -27 -5q-24 0 -43 19q-28 28 -35 56q0 2 -1 4v2l-2 -3l-21 -22l-3 -3q-12 -15 -30 -31q-40 -33 -78 2q-65 61 -39 146q16 57 39 99q3 4 8.5 11.5t7.5 11.5 l10 13q8 13 31 24q27 13 47 -3v5q-3 61 20 155q1 3 12 59l5 29q13 60 43 106q21 33 56 25q14 -3 32 -19l4 -3q10 -8 12 -30q1 -19 0 -37q0 -18 1 -27q1 -20 -8 -68q-6 -25 -6 -29q-1 -3 -1.5 -9.5t-0.5 -9.5t-0.5 -8.5t-1 -10t-1.5 -8.5l-12 -55l-9 -45l-3 -11l-3 -15 q-11 -52 -37 -103l-7 -12l-6 -12q-6 -11 -4 -24l5 -40q3 -14 7 -47q2 -21 34 -42q2 0 5 1q14 8 25 20q13 13 27 36q2 3 5.5 8t5.5 8l6 9q2 4 8 12q37 52 72 127q2 6 5 9q10 12 21 3zM224 628q0 -1 0.5 -2.5t0.5 -2.5h-2l2 -6q1 3 4 4q1 2 4 5q-1 1 0 2.5t1 2.5l-3 1 q-4 -2 -7 -4zM222 212v-7q31 61 37 101l3 15q4 18 7 27q2 8 6.5 27.5t6.5 30.5q7 38 12 80q2 13 7 44q6 44 2 86l-5 -11q-16 -47 -29 -118q-5 -38 -18 -71q-10 -24 -13 -48l-6 -49q-8 -52 -8 -79q0 -8 -2 -28zM215 546q-6 19 13 40l1 4q-12 2 -2 7q3 3 3 4q-3 4 -9 6 q-4 -4 -3 -5q-13 -43 -14 -50l-24 -109q-2 -10 -5.5 -29t-4.5 -27h1q-1 -4 -1 -11.5t-1 -11.5q0 -1 3 -4l2 1q2 1 3 2t1 9q0 1 2 13t4 18q0 1 0.5 3t0.5 3q-4 13 6 31q2 12 2 14q-5 19 8 29q4 3 4 9q-10 24 9 46q2 6 1 8zM162 89q7 9 5 20l-3 23q-4 34 -9 52q-5 15 -10 40 q-1 4 -2 11t-2 10l-6 20h-2h-1q-6 -3 -7 -7q-1 -2 -2.5 -4t-1.5 -3q-1 -2 -7 -17q-20 -60 -26 -155q-1 -16 2 -37v-2q0 -3 4 -7q1 -1 5 -3q1 -1 3.5 -2.5t3.5 -2.5l1 -1l2 2q34 33 53 63zM73 130q0 1 1 1q0 2 -1 4q-1 0 -3 1q-1 -1 -4 -1v-2q-2 -1 0 -3l3 -2l1 8zM61 59v1 q0 1 -3 4h-1h-1q-3 0 -3 -2t1 -3q0 -1 3 -3l1 8v-8z" glyph-name="d" horiz-adv-x="409" unicode="d"/><glyph d="M122 -38q-17 0 -47 8q-30 9 -47 43q-31 69 -28 118q5 44 15 77l4 10q4 15 16 45q25 58 72 97q17 13 47 19l2 1h12q18 -3 37.5 -21t23.5 -35q2 -13 0 -18v-2q-10 -38 -21 -54q-11 -17 -27.5 -35t-30 -30.5t-26.5 -29.5t-20 -32t-7.5 -36.5t9.5 -45.5q4 -11 19 -22t29 -12 q4 0 8 2q11 3 21 14l8 8q1 1 8 9t11 13q44 54 69 94l9 18q1 2 3 6.5t3 7.5q7 14 22 9q7 -2 10 -10q4 -9 -1 -17q-44 -73 -74 -110q-8 -10 -12 -14q-11 -11 -18 -21q-16 -22 -55 -43l-7 -3q-12 -8 -29 -8h-6h-2zM101 181q2 0 4 2q50 40 77 84q6 10 15 36l2 10q-1 18 -10 18 q-3 0 -9 -3q-12 -5 -20 -15q-19 -26 -33 -55q-18 -37 -26 -77z" glyph-name="e" horiz-adv-x="277" unicode="e"/><glyph d="M142 -354q-11 0 -23 3q-15 4 -25 13q-7 6 -20.5 18.5t-14.5 13.5l-10 9q-7 7 -9 12q-3 12 -7 19q-17 49 -18 73q-1 10 -2.5 30t-2.5 30q-1 7 -2.5 19.5t-1.5 18.5q0 4 -0.5 11.5t-0.5 11.5q0 12 -1 19q0 7 -2 25q0 2 -0.5 7.5t-0.5 7.5q-1 17 0 35q2 15 2 46q0 2 0.5 8 t0.5 8v9q-1 7 0 13l3 50q6 98 10 142q4 48 14 104l6 40q2 13 7 23q3 6 7 33q5 28 8 36l3 9q4 14 11 24l1 1q-3 6 0 19q17 52 30 75q12 24 37 28q6 2 8 2q12 3 14 3q28 4 48 -19q19 -21 23 -65v-12l1 -5q0 -21 -2 -32l-1 -4q-3 -16 -2 -19q2 -23 -11 -57t-19 -58 q-4 -18 -26 -55l-5 -10q-8 -15 -24.5 -42.5t-19.5 -33.5l-18 -30q-3 -5 -7 -11q-17 -19 -21 -65v-2v-1h2q25 -5 48 -5q28 0 48 8q10 4 23 6q21 4 30 10q13 7 21 -6q4 -4 2 -12q-3 -8 -11 -11q-6 -2 -9 -4q-15 -6 -27 -8q-21 -3 -42 -11q-19 -7 -46 -7h-4l24 -27l2 -2 q4 -3 7 -8q15 -27 16 -29q20 -32 28 -57q3 -12 7 -20q7 -13 21 -58q1 -3 2.5 -8t2.5 -7q5 -20 6 -43q0 -11 2 -31q0 -2 0.5 -6t0.5 -7v-3q1 -3 1 -9l-1 -15q-6 -66 -22 -100q-6 -14 -21 -34q-18 -24 -48 -24zM91 291l16 27q2 3 6 9.5t6 10.5q18 34 22 40q31 46 34 79 q3 11 4 14q20 35 22 85q0 2 0.5 7t0.5 7q2 10 2 15l-2 14l-3 33q0 9 -11 22q-34 -34 -40 -80q-1 -9 -11 -49l-8 -31q-4 -14 -11.5 -44t-11.5 -44q-2 -9 -4 -23q0 -6 -1 -9q-1 -4 -1 -11.5t-1 -11.5q-2 -27 -6 -41q-2 -12 -2 -19zM112 598l2 1q1 1 2 1q1 4 3.5 11.5t2.5 8.5 q2 2 -1 5t-6 2l-1 -2q-9 -11 -7 -20q0 -2 5 -7zM63 408q4 4 4 5l3 21q-2 37 13 67l9 20q1 2 4 14.5t5 19.5q1 4 3.5 15t3.5 17q1 2 -1 7q-2 -2 -5 -2l-1 -2l-1 -1l-8 -24t-7 -20q-11 -27 -15 -52q-7 -29 -8 -50q1 -2 -1 -8l-3 -21zM162 -312q3 2 6 6q5 5 8 12q32 62 25 128 q0 6 -1 9q-2 14 -1 22q0 24 -10 56q-22 74 -51 125q-22 43 -48 66q-3 2 -7 8l-5 6q-2 -1 -2 -12v-7q-2 -42 -2 -60l-1 -17q-4 -64 2 -127q2 -24 2 -36q1 -5 1 -14t1 -13l1 -11q4 -57 16 -83q0 -3 2 -5q3 -8 5 -10q7 -5 17 -15q16 -18 29 -19q1 0 9 -4q1 -2 3 -4q1 0 1 -1z " glyph-name="f" horiz-adv-x="224" unicode="f"/><glyph d="M-158 -530q-39 25 -59 73t-18 100t23 95q17 33 71 75h1q38 29 84 23q12 -2 19 -2q20 -2 30 -4q22 -4 32 -22q7 -10 11 -20q5 -11 -4 -18q-11 -8 -21 0q-2 1 -9 10l-4 6q-1 2 -2.5 4t-1.5 3q-4 6 -11 6q-45 6 -71 2q-17 -3 -30 -11q-66 -52 -82 -107q-17 -54 -7 -87 q12 -42 38.5 -70.5t61 -33t71.5 27.5q50 45 90 179q2 8 7 22.5t6 18.5q11 30 17 53q12 48 17 71q1 5 3.5 16t4.5 17v1l3 11q11 26 20 69q1 5 3.5 15t4.5 15q2 9 8 29q-17 -10 -29 -15q-34 -19 -78 0q-22 9 -28 31q-1 5 -5 13q-6 12 -7 21q-5 37 7 67q16 39 34 59q6 6 27 34 q9 13 36 33l2 2q13 9 27 9q16 0 30 -9q27 -15 27 -45q1 -35 -15 -68q-6 -8 -8 -10q-8 -11 -18 -3q-8 6 -5 14q2 8 4 12q5 9 12 40l2 8q0 1 -1 3q-4 4 -7 1q-3 -1 -11 -7q-56 -56 -68 -132q-3 -19 3 -28q10 -16 31 -10q14 4 31 18q7 5 19 17q6 6 9 8q10 10 19 29 q3 7 8.5 18.5t7.5 15.5l17 35q7 17 25 16h2q2 0 5.5 -0.5t6.5 -1t6 -1.5q22 -6 20 -29q-3 -34 -19 -64q-26 -49 -47 -140l-3 -16q-4 -14 -5 -22l-5 -16q-26 -110 -33 -152q-5 -27 -28 -82l-1 -3l-12 -30q-14 -35 -33.5 -69t-48 -68.5t-61 -52.5t-70.5 -21.5t-78 24.5z M145 -201q5 5 5 7q16 47 21 63q23 81 38 137q3 13 10 37.5t9 33.5h-1q1 5 2.5 14.5t2.5 14.5q0 3 -2 5q-5 -3 -6 -4q-2 -3 -2 -11q-2 -6 -5 -19t-5 -20q0 -1 -1 -3.5t-1 -4.5q2 -13 -11 -39q-2 -7 -4 -17q3 -23 -12 -37q-5 -3 -5 -11q7 -29 -15 -59q-3 -5 -2 -9 q2 -24 -19 -51l-2 -4q12 -4 1 -9q-3 -3 -3 -6q0 -1 7 -8zM132 -232q6 2 7 4q1 3 1 7h1l-1 8q-1 -2 -4 -5l-2 -2q-1 -3 -2 -5q-2 -4 -2 -6z" glyph-name="g" horiz-adv-x="316" unicode="g"/><glyph d="M316 -54q-9 0 -13 1q-21 3 -32 14q-26 24 -33 45q-1 4 -5 12l-1 2q-10 23 -7 46q5 31 1 92v4q-1 14 1 40q-3 -2 -9 -8q-33 -47 -52 -88l-9 -18l-18 -39q-9 -21 -34 -48q-6 -8 -10 -11q-5 -8 -15 -8h-2q-31 6 -44 21q-30 32 -34 96q-1 8 2 43q0 5 0.5 13.5t0.5 12.5 q1 26 1 79q-1 69 13 171l2 13q1 11 5 31.5t5 31.5q18 98 45 163q6 16 33 56l1 1q18 26 32 38q17 14 41 18q16 4 28.5 -4t17.5 -24q6 -22 5 -35v-8q-2 -42 -7 -62q-6 -21 -17 -80q-4 -27 -7 -37q-10 -52 -33 -109q-27 -68 -50 -117q-4 -10 -18 -33l-8 -12q-6 -12 -5 -22v-32 q-2 -32 2 -54v-22q-1 -3 -1 -8q-2 -14 -2 -22l-3 -29v-14v-2q1 -8 3 -9q4 -1 10 4q4 4 8 12q4 7 7.5 15t8 18t7.5 16q23 50 61 108l4 6q15 24 31 37q22 16 32 21q21 14 38 -6q22 -23 22 -53l-3 -77q0 -2 -1 -3v-16q2 -21 0 -44q0 -19 5 -42q0 -6 2 -16q2 -13 13 -24 q6 -6 8 -6q3 0 9 4q16 12 31 37l6 10q41 68 55 99q10 19 21 55l2 5q10 31 12 37q3 10 14 10q13 0 15 -15q1 -5 -1 -12q-3 -10 -8 -22q-2 -8 -8 -24q-20 -61 -63 -130q-3 -4 -9 -14q-16 -29 -31 -46q-28 -33 -68 -33zM90 309q20 38 50 113l6 14q10 26 13 39l6 22q10 36 10 53 q0 4 2 9.5t2 6.5q5 12 9 36q4 30 13 49v17v48q0 10 -3 14q-1 -1 -2.5 -3t-2.5 -3q-23 -33 -39 -76q-19 -59 -42 -163l-4 -17q-4 -16 -6 -37q-8 -62 -10 -92q-2 -20 -2 -30zM90 645q2 4 3 4l3 3l1 2q0 1 1 3v2l-2 1q-6 -2 -7 -4v-5h-1zM37 391l2 1l3 3q1 2 1 8q1 5 2.5 15.5 t2.5 15.5q0 1 0.5 3t0.5 3q-3 12 7 30q2 12 2 14q-5 19 8 29q4 3 4 8q-11 22 8 46q2 6 1 8q-5 18 13 40l1 3q-10 3 -1 7l2 4q-1 2 -8 7l-2 -2q-2 -2 -2 -4q-2 -8 -7 -24.5t-7 -24.5q-8 -43 -23 -107q-2 -10 -6 -29t-5 -27h1q-1 -4 -1 -11.5v-11.5q0 -3 3 -4z" glyph-name="h" horiz-adv-x="439" unicode="h"/><glyph d="M103 314q-7 0 -11 6q-3 4 -9 9q-12 12 -14 15q-8 17 -2 31q11 24 32 24q6 0 8 -1q5 -1 18 -6l2 -1q10 -5 10 -25l-1 -1v-1q-1 -2 -2.5 -6.5t-2.5 -6.5q-7 -22 -17 -31q-4 -6 -11 -6zM100 -18q-20 0 -37 10q-43 26 -53 65l-1 6q-12 50 -7 79q1 5 2 10.5t2 12.5t2 11l4 28 q6 25 16 44q14 24 37 24q6 0 9 -1q3 0 5 -1h1q2 0 3 1q1 0 3.5 0.5t4.5 0.5q5 0 12 -5q8 -9 3 -25q0 -2 -1 -4q-17 -87 -19 -137q0 -1 -0.5 -5t-0.5 -6v-16q-1 -16 18 -37q5 -5 13 -5q26 1 38 13q27 27 42 57q7 13 30 53l7 14q4 5 12 11q2 1 6 1q10 0 13 -10q2 -8 1 -14 q-4 -12 -8 -18l-11 -20q-29 -50 -34 -58q-25 -39 -72 -68q-20 -11 -38 -11h-2z" glyph-name="i" horiz-adv-x="220" unicode="i"/><glyph d="M82 364q-9 0 -15 7q-1 1 -3 1q-23 5 -21 26q3 28 20 34q3 2 13 4l4 2h4q7 0 23 -8q2 0 4 -2t4 -2q11 -6 7 -17q-8 -24 -24 -39q-8 -6 -16 -6zM-265 -653q-32 0 -49 29q-8 11 -10 22q-14 54 5 89q32 64 65 109l30 43q4 5 11.5 16.5t11.5 16.5q40 57 81 102l26 31 q12 14 17 19q11 14 12 30q4 50 7 74q1 12 5 31l3 15l1 4q2 10 2 14q0 22 11 75q2 12 4 18l6 30q9 39 13 66q1 8 8 43l3 9q3 18 22 18q10 0 26 -2q14 -2 16 -15q5 -18 3 -33q-8 -73 -19 -117q-17 -78 -20 -112q0 -6 -5 -36v-1q2 2 7 6.5t7 6.5l46 48q7 8 19 26l6 9 q4 6 12.5 17.5t9.5 13.5q25 30 34 49q15 30 20 46q4 15 13 19q4 3 12 1q11 -2 9 -14q-3 -15 -4 -18q-15 -39 -56 -96l-5 -8l-30 -42q-32 -41 -67 -74q-6 -6 -17.5 -18.5t-15.5 -17.5q-11 -14 -11 -27q2 -35 -16 -97l-1 -5q-3 -10 -8.5 -29.5t-8.5 -28.5q-5 -15 -15.5 -45 t-15.5 -45l-11 -32q-11 -33 -30 -70q-1 -1 -1.5 -3t-1.5 -4l-2 -4t-2 -5.5t-2 -5.5l-3 -5q-10 -21 -13 -25q-6 -9 -33 -45q-10 -16 -24 -23q-8 -3 -13 -8q-14 -20 -54 -30l-10 -3q-6 -2 -10 -2zM-80 -407q4 4 4 5q2 5 9 22t10 26q7 24 32 104q2 9 8 27t8 27h-1l3 23 q-1 2 -2 3q-2 0 -6 -2q-1 -3 -1 -9q-2 -5 -4 -15t-4 -15q0 -1 -1 -3l-1 -2q2 -13 -9 -30q-3 -8 -3 -13q3 -19 -11 -28q-4 -3 -4 -8q7 -23 -13 -45q-4 -4 -2 -7q4 -17 -16 -39l-2 -3q11 -3 2 -7h-1l-3 -4q1 -2 4.5 -4t3.5 -3zM-264 -621q5 0 6 1q3 4 9.5 10t9.5 10 q26 24 34 39q2 3 5.5 11t5.5 11l14 27q2 5 5 10q18 32 20 50q0 2 1.5 6t2.5 6l2 5l12 35q7 22 21 61t19 54q2 8 2 12q1 1 1 3t1 3l2 13l6 26q-15 -15 -23 -27q-29 -34 -32 -38q-12 -12 -26 -34q-14 -24 -21 -33q-35 -48 -78 -118q-13 -23 -28 -56l-7 -21q0 -2 -2 -8 q6 -39 18 -51q9 -7 20 -7zM-92 -430q6 2 7 3q0 3 1 5h1l-1 6l-4 -4q-1 0 -2.5 -2t-2.5 -2q0 -1 -0.5 -2.5t-0.5 -2.5z" glyph-name="j" horiz-adv-x="176" unicode="j"/><glyph d="M32 -37q-14 0 -24 16t-8 34l2 15q1 19 5 57q1 6 3.5 20.5t3.5 22.5q8 41 10 65q0 2 6 34q6 36 6 51q0 7 1 10l8 39q10 44 14 66q3 11 7 37q2 21 11 50q7 21 10 41q6 38 32 103l5 13q6 18 20 18q6 0 13 -3q3 -1 8 -2.5t6 -1.5q18 -8 17 -28q-3 -37 -16 -82q-2 -8 -6.5 -25 t-6.5 -25q-5 -28 -23 -107l-12 -53q-15 -63 -22 -114l4 8q3 5 11.5 22l13.5 27q15 25 24 51q4 10 11 20l3 5l6 11q6 9 10 17q9 18 39 55q3 4 9 10q8 10 28 22l5 3q14 7 28 3q17 -3 19 -20q0 -1 0.5 -3t0.5 -3q2 -14 0 -21q-9 -52 -28 -78q-82 -110 -131 -156l-4 -4l4 -2 l7 -7q36 -49 37 -95l3 -33q0 -4 0.5 -11t0.5 -11q2 -12 5 -16q6 -9 16 -10.5t17 4.5q13 11 18 18l15 22q31 46 39 65q3 8 11 24q15 27 19 44q5 16 21 13q7 -1 11 -7q3 -7 0 -18q-10 -23 -13 -28l-12 -24q-9 -17 -17 -34q-15 -32 -46 -74q-8 -11 -20 -21q-28 -25 -62 -13 q-25 9 -35 34q-4 12 -4 21q-2 27 -17 73l-9 32q-1 3 -5 9l-7 8q-3 0 -8 -7l-4 -6q-8 -12 -14 -17q-5 -5 -8 -15q-5 -25 -18 -61q-8 -19 -11 -51q-1 -13 -4.5 -17.5t-15.5 -6.5q-10 -2 -13 -2zM81 401q10 9 18 36q1 2 3 9t3 10q7 17 8 30q1 4 2 13t2 13t4 11t4.5 12.5 t0.5 10.5q-2 7 0 11.5t6 10t6 11.5q-9 4 -3 27q1 4 5.5 4.5t-1.5 4.5q-10 -12 -10 -13q-4 -17 -11.5 -44t-11.5 -44l-21 -78q-1 -5 -1.5 -16.5t-2.5 -18.5zM119 387l3 3l3 1q3 58 3 59q-11 -49 -13 -57q0 -1 2 -3t2 -3zM154 243q13 11 21 22q38 48 64 105q9 19 14 41 q-26 -26 -37 -49q-6 -12 -16 -27q-12 -20 -17 -30q-11 -28 -29 -62z" glyph-name="k" horiz-adv-x="337" unicode="k"/><glyph d="M128 -51q-17 0 -35 10l-16 9q-5 2 -10 5l-2 1q-6 2 -10 7q-34 40 -44 68q-14 37 -10 111l1 8v22q-3 19 1 55q0 7 2 23q2 46 6 69l3 26q22 138 36 188q9 30 13 52q5 23 18 44q-2 -10 -5.5 -30t-5.5 -32q-1 -5 -15 -79v-18t-1 -18q8 10 15 37q4 14 5 20q5 17 5 30q1 5 1 14 t1 13t3 11t3.5 12.5t0.5 10.5q-2 10 -1 13t5 9.5t5 12.5q-4 1 -6 10q6 9 10 17q5 10 12 21q24 40 67 58q9 3 41 8q6 0 10 1q15 1 31 -10q10 -7 12 -20q2 -38 -2 -57q-12 -79 -38 -150q-26 -70 -49 -101q-11 -16 -22 -45q-11 -25 -28 -52q-8 -12 -11 -18t-7 -10l-2 -3 q-11 -11 -22 -3l-1 1q-6 -72 -4 -112l-1 -12q-1 -5 -1.5 -15t-0.5 -15q-2 -55 8 -93q1 -3 3 -8.5t3 -7.5l2 -6q6 -13 19 -17q6 -2 18 -8q19 -9 35 7l10 12q49 62 60 112q7 26 16 38q4 8 13 8q4 0 6 -1q13 -6 10 -21v-3l-1 -1q-11 -22 -21 -58q-2 -8 -6 -14l-1 -3 q-12 -25 -44 -74q-20 -28 -43 -43q-22 -16 -44 -16zM95 331l3 3q2 5 8 13q1 2 7 11.5t8 14.5q9 21 35 67q5 10 15 28q39 71 56 149q8 34 11 51q1 9 5 27q3 17 1 26l-1 3h-2h-2q-1 0 -7 -3q-59 -58 -73 -113l-9 -33l-9 -33l-1 -6q-11 -40 -17 -55q-18 -54 -24 -119 q-2 -9 -4 -31zM93 460l2 1q3 2 3 3q0 10 -0.5 29.5t-0.5 29.5q-6 -36 -8 -58q0 -3 4 -5z" glyph-name="l" horiz-adv-x="244" unicode="l"/><glyph d="M50 -84q-14 0 -23 9q-12 12 -16 24q-8 21 -10 65q0 9 1 14v18q-4 26 2 77q0 6 2 18q3 30 9 74q8 45 11 59q6 27 35 22q1 0 3.5 -0.5t3.5 -1.5q1 0 4 -0.5t4 -1.5q18 -2 23 -6.5t4 -21.5q0 -8 -2 -26q-2 -14 -2 -21q-4 -44 -5 -66q-4 -54 -7 -81q0 -7 -1 -10q5 12 8 22 q8 30 19 53q6 13 31 70l9 20q10 25 36 43q13 9 25 0q10 -8 15 -18q15 -39 14 -76q-1 -24 -1 -74v-30v-3q10 25 33 63q2 3 7.5 14l8.5 17q4 9 14.5 26.5t14.5 25.5q4 6 12 20q11 21 29 42q8 10 11 16l5 8l1 2q33 52 57 71q10 9 30 14q24 5 29 -17q14 -49 4 -83 q-14 -51 -21 -95q0 -4 -6 -26q-12 -33 -16 -78q-1 -16 -5 -43q-2 -12 -2 -20l-1 -3v-7q0 -9 5.5 -12.5t13.5 1.5q27 20 42 49l3 6q33 63 50 107q4 9 9 16q4 6 12 6q2 0 4 -0.5t4 -0.5q14 -5 11 -18q-3 -12 -4 -13q-14 -30 -22 -46q-36 -74 -48 -95q-17 -29 -43 -50 q-17 -14 -34 -15q-27 -3 -42 12q-37 35 -38 75l-1 2q-2 36 2 53q3 12 7 38q2 19 6 38l15 71q3 15 9 47q1 2 1 6q-62 -92 -95 -156q-4 -6 -10 -18q-31 -58 -44 -94l-1 -3q-4 -15 -5 -19q-1 -23 -21 -47q-6 -8 -19 -13q-20 -6 -31 11q-14 18 -17 51q-2 52 3 84q4 26 2 72l-1 3 q0 6 -1 7l-3 10v2q-1 -1 -1 -2l-3 -9q-6 -13 -11 -25l-2 -4q-16 -39 -24 -64q-12 -38 -22 -64q-4 -14 -14 -40q-1 -3 -2.5 -9t-2.5 -9q-2 -10 -4 -16q-7 -23 -30 -23zM484 265l3 3l2 1q0 11 -0.5 30.5t-0.5 29.5l-9 -58q0 -1 5 -6zM419 48q9 9 15 37q4 15 5 19q5 18 5 31 q1 5 1 13t1 13q0 2 4 15.5t3 19.5q-2 10 -1 12.5t5 9t5 12.5q-9 5 -5 27q1 3 6 5q1 0 -2 3q-9 -9 -10 -14q-3 -20 -8.5 -49t-7.5 -39q-2 -16 -8 -46t-7 -34v-17t-1 -18z" glyph-name="m" horiz-adv-x="561" unicode="m"/><glyph d="M261 -80q-23 0 -40 28q-31 55 -43 115q-3 19 -1 43q0 3 0.5 9.5t0.5 9.5v65q-16 -19 -29 -44l-78 -135q-9 -17 -28 -17q-14 0 -22 8q-12 10 -19 38v3q-2 7 -2 30q2 12 2 20q2 16 2 23q1 19 5 57q4 31 5 50q0 13 3 26q3 27 2 33q0 7 5 19l3 8q4 9 6.5 13t8.5 7t16 3h12 q24 -1 31 -10q6 -7 3 -33q-4 -29 -7 -47q-1 -8 -5 -29q0 -5 -2 -15q-2 -26 -8 -43q-1 -2 -1 -4l-1 -5q-1 -4 -1 -10q0 -13 -2 -39l48 80q13 22 43 59l9 9q14 18 22 26q13 15 30 15q23 0 35 -30q16 -50 9 -88q-1 -4 -1 -23l9 -115v-2q0 -1 0.5 -3.5t1.5 -3.5q19 -29 35 -42 q3 -3 5 -3q1 0 6 3q25 22 35 38q39 69 56 101q2 3 3.5 7t4 9.5t3.5 8.5q0 2 1.5 6t2.5 6q2 2 2 5q2 4 4 10q5 9 14 9h2q10 -1 15 -11q3 -7 -1 -18l-6 -14l-13 -28q-21 -44 -71 -128q-28 -46 -85 -55h-5h-6q-4 0 -5 -1q-8 -4 -19 -4zM209 5q5 9 5 40q1 7 1 20q0 22 -2 31 q0 4 -2 13t-2 13q0 2 0.5 18t-2.5 17q-3 9 -3 12t2.5 10.5t2.5 13.5q-11 1 -11 25q0 4 4 5.5t-3 3.5q-1 -2 -3.5 -7.5t-2.5 -8.5q1 -18 2 -45t3 -45q1 -13 2 -40t2 -41q0 -5 3 -16.5t4 -18.5zM249 4l2.5 2.5t1.5 2.5l-15 58q4 -36 5 -59z" glyph-name="n" horiz-adv-x="428" unicode="n"/><glyph d="M49 -70q-23 0 -42 17q-21 18 -30 42q-12 36 -12 78q3 108 46 189q11 22 41 72l16 27q8 12 13 17q13 15 34 10q12 -3 30 -15l6 -3q11 -8 9 -24q-3 -14 12 -22q39 -25 42 -80q2 -43 -12 -101q0 -3 -2 -7q-2 -8 -1 -11q5 -4 20 2q37 17 59 36q14 14 44 39q4 5 14 5 q9 0 12 -5q5 -5 3 -11q-2 -11 -7 -15q-16 -12 -32 -26q-38 -34 -61 -46q-25 -14 -47 -18t-31 -27q-19 -49 -60 -92q-21 -21 -44 -28q-11 -3 -20 -3zM144 109h3q8 0 11 2t5 10l4 11q16 56 13 81v12v19q0 16 -11 29q-10 10 -17 10q-8 0 -14 -11q-1 -2 -7 -13l-1 -2 q-1 -2 -3.5 -6.5t-3.5 -7.5q-6 -13 -13 -26l-1 -2q-11 -22 -26 -47q-9 -11 0 -27q13 -27 41 -31q3 0 9.5 -0.5t10.5 -0.5zM76 -19q3 0 6 2q37 26 60 88l-13 3q-44 1 -68 33q-1 0 -1 -2q-6 -17 -12 -55l-3 -20q-1 -36 26 -48q2 -1 5 -1z" glyph-name="o" unicode="o"/><glyph d="M49 -343q-11 0 -19 8q-13 11 -15 22l-3 10q-8 26 -6 41q0 10 -1 14q-6 39 -4 122v42q0 11 0.5 31t1 36.5t1.5 31.5q4 67 14 107q1 7 3.5 21t4.5 21q4 24 7 36q9 41 29 123q1 10 8 23q3 4 9 8h1l2 1q2 2 6 2h2q6 0 9 1l10 1q10 0 18 -8q18 -21 13 -45q-2 -16 -4 -25 q0 -3 -1.5 -10.5t-2.5 -11.5l-4 -31q-17 -121 -31 -202q-2 -10 -2 -31v-9v-46q8 22 14 40l12 37q16 52 26 78l17 44q15 43 40 105q16 39 50 93q18 28 47 50q30 21 60 11q19 -6 32 -25t12 -38q-4 -65 -17 -97q-6 -18 -8 -28q-8 -30 -9 -32q-23 -59 -47 -104l-2 -4 q-7 -10 -9 -17q-15 -32 -52 -51q-12 -5 -19 -5q-20 0 -31 24q-13 33 -12 65q0 1 3 13q5 12 16 12h2q14 -2 14 -17q0 -7 -2 -17q-3 -12 3 -26q15 31 23 66q7 33 30 98q20 58 30 129v4v4q-2 2 -4 0q-19 -13 -31 -31q-35 -50 -48 -92q-2 -8 -15 -38l-6 -14q-37 -89 -89 -256 q-24 -73 -30 -140l-3 -26q-4 -36 -4 -52q2 -26 -21 -40q-10 -6 -18 -6zM269 92q7 6 19 36q1 3 3.5 9t3.5 9q6 16 9 30q2 5 2.5 14t1.5 12q1 2 6.5 15t4.5 19q-2 7 0 11.5t6.5 10.5t6.5 11q-5 5 -4.5 13.5t2.5 13.5q2 4 6 4t-2 4q-10 -10 -11 -13q-4 -17 -12 -43t-13 -43 l-24 -77q-2 -6 -3 -18t-2 -18z" glyph-name="p" horiz-adv-x="405" unicode="p"/><glyph d="M162 -425q-14 0 -28 6q-36 18 -46 53q-7 23 -7 67q0 3 -0.5 10t-0.5 10v51l1 7q0 8 2 24q8 36 7 60q0 32 9 77l4 25q6 37 14 61v1q3 6 3 9q-3 -1 -12 -8q-14 -12 -34 -12q-33 0 -55 24q-19 19 -19 45q0 17 3 37q7 53 26 108q0 2 1 4q3 5 8.5 15.5t8.5 15.5q35 68 62 96 q4 6 21 20q13 9 32 8q16 -2 23 -13q16 -27 17 -47q0 -32 -7 -65q-2 -13 -10 -21q-9 -11 -19 -3q-7 7 -8 12q0 9 3 15q4 12 4 38v6q-15 -22 -19 -35l-9 -24q-20 -53 -24 -65l-2 -8q-20 -66 -22 -103l-1 -5v-10q0 -4 1 -4q2 0 4 1q38 20 67 78q15 32 33 72q16 36 26 63 q7 20 19 41q6 10 8 15l5 9q13 23 38 19q12 -2 17 -5q16 -5 13 -22q-3 -23 -12 -44l-12 -35q-46 -119 -65 -159q60 20 87 66l5 8q22 34 29 53q2 7 9 11q6 3 14 0q3 -1 5 -3.5t3 -4.5v-3q1 -10 -5 -22l-12 -19q-18 -30 -27 -44q-20 -28 -44 -43q-2 -1 -17 -11q-35 -23 -59 -31 q2 -5 6 -17q19 -42 36 -96q8 -26 13 -59q2 -8 4 -20q9 -43 -2 -98q-15 -78 -37 -126q-17 -37 -49 -50q-13 -6 -27 -6zM190 -375q2 0 5 7q1 3 11 24q11 27 29 99q12 52 6 85l-2 15q-13 70 -22 96q-5 15 -17 43l-4 8q-4 -14 -7 -21q-12 -40 -12 -60q0 -6 -1 -8v-2 q-8 -45 -16 -141q0 -8 -2 -24.5t-2 -24.5v-7v-17q0 -30 12 -55q5 -11 14 -15q6 -2 8 -2zM126 -24q2 4 3 5t3 5l1 4l-3 1q-1 -1 -4 -3l-2 -1q0 -1 0.5 -2.5t0.5 -2.5h-1zM104 -266l4 4q2 4 0 8q0 5 1 14.5t1 14.5v6q-4 9 3 29q2 9 1 13q-9 15 4 28q3 1 3 8q-12 21 3 44 q2 5 0 7q-7 15 8 38l1 4q-11 1 -2 6q2 2 2 4q-1 1 -9 5q-4 -2 -3 -6q-7 -37 -8 -47q-2 -17 -5.5 -51t-5.5 -51q-1 -9 -2.5 -27t-1.5 -26h1q0 -2 1 -9.5t0 -12.5l2 -1q1 -2 2 -2z" glyph-name="q" horiz-adv-x="352" unicode="q"/><glyph d="M207 -72q-25 0 -46 15q-26 19 -42.5 37.5t-21.5 45.5q-8 40 -2 63q1 1 1 3q-4 34 9 62q-6 4 -16 12q-13 11 -23 16q-42 23 -67 65q-20 31 -24 88v24q1 3 1 10q0 19 16 47q1 4 4 8q13 26 22.5 33t39.5 12q15 2 30.5 -5.5t22.5 -20.5q19 -39 15 -69q-5 -38 -15 -63 q-1 -3 -2.5 -8.5t-2.5 -7.5q-6 -20 -13 -32t-14 -22q0 -1 -1 -2q0 -2 -1 -2q1 0 3 -1l51 -21l10 -4q1 0 2.5 -0.5t2.5 -0.5l8 -3q26 -12 36.5 -34.5t2.5 -49.5q-14 -49 -12 -84v-5v-3q2 -40 39 -50q16 -4 28 5q19 15 27 31q28 46 49 111q1 4 2.5 11.5t2.5 11.5q0 4 2 14 t5 15q5 11 19 9q10 -3 10 -14q1 -4 1 -13v-4q3 -23 -16 -67l-6 -15q-21 -52 -36 -78q-19 -31 -58 -55q-27 -15 -40 -15h-3zM42 277q23 33 26 89q0 15 -1 22t-7 7h-3q-18 -4 -24.5 -11t-5.5 -21q0 -5 -1 -7q-7 -33 16 -79zM105 25q6 5 11 24q0 2 1.5 6.5t1.5 6.5q3 9 3 19 q0 2 -0.5 7.5t0.5 7.5q0 3 2.5 11t0.5 11q-3 5 -2 7t4 6.5t4 8.5q-12 0 -7 15q1 3 4 3q2 0 1 0.5l-3 1.5q-7 -7 -8 -9q-1 -10 -3.5 -27.5t-3.5 -27.5q-6 -36 -8 -49q0 -3 1.5 -10.5t0.5 -11.5z" glyph-name="r" horiz-adv-x="317" unicode="r"/><glyph d="M101 -70q-23 0 -40 7q-11 3 -38 19q-3 3 -11 7q-7 6 -11 15l-3 6q-12 24 -16 37q-9 28 2 60q4 41 22 41q10 0 19 -18l2 -4l-2 -3q-11 -23 -13 -53q0 -33 28 -46q32 -15 59 -2l10 5q17 13 21 16q8 6 11 13q24 45 18 82q0 3 -1 4v5v6v6l-11 11h6q-9 18 -29 52 q-28 49 -35 65l-16 30q-16 30 -23 47q-18 48 -6 91q5 14 10 21q21 34 50 49q33 17 68 -5q15 -9 26 -23q12 -15 13 -37q3 -34 -20 -65q-9 -11 -19 -2q-7 4 -5 13l3 12l1 3l3 8q1 2 2.5 7t2.5 8q2 17 -8 25q-16 13 -32 4q-41 -21 -28 -66l9 -24q4 -10 6 -16q10 -22 12 -30 q1 -7 10 -17q16 -24 24 -35q13 -18 14 -20q27 -37 51 -87q7 -14 9 -44q1 -49 -22 -89q-2 -4 -2 -7q0 -2 -2 -4t-2 -4q-30 -58 -78 -69q-22 -5 -39 -5z" glyph-name="s" horiz-adv-x="262" unicode="s"/><glyph d="M93 -3q-20 0 -41 9q-11 5 -16 13q-43 52 -39 112q1 8 1 23q-1 4 -1 12q0 29 11 104l6 36l7 46q2 14 5.5 39t4.5 37l1 1h-1q-22 -10 -38 -29q-12 -12 -21 -12q-8 0 -11 7q-6 15 9 27l1 1q30 28 51 35q15 6 21 25q24 103 38 155l21 70l4 14q4 12 10 22q8 14 22.5 18 t28.5 -3q13 -6 13 -20q2 -18 -2 -32q-2 -7 -5.5 -19t-4.5 -16q-4 -13 -10.5 -38t-9.5 -36q-13 -53 -20 -89l-6 -25q27 5 49 19l11 8l32 21q11 8 19 -4q7 -8 0 -17q-6 -8 -18 -15q-3 -1 -20 -11q-44 -25 -68 -31q-13 -3 -17 -20l-6 -39q-14 -86 -15 -91q-15 -84 -21 -152 q-2 -24 4 -69l1 -3q1 -6 9 -22l3 -5q2 -5 15 -11h2q15 -6 20 -6q4 0 16 15q11 15 18 34l9 22q27 59 28 63q1 7 8 10t13 0q9 -4 9 -14q0 -5 -3 -14q-2 -6 -14.5 -31t-14.5 -32q-7 -16 -11 -22q-4 -5 -10 -17l-1 -3q-25 -50 -76 -50zM68 475q8 7 17 36q3 7 7 19q6 23 7 30 q1 4 1.5 13t2.5 13q0 2 5 14.5t4 19.5q-2 9 4.5 19t7.5 15q-5 3 -5 12t2 15q1 3 6 5q1 0 -2 3q-10 -10 -11 -13q-4 -18 -11 -45t-11 -42q-3 -13 -10 -39t-10 -39q-2 -7 -2.5 -19t-1.5 -17z" glyph-name="t" horiz-adv-x="186" unicode="t"/><glyph d="M418 182q13 -4 11 -15l-3 -12q-20 -56 -32 -83l-9 -20q-1 -2 -2.5 -6t-2.5 -6l-2 -5q-2 -8 -7 -15q-24 -28 -58 -47q-10 -5 -19 -5q-5 0 -19 4q-51 21 -53 78q-1 7 0 16v12q-2 27 7 56q3 9 5 27l-1 -1q-21 -64 -93 -108q-48 -31 -91.5 7.5t-47.5 92.5q-4 56 7 93 q4 14 13 35l4 10q9 19 24 12q2 -1 7 -2l6 -1q11 -2 18 -6t11 -11t6 -12t1 -16t-1.5 -15.5t-3 -17.5t-3.5 -17q-11 -61 15 -106q6 -14 24 -14q11 0 17 5q40 27 59 72q10 24 21 44q4 7 16.5 41t26 53t35.5 23l4 1q11 2 17 -11q12 -21 9 -44q-3 -29 -19 -77q-40 -113 -23 -151 q16 -30 34.5 -23.5t30.5 36.5q7 16 8 20q24 55 30 87q1 6 6 15q5 10 17 7z" glyph-name="u" horiz-adv-x="384" unicode="u"/><glyph d="M82 -16q-27 0 -46 19q-30 27 -35 68q0 10 -1 17v10v2q3 23 1 71q-2 52 3 87q2 16 8 48l3 15q3 22 28 22h1q8 0 11 -1l13 -3q23 -5 28 -15.5t0 -36.5q-2 -10 -2 -30q0 -13 -0.5 -38t-0.5 -37q-1 -18 -1.5 -53.5t-0.5 -53.5q0 -15 5 -33q3 -9 11 -12q4 -1 7 -1q2 0 6 4 q27 37 40 72q10 27 22 50l6 14q10 22 14 33l1 2l17 38q11 25 18 34q9 13 13 22q36 64 75 117q10 14 51 62l22 25q3 5 12 8h5q9 0 14 -5q11 -13 1 -24l-5 -6l-32 -39q-32 -35 -64 -85q-22 -36 -32 -54l-25 -40q-17 -29 -40 -80l-9 -19q-14 -32 -20 -48q-16 -41 -34 -76 q-8 -16 -23 -32q-16 -16 -32 -16q-4 0 -12 2l-4 -1q-4 -2 -9 -2q-2 0 -4.5 -0.5t-3.5 -0.5z" glyph-name="v" horiz-adv-x="360" unicode="v"/><glyph d="M324 -22q-8 0 -13 4q-25 13 -36 30q-43 61 -49 139q-6 61 0 103q-28 -48 -39 -73q-15 -37 -46 -74q-22 -27 -56 -41q-12 -5 -23 -5q-20 0 -36 12t-21 31q-4 15 -5 28v20v8q1 51 18 105q5 16 10 43l2 12q2 12 7 21q11 20 33 12q12 -4 17 -4q18 -3 18 -25q-2 -17 -4 -26 l-3 -14q-14 -59 -19 -77q-13 -46 2 -95l3 -5q2 -3 6 -2q23 11 38 32q13 18 40.5 92t59 129.5t68.5 55.5q4 0 8 -2q13 -6 13 -27v-25q1 -28 -5.5 -77t-8.5 -77.5t8 -76.5q2 -5 2 -16v-3v-10q-2 -8 0 -14q0 -1 1 -2.5l2 -3t1 -2.5q6 -14 6 -16q0 -6 10 -12q4 -3 8 -3q3 0 6 6 q8 15 9 20q3 16 24 58q14 26 27 78q9 37 20 64q4 9 10 27q7 24 22 50l15 27q8 17 22 40l1 3q45 70 75 94q4 4 10.5 2.5t9.5 -6.5q2 -3 1.5 -8t-3.5 -8q-30 -26 -70 -96q-3 -5 -20 -35q-25 -41 -51 -115q-12 -29 -14 -49q-4 -27 -22 -70l-5 -12q-18 -42 -25 -71 q-11 -47 -43 -63q-10 -5 -16 -5z" glyph-name="w" horiz-adv-x="543" unicode="w"/><glyph d="M202 -45q-28 4 -45 37q-13 28 -25 63q-1 5 -10 32l-8 -14q-31 -50 -44 -81q-4 -12 -13 -26q-6 -9 -18 -9q-3 0 -4 1q-8 1 -13 9t0 16q17 43 46 90q4 6 11 18t8 14q2 4 5.5 10t4.5 8q6 10 0 22q-16 31 -35 82l-15 39q-16 38 -19 90q-3 30 26 41q3 2 13 4q26 6 38 -17 q5 -7 7 -18q10 -33 15 -56l1 -2q8 -34 14 -45q4 -6 9 -19t6 -15v-1l1 -2l6 9q12 20 19 29q30 43 56 104q9 22 30 52l4 6q4 6 15 14q13 6 20 -1q5 -1 9 -9q2 -9 -1 -16q-1 -1 -4 -7q-8 -16 -15 -23q-15 -17 -39 -68l-4 -10q-14 -29 -40 -68l-7 -11l-14 -21q-2 -3 -5.5 -8.5 t-5.5 -7.5q-8 -13 -2 -23q1 -2 2.5 -6t2.5 -6l3 -8q18 -28 37 -96l1 -2l3 -12l1 -3l6 -22q2 -6 4 -21q1 -17 -6 -26q-9 -10 -28 -10h-2h-2z" glyph-name="x" horiz-adv-x="338" unicode="x"/><glyph d="M-18 -498q-65 -5 -120 43.5t-57 115.5q-2 60 32 117q3 5 6.5 10.5t8 12t6.5 10.5q3 5 19 29q18 31 60 38q7 1 12 -4q4 -4 4 -12q0 -7 -5 -14q-4 -5 -12 -7q-27 -8 -44 -40l-2 -4q-3 -5 -12 -20.5t-15 -23.5q-15 -22 -19 -53q-4 -26 -1 -58q6 -50 51 -78q60 -40 123.5 1.5 t83.5 109.5q2 5 5.5 13.5t4.5 11.5l2 4q3 7 19.5 58.5t19.5 62.5q10 34 16 51l1 1q7 19 8 30q0 5 5 25q0 2 2 6l2 11l20 74q2 6 5 16.5t5 15.5q1 4 4.5 15.5t5.5 18.5q5 15 16 60q-2 -3 -13 -22l-17 -25.5t-20 -30.5q-21 -31 -40 -47q-32 -28 -87 -28q-12 0 -20 10 q-59 57 -45 135q11 74 30 114q2 4 4 16q4 20 30 27q10 2 26 -2q9 -3 16 -3q13 0 13 -14q0 -21 -7 -40q-22 -67 -22 -152q0 -13 5 -36q4 -8 8 -8q5 0 9 3q36 25 58 57l4 6q30 41 48 74q30 49 56 71l2 2q13 10 14 11q22 11 38 -4q12 -12 9 -25q-1 -2 -3 -15q0 -1 -1 -7.5 t-2 -10.5q-1 -3 -12 -44l-6 -24q-1 -5 -3.5 -13.5t-3.5 -11.5q-11 -42 -12 -46q-6 -33 -20 -74l-5 -17q-7 -25 -28 -103q-2 -8 -6.5 -24t-6.5 -24q-17 -62 -41 -120q-35 -85 -84 -140.5t-125 -61.5zM200 -181q5 5 5 9q22 68 24 76l45 166q3 15 10.5 44t10.5 42h-1l6 36 q0 2 -2 6q-1 -1 -3 -2.5t-3 -2.5q-2 -8 -2 -14q-1 -3 -12 -47q0 -2 -1 -5t-1 -4q1 -20 -13 -48q-5 -19 -5 -21q3 -27 -13 -45q-3 -2 -6 -13q6 -36 -18 -71q-3 -10 -2 -12q2 -26 -21 -62l-2 -5q12 -3 0 -11q-3 -3 -3 -6q1 -2 4 -6zM186 -219q5 4 7 6q0 1 0.5 4t0.5 4h1v9 q-1 -1 -2.5 -3t-2.5 -3t-2.5 -4t-2.5 -4q0 -1 -1 -3.5t-1 -3.5z" glyph-name="y" horiz-adv-x="372" unicode="y"/><glyph d="M73 29q-9 0 -19 8q-20 20 -13 40q7 23 14 32q4 6 34 52q21 32 25 38l12 18q2 3 6 8.5t7 10t5 8.5q15 24 40 54q2 2 8 10h-7h-1h-5q-11 -4 -55 -11q-47 -8 -65 -15q-2 -1 -7 -1q-15 -1 -20 10q-4 7 -1 13q5 8 14 10q31 8 54 12q10 2 28 4q36 4 49 9q7 2 21 4q2 1 5 1.5 t5 0.5q21 4 32 15q14 14 33 4l4 -3q4 -2 10 -6q11 -5 9 -17q-2 -31 -16 -46q-55 -58 -112 -150q-12 -17 -20 -27q-2 -3 -6 -7.5t-4 -5.5l-3 -4q-1 -2 -3.5 -5.5t-3.5 -5.5q-1 -1 -2.5 -3.5t-2.5 -3.5l-3 -3q3 0 5 1q4 2 8 2l19 2l49 6q39 3 85 -15q5 -1 9 -6q11 -10 2 -19 q-4 -7 -12 -7h-2q-7 0 -13 3q-40 19 -91 8q-8 -2 -24 -4q-12 0 -22 -3l-6 -1q-28 -6 -37 -11q-8 -4 -16 -4zM77 97q4 2 7.5 4.5t6.5 5.5t5 5.5t4.5 7t4.5 6.5q11 13 12 16q11 13 17 26q2 3 5.5 11.5t6.5 11.5q1 1 9.5 12t9.5 18t4 10.5t8.5 8t9.5 9.5q-8 8 6 26q2 3 7 2 q2 0 0 5q-12 -6 -15 -9q-10 -17 -26 -41t-23 -35q-8 -13 -23 -35.5l-21 -31.5q-3 -5 -7.5 -16.5t-7.5 -16.5zM108 73q6 0 7 1q3 8 10.5 26.5t11.5 28.5q-19 -30 -30 -50q-1 -1 1 -4v-2z" glyph-name="z" horiz-adv-x="330" unicode="z"/><glyph d="M195 -117q-24 2 -38 13l-7 5q-40 28 -57 47q-15 17 -21 33q-2 6 -4 8q-17 20 -29 67l-3 9q-8 29 -6 56q-1 40 18 101q1 2 2.5 6.5t2.5 6.5q8 22 10 34q1 11 13 25q19 22 32 73l3 10q2 8 2 13v2q1 25 -18 35q-21 12 -31 28q-15 28 3 49l11 12q2 2 6 7t6 7q24 27 29 65 q2 26 2 77v18q0 2 3 41l12 83q4 26 35 75q12 18 27 33q30 32 66 33q11 1 26 -2q13 -4 18 -16q3 -13 -7 -23l-1 -1q-10 -10 -16 -14q-20 -10 -37 -34q-28 -39 -38 -63q-10 -21 -10 -53q-1 -3 -1 -9q0 -16 -1 -24q-2 -9 -7 -61v-14q-2 -9 0 -22q2 -18 -1 -41q-2 -8 -1 -12 q2 -22 -15 -54q-14 -26 -29 -46l-2 -2q0 -1 2 -3q52 -49 34 -129q-1 -4 -15 -46l-6 -14q-4 -11 -11 -18q-9 -9 -15 -28l-9 -30q-12 -34 -15 -52q-10 -62 12 -123q2 -4 5 -7q2 -2 3 -4l3 -4q8 -11 9 -13q6 -17 38 -41l7 -5q8 -7 24 -10q16 -2 29 -22l1 -1q3 -7 1 -13 q-1 -7 -9 -11q-15 -7 -30 -7h-5z" glyph-name="braceleft" horiz-adv-x="279" unicode="{"/><glyph d="M51 -96q-1 0 -3 0.5t-3 0.5q-16 3 -15 19l2 26q3 42 8 245q0 21 -3.5 72.5t-1.5 79.5q1 13 5.5 70t5.5 79.5t3 67t0.5 80t-5.5 70.5q-12 111 -11 193q1 38 26 38q25 -1 41 -29q7 -14 8 -29q1 -5 1 -15q1 -16 6.5 -69t5.5 -81q1 -16 1 -47.5v-47.5q2 -52 -4.5 -199.5 t1.5 -199.5q10 -92 -20 -290q-6 -30 -26 -34q-9 -1 -22 0z" glyph-name="bar" horiz-adv-x="153" unicode="|"/><glyph d="M49 -150q-4 0 -10 2q-13 7 -7 25q0 1 0.5 2.5t0.5 2.5q3 29 13 48q3 7 10 21.5t10 21.5q22 49 25 90q2 22 4 31q0 2 0.5 7t0.5 7q2 14 -3 30q-1 3 -22 60l-7 17q-28 72 -29 125q-1 34 24 65q6 7 3 16q-24 70 1 143q27 83 36 150q3 19 3 58v15v37q0 4 -0.5 10.5t-0.5 9.5 q0 13 -5 19q-7 11 -10 24q-4 15 -7 19l-3 5q-7 12 -12 16q-15 11 -15 27q2 12 14 14t36 -3q12 -3 20 -14q6 -9 7 -10q12 -18 16 -28q30 -64 27 -116v-29v-18v-8q0 -50 -9 -83v-2q0 -39 -22 -105q-8 -24 -11 -37l-1 -3q-8 -30 -9 -35t1 -13v-4q0 -1 1 -3t1 -3q2 -6 2 -11 q0 -13 10 -23q8 -9 9 -16q9 -24 -14 -33q-26 -12 -26 -43q0 -25 8 -50q14 -51 28 -83q7 -15 20 -55l6 -21q10 -32 6 -70q-7 -45 -19 -78q-3 -10 -13 -25l-3 -5q-1 -2 -4.5 -8t-4.5 -9q-6 -18 -29 -45l-9 -11q-6 -8 -16 -11q-1 0 -2.5 -0.5t-2.5 -1.5q-13 -5 -17 -5z" glyph-name="braceright" horiz-adv-x="200" unicode="}"/><glyph d="M195 697q-32 -6 -47.5 10t-10 39t26.5 37q13 7 25 9q24 3 36.5 -18.5t4 -46.5t-34.5 -30zM76 -61q-15 0 -28 11t-16 29q-4 16 -0.5 35.5t11.5 43.5t10 36q12 67 30 193t28 183q16 83 22 101q27 85 65 35q15 -20 6 -74q-4 -26 -21 -76.5t-21 -75.5q-30 -197 -50 -374 l-3 -26q-4 -39 -33 -41z" glyph-name="exclamdown" horiz-adv-x="262" unicode=""/><glyph d="M193 848q-24 -3 -36.5 18.5t-4 46.5t34.5 30q32 6 48 -10t10.5 -39t-27.5 -36q-12 -8 -25 -10zM341 848q-24 -3 -36.5 18.5t-4 46.5t35.5 30q32 6 47.5 -10t10 -39t-27.5 -36q-13 -8 -25 -10z" glyph-name="dieresis" horiz-adv-x="544" unicode=""/><glyph d="M245 170q-13 0 -22 6t-19 11q-28 16 -41 28l-1 1q-18 7 -50 30q-2 2 -22 16q-24 15 -39 28q-3 2 -9 6.5t-9 6.5q-5 3 -13 9l-4 2q-26 18 -11 46q10 16 26 25q45 24 86 59q1 0 1 1l2 1q21 12 47 35q31 24 41 31q2 1 6 5l6 6l3 2q13 10 17 12q10 7 21 7q20 0 31 -22 q5 -11 -1 -19l-6 -9q-16 -27 -31 -37q-4 -3 -11 -8t-9 -6q-4 -3 -11.5 -8.5t-13.5 -10t-11 -8.5q-16 -13 -50 -35q-26 -17 -43 -30q-1 -1 -5 -4.5t-5 -4.5q2 -2 11 -7q6 -4 74 -49l6 -5q24 -16 55 -26q23 -7 35 -18q24 -19 12 -43t-41 -24h-2zM483 170q-13 0 -22 6t-19 11 q-28 16 -41 28l-1 1q-18 7 -50 30q-8 6 -22 16q-24 15 -39 28q-3 2 -9.5 6.5t-9.5 6.5q-8 6 -13 9l-3 2q-26 18 -11 46q10 16 26 25q45 24 86 59q1 0 1 1l2 1q21 12 47 35q36 27 41 31q2 1 6 5l6 6l3 2q13 11 16 12q11 7 22 7q20 0 30 -22q6 -10 0 -19l-6 -9 q-20 -29 -31 -37q-3 -2 -10 -7t-10 -7l-36 -27q-16 -13 -50 -35q-26 -17 -43 -30q-1 -1 -5 -4.5t-5 -4.5q2 -2 11 -7q22 -14 73 -49l7 -5q24 -16 55 -26q23 -7 35 -18q22 -20 12 -43q-12 -24 -41 -24h-2z" glyph-name="guillemotleft" horiz-adv-x="532" unicode=""/><glyph d="M186 737q-8 0 -14 3q-22 10 -22 30q0 10 8 18l19 19q7 8 23 24q3 4 9 10q25 28 26 29q15 18 38 26q1 0 2 1q12 3 17 1q4 -2 6 -4q10 -10 7 -23q-1 -2 -1 -5l-2 -7l-2 -1q-6 -5 -13 -15q-5 -11 -13 -17l-1 -1q-1 -2 -2 -3q-26 -21 -62 -73q-9 -12 -23 -12z" glyph-name="acute" horiz-adv-x="456" unicode=""/><glyph d="M43 257q-24 -3 -36.5 18.5t-4 46.5t34.5 30q32 6 47.5 -10t10 -39t-26.5 -37q-13 -9 -25 -9z" glyph-name="periodcentered" horiz-adv-x="96" unicode=""/><glyph d="M271 165q-20 0 -31 22q-5 11 1 19l6 9q16 27 31 37q4 3 11 8t9 6q4 3 11.5 8.5t13.5 10t11 8.5q16 13 50 35q26 17 43 30q1 1 5 4.5t5 4.5q-2 2 -11 7q-7 4 -74 49l-6 5q-24 16 -55 26q-23 7 -35 18q-24 19 -12 43t41 24h2q13 0 22 -6t19 -11q28 -16 41 -28l1 -1 q18 -7 50 -30q2 -2 22 -16q24 -15 39 -28q3 -2 9 -6.5t9 -6.5q5 -3 13 -9l4 -2q26 -18 11 -46q-10 -16 -26 -25q-45 -24 -86 -59l-1 -1q-2 0 -2 -1q-21 -12 -47 -35q-31 -24 -41 -31q-2 -1 -6 -5l-6 -6l-3 -2q-13 -10 -17 -12q-10 -7 -21 -7zM33 165q-20 0 -30 22 q-6 10 0 19l6 9q20 29 31 37q3 3 10 7.5t10 6.5q4 3 11.5 8.5t13.5 10t11 8.5q16 13 50 35q26 17 43 30q1 1 5 4.5t5 4.5q-2 2 -11 7q-22 14 -73 49l-7 5q-24 16 -55 26q-23 7 -35 18q-22 20 -12 43q12 24 41 24h2q13 0 22 -6t19 -11q28 -16 41 -28l1 -1q18 -7 50 -30 q8 -6 22 -16q24 -15 39 -28q3 -2 9.5 -6.5t9.5 -6.5q8 -6 13 -9l3 -2q26 -18 11 -46q-10 -16 -26 -25q-45 -24 -86 -59l-1 -1q-2 0 -2 -1q-21 -12 -47 -35q-36 -28 -41 -31q-2 -1 -6 -5l-6 -6l-3 -2q-13 -11 -16 -12q-11 -7 -22 -7z" glyph-name="guillemotright" horiz-adv-x="532" unicode=""/><glyph d="M308 733q-23 -11 -38 8q-2 3 -11 18q-11 19 0 36q9 15 9 35q0 9 6.5 15t16.5 6h4q27 -3 44 -20q18 -15 13 -35q-3 -45 -44 -63zM121 -192q-47 0 -79 26.5t-37 69.5q-2 14 -2 20q-2 14 -2 21q-3 26 13 58q12 20 17 43q2 8 9 22l10 20q22 44 38 64q31 41 52 82q10 20 15 29 q4 6 14 26q4 7 19 41q28 67 31 74l5 12q0 1 1.5 5t1.5 6q15 79 21 127q0 6 2 18q4 30 4 43q0 14 7 21q7 6 17 6q3 0 13 -2l10 -3l5 -2q24 -7 30 -33v-1q7 -36 5 -51q-6 -76 -16 -132q-6 -31 -18 -61q-19 -48 -40 -81q-22 -34 -32 -51l-1 -1l-12 -21q-30 -47 -71 -92 q-42 -45 -73 -108q-8 -15 -30 -69q-4 -10 0 -28q0 -4 4 -12l3 -8q6 -18 32 -30q8 -3 28 -5q8 0 12 -1q4 0 8 2l11 8q42 32 54 51q37 53 52 94l6 18q13 34 16 48l2 6q4 16 5 24q1 13 8 33q6 19 30 19h1q44 -2 49 -42q2 -12 0 -23v-10q3 -55 -28 -113q-11 -24 -12 -28l-1 -2 q-15 -34 -41 -53l-16 -11l-35 -25q-21 -14 -60 -26q-4 -1 -12 -3.5t-12 -4.5l-2 -1q-15 -3 -29 -3z" glyph-name="questiondown" horiz-adv-x="370" unicode=""/><glyph d="M386 -133q-3 0 -17 2q-31 6 -36 36q-10 56 -2 151q3 32 15 89q11 64 13 87q2 12 2 17q-1 -3 -13 -28.5t-18 -39.5l-2 -3q-56 -130 -100 -193q-16 -25 -48 -44q-22 -14 -61 -14q-27 0 -48.5 18.5t-27.5 42.5q-17 58 -12 115l3 29q0 11 1.5 34.5t2.5 35.5q1 13 11 62l3 13 q10 43 20 72q4 14 13 35l6 13q24 48 31 59l2 4q33 56 60 82q10 10 22 19q2 2 6.5 5.5t8 6.5t6.5 6q17 19 50 32q69 26 105 -41q15 -29 11 -71q-3 -27 -20 -95l-8 -29q-1 -6 -6 -13q-5 -8 -15 -8q-14 0 -17 11q-3 6 -3 14q-1 18 10 47q16 45 18 95q0 17 -15 45v1q-3 5 -10 9 q-12 8 -22 -1q-16 -14 -28 -36q-63 -111 -79 -141q-23 -43 -31 -70l-6 -22q-28 -111 -32 -135q-15 -83 -6 -132q2 -10 2 -29v-3q0 -11 9 -24q6 -7 8 -7q3 0 11 2q28 5 53 43q28 41 42 74l45 105l10 21q5 12 12 24q17 27 45 99l4 9q3 9 8 20q2 5 5.5 14.5t5.5 13.5 q18 48 58 160l6 23q1 2 2 5t1 5q4 14 16.5 24t28.5 10q9 0 16 -3q26 -12 23 -38q-4 -19 -8 -26q-13 -21 -30 -80l-2 -7q-15 -56 -37 -159q-23 -106 -23 -194q0 -19 -4 -59q-4 -32 -6 -100q0 -3 0.5 -10.5t0.5 -11.5q1 -8 1 -25q0 -48 -40 -48zM69 192l3 3q0 3 0.5 10t0.5 11 q1 2 -2.5 4t-6.5 1v-2q-5 -13 -2 -22q1 -1 3.5 -2.5t3.5 -2.5zM72 -4q0 1 1 3l1 2q-2 19 -3 21q-10 34 -4 69l3 22v34q-1 5 -1.5 16.5t-0.5 17.5q0 1 -2 6l-3 -3l-2 -1q-1 0 -1 -1v-2l-3 -46q-3 -25 -1 -55q2 -33 5 -49q2 -3 2 -9l2 -21zM284 824q-1 0 -2.5 0.5t-2.5 0.5 l-7 2l-1 2q-6 7 -15 12q-12 8 -17 13l-4 4q-21 26 -73 62q-12 9 -12 23q0 8 3 14q10 22 31 22q8 0 17 -9q7 -6 19 -18q7 -7 25 -23q6 -6 9 -10q28 -25 29 -26q18 -14 26 -37q0 -2 1 -3q3 -12 1 -17q-1 -2 -4 -5q-10 -10 -23 -7z" glyph-name="Agrave" horiz-adv-x="534" unicode=""/><glyph d="M386 -133q-3 0 -17 2q-31 6 -36 36q-10 56 -2 151q3 32 15 89q11 64 13 87q2 12 2 17q-1 -3 -13 -28.5t-18 -39.5l-2 -3q-56 -130 -100 -193q-16 -25 -48 -44q-22 -14 -61 -14q-27 0 -48.5 18.5t-27.5 42.5q-17 58 -12 115l3 29q0 11 1.5 34.5t2.5 35.5q1 13 11 62l3 13 q10 43 20 72q4 14 13 35l6 13q24 48 31 59l2 4q33 56 60 82q10 10 22 19q2 2 6.5 5.5t8 6.5t6.5 6q17 19 50 32q69 26 105 -41q15 -29 11 -71q-3 -27 -20 -95l-8 -29q-1 -6 -6 -13q-5 -8 -15 -8q-14 0 -17 11q-3 6 -3 14q-1 18 10 47q16 45 18 95q0 17 -15 45v1q-3 5 -10 9 q-12 8 -22 -1q-16 -14 -28 -36q-63 -111 -79 -141q-23 -43 -31 -70l-6 -22q-28 -111 -32 -135q-15 -83 -6 -132q2 -10 2 -29v-3q0 -11 9 -24q6 -7 8 -7q3 0 11 2q28 5 53 43q28 41 42 74l45 105l10 21q5 12 12 24q17 27 45 99l4 9q3 9 8 20q2 5 5.5 14.5t5.5 13.5 q18 48 58 160l6 23q1 2 2 5t1 5q4 14 16.5 24t28.5 10q9 0 16 -3q26 -12 23 -38q-4 -19 -8 -26q-13 -21 -30 -80l-2 -7q-15 -56 -37 -159q-23 -106 -23 -194q0 -19 -4 -59q-4 -32 -6 -100q0 -3 0.5 -10.5t0.5 -11.5q1 -8 1 -25q0 -48 -40 -48zM69 192l3 3q0 3 0.5 10t0.5 11 q1 2 -2.5 4t-6.5 1v-2q-5 -13 -2 -22q1 -1 3.5 -2.5t3.5 -2.5zM72 -4q0 1 1 3l1 2q-2 19 -3 21q-10 34 -4 69l3 22v34q-1 5 -1.5 16.5t-0.5 17.5q0 1 -2 6l-3 -3l-2 -1q-1 0 -1 -1v-2l-3 -46q-3 -25 -1 -55q2 -33 5 -49q2 -3 2 -9l2 -21zM186 737q-8 0 -14 3q-22 10 -22 30 q0 10 8 18l19 19q7 8 23 24q3 4 9 10q25 28 26 29q15 18 38 26q1 0 2 1q12 3 17 1q4 -2 6 -4q10 -10 7 -23q-1 -2 -1 -5l-2 -7l-2 -1q-6 -5 -13 -15q-5 -11 -13 -17l-1 -1q-1 -2 -2 -3q-26 -21 -62 -73q-9 -12 -23 -12z" glyph-name="Aacute" horiz-adv-x="534" unicode=""/><glyph d="M386 -133q-3 0 -17 2q-31 6 -36 36q-10 56 -2 151q3 32 15 89q11 64 13 87q2 12 2 17q-1 -3 -13 -28.5t-18 -39.5l-2 -3q-56 -130 -100 -193q-16 -25 -48 -44q-22 -14 -61 -14q-27 0 -48.5 18.5t-27.5 42.5q-17 58 -12 115l3 29q0 11 1.5 34.5t2.5 35.5q1 13 11 62l3 13 q10 43 20 72q4 14 13 35l6 13q24 48 31 59l2 4q33 56 60 82q10 10 22 19q2 2 6.5 5.5t8 6.5t6.5 6q17 19 50 32q69 26 105 -41q15 -29 11 -71q-3 -27 -20 -95l-8 -29q-1 -6 -6 -13q-5 -8 -15 -8q-14 0 -17 11q-3 6 -3 14q-1 18 10 47q16 45 18 95q0 17 -15 45v1q-3 5 -10 9 q-12 8 -22 -1q-16 -14 -28 -36q-63 -111 -79 -141q-23 -43 -31 -70l-6 -22q-28 -111 -32 -135q-15 -83 -6 -132q2 -10 2 -29v-3q0 -11 9 -24q6 -7 8 -7q3 0 11 2q28 5 53 43q28 41 42 74l45 105l10 21q5 12 12 24q17 27 45 99l4 9q3 9 8 20q2 5 5.5 14.5t5.5 13.5 q18 48 58 160l6 23q1 2 2 5t1 5q4 14 16.5 24t28.5 10q9 0 16 -3q26 -12 23 -38q-4 -19 -8 -26q-13 -21 -30 -80l-2 -7q-15 -56 -37 -159q-23 -106 -23 -194q0 -19 -4 -59q-4 -32 -6 -100q0 -3 0.5 -10.5t0.5 -11.5q1 -8 1 -25q0 -48 -40 -48zM69 192l3 3q0 3 0.5 10t0.5 11 q1 2 -2.5 4t-6.5 1v-2q-5 -13 -2 -22q1 -1 3.5 -2.5t3.5 -2.5zM72 -4q0 1 1 3l1 2q-2 19 -3 21q-10 34 -4 69l3 22v34q-1 5 -1.5 16.5t-0.5 17.5q0 1 -2 6l-3 -3l-2 -1q-1 0 -1 -1v-2l-3 -46q-3 -25 -1 -55q2 -33 5 -49q2 -3 2 -9l2 -21zM184 793q-8 0 -13 7q-2 3 -6 7 q-14 16 -15 30q0 18 3 27q19 46 65 115q6 8 9 11l2 3q10 12 25 5l6 -2q22 -11 29 -18q51 -45 63 -91q1 -4 11 -27q1 -1 2.5 -4t2.5 -5.5t2 -4.5q5 -12 -4 -21q-10 -5 -11 -5q-3 0 -7 2q-11 6 -15 17q-2 4 -4.5 12t-3.5 11l-2 6q-14 38 -44 71q-1 -2 -4 -6.5t-4 -6.5 q-19 -45 -42 -73q-11 -13 -27 -43l-4 -8q-5 -9 -14 -9z" glyph-name="Acircumflex" horiz-adv-x="534" unicode=""/><glyph d="M386 -133q-3 0 -17 2q-31 6 -36 36q-10 56 -2 151q3 32 15 89q11 64 13 87q2 12 2 17q-1 -3 -13 -28.5t-18 -39.5l-2 -3q-56 -130 -100 -193q-16 -25 -48 -44q-22 -14 -61 -14q-27 0 -48.5 18.5t-27.5 42.5q-17 58 -12 115l3 29q0 11 1.5 34.5t2.5 35.5q1 13 11 62l3 13 q10 43 20 72q4 14 13 35l6 13q24 48 31 59l2 4q33 56 60 82q10 10 22 19q2 2 6.5 5.5t8 6.5t6.5 6q17 19 50 32q69 26 105 -41q15 -29 11 -71q-3 -27 -20 -95l-8 -29q-1 -6 -6 -13q-5 -8 -15 -8q-14 0 -17 11q-3 6 -3 14q-1 18 10 47q16 45 18 95q0 17 -15 45v1q-3 5 -10 9 q-12 8 -22 -1q-16 -14 -28 -36q-63 -111 -79 -141q-23 -43 -31 -70l-6 -22q-28 -111 -32 -135q-15 -83 -6 -132q2 -10 2 -29v-3q0 -11 9 -24q6 -7 8 -7q3 0 11 2q28 5 53 43q28 41 42 74l45 105l10 21q5 12 12 24q17 27 45 99l4 9q3 9 8 20q2 5 5.5 14.5t5.5 13.5 q18 48 58 160l6 23q1 2 2 5t1 5q4 14 16.5 24t28.5 10q9 0 16 -3q26 -12 23 -38q-4 -19 -8 -26q-13 -21 -30 -80l-2 -7q-15 -56 -37 -159q-23 -106 -23 -194q0 -19 -4 -59q-4 -32 -6 -100q0 -3 0.5 -10.5t0.5 -11.5q1 -8 1 -25q0 -48 -40 -48zM69 192l3 3q0 3 0.5 10t0.5 11 q1 2 -2.5 4t-6.5 1v-2q-5 -13 -2 -22q1 -1 3.5 -2.5t3.5 -2.5zM72 -4q0 1 1 3l1 2q-2 19 -3 21q-10 34 -4 69l3 22v34q-1 5 -1.5 16.5t-0.5 17.5q0 1 -2 6l-3 -3l-2 -1q-1 0 -1 -1v-2l-3 -46q-3 -25 -1 -55q2 -33 5 -49q2 -3 2 -9l2 -21zM179 840h-1l-2 1q-12 2 -19.5 11 t-6.5 21q11 46 39 64q37 23 89 8q26 -6 36 1q11 8 11 24q1 11 9.5 19t20.5 8q33 1 26 -35q-7 -37 -42 -63q-22 -17 -44 -15q-8 0 -24 3.5t-24 4.5q-15 1 -24 -7t-12.5 -18t-11.5 -18.5t-20 -8.5z" glyph-name="Atilde" horiz-adv-x="534" unicode=""/><glyph d="M386 -133q-3 0 -17 2q-31 6 -36 36q-10 56 -2 151q3 32 15 89q11 64 13 87q2 12 2 17q-1 -3 -13 -28.5t-18 -39.5l-2 -3q-56 -130 -100 -193q-16 -25 -48 -44q-22 -14 -61 -14q-27 0 -48.5 18.5t-27.5 42.5q-17 58 -12 115l3 29q0 11 1.5 34.5t2.5 35.5q1 13 11 62l3 13 q10 43 20 72q4 14 13 35l6 13q24 48 31 59l2 4q33 56 60 82q10 10 22 19q2 2 6.5 5.5t8 6.5t6.5 6q17 19 50 32q69 26 105 -41q15 -29 11 -71q-3 -27 -20 -95l-8 -29q-1 -6 -6 -13q-5 -8 -15 -8q-14 0 -17 11q-3 6 -3 14q-1 18 10 47q16 45 18 95q0 17 -15 45v1q-3 5 -10 9 q-12 8 -22 -1q-16 -14 -28 -36q-63 -111 -79 -141q-23 -43 -31 -70l-6 -22q-28 -111 -32 -135q-15 -83 -6 -132q2 -10 2 -29v-3q0 -11 9 -24q6 -7 8 -7q3 0 11 2q28 5 53 43q28 41 42 74l45 105l10 21q5 12 12 24q17 27 45 99l4 9q3 9 8 20q2 5 5.5 14.5t5.5 13.5 q18 48 58 160l6 23q1 2 2 5t1 5q4 14 16.5 24t28.5 10q9 0 16 -3q26 -12 23 -38q-4 -19 -8 -26q-13 -21 -30 -80l-2 -7q-15 -56 -37 -159q-23 -106 -23 -194q0 -19 -4 -59q-4 -32 -6 -100q0 -3 0.5 -10.5t0.5 -11.5q1 -8 1 -25q0 -48 -40 -48zM69 192l3 3q0 3 0.5 10t0.5 11 q1 2 -2.5 4t-6.5 1v-2q-5 -13 -2 -22q1 -1 3.5 -2.5t3.5 -2.5zM72 -4q0 1 1 3l1 2q-2 19 -3 21q-10 34 -4 69l3 22v34q-1 5 -1.5 16.5t-0.5 17.5q0 1 -2 6l-3 -3l-2 -1q-1 0 -1 -1v-2l-3 -46q-3 -25 -1 -55q2 -33 5 -49q2 -3 2 -9l2 -21zM193 848q-24 -3 -36.5 18.5t-4 46.5 t34.5 30q32 6 48 -10t10.5 -39t-27.5 -36q-12 -8 -25 -10zM341 848q-24 -3 -36.5 18.5t-4 46.5t35.5 30q32 6 47.5 -10t10 -39t-27.5 -36q-13 -8 -25 -10z" glyph-name="Adieresis" horiz-adv-x="534" unicode=""/><glyph d="M386 -133q-3 0 -17 2q-31 6 -36 36q-10 56 -2 151q3 32 15 89q11 64 13 87q2 12 2 17q-1 -3 -13 -28.5t-18 -39.5l-2 -3q-56 -130 -100 -193q-16 -25 -48 -44q-22 -14 -61 -14q-27 0 -48.5 18.5t-27.5 42.5q-17 58 -12 115l3 29q0 11 1.5 34.5t2.5 35.5q1 13 11 62l3 13 q10 43 20 72q4 14 13 35l6 13q24 48 31 59l2 4q33 56 60 82q10 10 22 19q2 2 6.5 5.5t8 6.5t6.5 6q17 19 50 32q69 26 105 -41q15 -29 11 -71q-3 -27 -20 -95l-8 -29q-1 -6 -6 -13q-5 -8 -15 -8q-14 0 -17 11q-3 6 -3 14q-1 18 10 47q16 45 18 95q0 17 -15 45v1q-3 5 -10 9 q-12 8 -22 -1q-16 -14 -28 -36q-63 -111 -79 -141q-23 -43 -31 -70l-6 -22q-28 -111 -32 -135q-15 -83 -6 -132q2 -10 2 -29v-3q0 -11 9 -24q6 -7 8 -7q3 0 11 2q28 5 53 43q28 41 42 74l45 105l10 21q5 12 12 24q17 27 45 99l4 9q3 9 8 20q2 5 5.5 14.5t5.5 13.5 q18 48 58 160l6 23q1 2 2 5t1 5q4 14 16.5 24t28.5 10q9 0 16 -3q26 -12 23 -38q-4 -19 -8 -26q-13 -21 -30 -80l-2 -7q-15 -56 -37 -159q-23 -106 -23 -194q0 -19 -4 -59q-4 -32 -6 -100q0 -3 0.5 -10.5t0.5 -11.5q1 -8 1 -25q0 -48 -40 -48zM69 192l3 3q0 3 0.5 10t0.5 11 q1 2 -2.5 4t-6.5 1v-2q-5 -13 -2 -22q1 -1 3.5 -2.5t3.5 -2.5zM72 -4q0 1 1 3l1 2q-2 19 -3 21q-10 34 -4 69l3 22v34q-1 5 -1.5 16.5t-0.5 17.5q0 1 -2 6l-3 -3l-2 -1q-1 0 -1 -1v-2l-3 -46q-3 -25 -1 -55q2 -33 5 -49q2 -3 2 -9l2 -21zM222 815q-40 -5 -60.5 31.5t-7 78.5 t58.5 50q54 10 80 -16.5t16.5 -65.5t-45.5 -62q-21 -13 -42 -16zM227 858q10 2 20 8q17 11 21.5 29.5t-8 31t-38.5 7.5q-13 -3 -20.5 -12t-8.5 -20t2 -21.5t12 -17t20 -5.5z" glyph-name="Aring" horiz-adv-x="534" unicode=""/><glyph d="M863 644q3 -8 0 -15q-3 -10 -14 -13l-31 -12q-53 -21 -92 -31l-11 -3q-64 -15 -101 -29q-4 -2 -7 -2l-8 -3q-14 -5 -15 -22q-4 -25 -15 -77l-15 -63q-7 -40 -22 -91l-1 -3q-4 -14 -3 -20q0 -3 -3 -24q-3 -8 -3 -15v-1q17 0 42 9q3 0 8 1.5t7 2.5l58 16q14 4 50 13.5 t56 15.5h4q10 0 16 -7q9 -16 -5 -26q-7 -5 -15 -8q-37 -12 -85 -23q-28 -4 -88 -26q-6 -2 -10 -4q-28 -10 -39 -11q-8 -1 -8 -8q-1 -13 -7 -37q-4 -16 -6 -33q-6 -46 -20 -98q-11 -46 -8 -81q10 -1 25 3q32 10 104 27q52 12 77 20l16 4q12 4 19 6q8 2 16 0q11 -2 14 -14 q2 -12 -8 -19q-3 -2 -8.5 -4t-6.5 -3q-13 -4 -52 -13l-13 -3q-40 -10 -77 -21q-6 -2 -16.5 -4.5t-14.5 -3.5q-9 -4 -17 -5q-26 -8 -39 -11q-16 -2 -24 -2q-26 0 -47 12q-9 -18 -34 -18q-3 0 -17 2q-31 6 -36 36q-10 56 -2 151q3 32 15 89q11 64 13 87q2 12 2 17 q-1 -3 -13 -28.5t-18 -39.5l-2 -3q-56 -130 -100 -193q-16 -25 -48 -44q-22 -14 -61 -14q-27 0 -48.5 18.5t-27.5 42.5q-17 58 -12 115l3 29q0 11 1.5 34.5t2.5 35.5q1 13 11 62l3 13q10 43 20 72q4 14 13 35l6 13q24 48 31 59l2 4q33 56 60 82q10 10 22 19q2 2 6.5 5.5 t8 6.5t6.5 6q17 19 50 32q69 26 105 -41q15 -29 11 -71q-3 -27 -20 -95l-8 -29q-1 -6 -6 -13q-5 -8 -15 -8q-14 0 -17 11q-3 6 -3 14q-1 18 10 47q16 45 18 95q0 17 -15 45v1q-3 5 -10 9q-12 8 -22 -1q-16 -14 -28 -36q-63 -111 -79 -141q-23 -43 -31 -70l-6 -22 q-28 -111 -32 -135q-15 -83 -6 -132q2 -10 2 -29v-3q0 -11 9 -24q6 -7 8 -7q3 0 11 2q28 5 53 43q28 41 42 74l45 105l10 21q5 12 12 24q17 27 45 99l4 9q3 9 8 20q2 5 5.5 14.5t5.5 13.5q18 48 58 160l6 23q1 2 2 5t1 5q4 14 16.5 24t28.5 10q9 0 16 -3q26 -12 23 -38 q-4 -19 -8 -26q-2 -2 -7 -13q7 2 28 10q48 21 133 47q32 10 48 16l38 12q32 10 48 14l18 6l7 1q2 0 3.5 0.5t2.5 0.5q13 0 18 -11zM484 304q-11 2 -1 9q2 2 2 5l-8 8q-4 -6 -4 -8q-2 -8 -6.5 -30.5t-6.5 -34.5q-8 -47 -22 -141q-1 -8 -9 -57q0 -3 -0.5 -8t-0.5 -7h1 q-1 -5 -1 -15t-1 -15q0 -1 3 -4q4 2 5 4t1 11q1 7 2.5 20t2.5 20q0 2 0.5 4.5t0.5 3.5q-3 16 7 40q2 13 1 18q-5 23 8 38q4 4 4 11q-10 27 8 61q2 6 1 10q-6 21 12 52zM64 219q-5 -13 -2 -22q1 -1 3.5 -2.5t3.5 -2.5l3 3q0 3 0.5 10t0.5 11q1 2 -2.5 4t-6.5 1v-2zM72 -4 q0 1 1 3l1 2q-2 19 -3 21q-10 34 -4 69l3 22v34q-1 5 -1.5 16.5t-0.5 17.5q0 1 -2 6l-3 -3l-2 -1q-1 0 -1 -1v-2l-3 -46q-3 -25 -1 -55q2 -33 5 -49q2 -3 2 -9l2 -21z" glyph-name="AE" horiz-adv-x="600" unicode=""/><glyph d="M326 607q61 -34 48 -115q-3 -19 -9 -34l-4 -9q-24 -61 -39 -85q-12 -17 -17 -22q-12 -12 -23 -5q-13 9 -7 26l4 8q13 18 31 60l5 14q21 47 16 94q-2 12 -4 13q-26 28 -50 33q-19 4 -31 -13q-6 -7 -16 -30l-6 -14q-8 -16 -17 -43q-4 -9 -7 -20l-10 -26l-18 -49l-9 -27 q-2 -4 -7 -19l-3 -11q-9 -23 -14 -30q0 -1 -3 -11q0 -3 -2 -13q-19 -56 -28 -131q-7 -58 -8 -102v-20q0 -51 5 -74q11 -46 19 -67l3 -6q1 -3 2 -4q8 -13 18 -13q4 0 12 4q46 21 62 68q3 9 36 100l11 32q2 5 8 11q7 5 16 4q10 -4 11 -11q3 -10 -1 -26q-8 -25 -16 -43l-4 -12 l-6 -17q-2 -6 -6.5 -18.5t-6.5 -18.5q-9 -31 -32 -66q-16 -27 -41 -40q-7 -5 -19 -8l-5 -45h1q35 -5 52 -23q17 -17 14 -46q-4 -28 -25 -41q-14 -8 -34 -8q-8 0 -22 2q-25 5 -28 8q-9 4 -13 12.5t0 17.5q8 20 30 13q32 -13 44 -5q2 1 3 6q0 7 -2 9q-7 7 -24 9l-20 1 q-12 0 -18 7q-8 8 -6 19l7 62q-2 1 -5 1.5t-5 0.5q-24 7 -54 41l-6 7q-7 8 -17 26l-3 6q-14 26 -23 65q-13 59 -9 112q7 98 13 140q12 77 43 175q18 61 45 111q35 64 83 93q32 21 52 26q16 5 34 5q32 0 52 -19zM148 513q2 2 -0.5 5t-6.5 2l-2 -1q-11 -13 -10 -20 q1 -2 3 -4.5t3 -3.5q4 2 5 2q1 4 4 10.5t4 9.5zM130 481q1 1 -1 7l-6 -2q-1 0 -1 -1.5t-1 -1.5q-4 -7 -11 -21t-11 -21q-16 -34 -21 -51q-9 -26 -12 -49q0 -2 -2 -8l-5 -21l5 -6q5 2 5 4q4 14 5 21q2 38 21 66q2 3 6 10.5t5 9.5q3 5 7 16t6 16q1 4 5 15t6 17z" glyph-name="Ccedilla" horiz-adv-x="376" unicode=""/><glyph d="M105 -138q-26 0 -47 12q-14 8 -18 19q-13 39 -9 76q8 67 24 131q4 14 7 36q4 37 14 85q16 71 19 101q4 44 17 88q14 47 18 76q-15 -3 -30 -3h-3q-9 0 -17 3q-12 4 -12 15q-1 10 6 17q10 10 28 10h2q36 0 81 19q48 21 133 47q32 10 48 16l38 12q32 10 48 14l18 6l7 1 q2 0 3.5 0.5t2.5 0.5q13 0 18 -11q3 -7 0 -15q-3 -10 -14 -13l-31 -12q-53 -21 -92 -31l-11 -3q-64 -15 -101 -29q-4 -2 -7 -2l-8 -3q-14 -5 -15 -22q-4 -25 -15 -77l-15 -63q-7 -40 -22 -91l-1 -3q-4 -14 -3 -20q0 -3 -3 -24q-3 -7 -3 -15v-1q17 0 42 9q3 0 8 2t7 2l58 16 q14 4 50 13.5t56 15.5h4q10 0 16 -7q9 -16 -5 -26q-7 -5 -15 -8q-37 -12 -85 -23q-28 -4 -88 -26q-6 -2 -10 -4q-29 -9 -39 -11q-8 -1 -8 -8q-1 -13 -7 -37q-4 -17 -6 -33q-6 -46 -20 -98q-11 -46 -8 -81q10 -1 25 3q32 10 104 27q52 12 77 20l16 4q12 4 19 6q8 2 16 0 q11 -2 14 -14q2 -12 -8 -19q-3 -2 -8.5 -4t-6.5 -3q-13 -4 -52 -13l-13 -3q-40 -10 -77 -21q-6 -2 -16.5 -4.5t-14.5 -3.5q-9 -4 -17 -5q-26 -8 -39 -11q-16 -2 -24 -2zM68 -5q4 2 5 4t1 11q1 7 2.5 20t2.5 20q0 2 0.5 4.5t0.5 3.5q-3 16 7 40q2 13 1 18q-5 23 8 38 q4 4 4 11q-10 27 8 61q2 6 1 10q-6 21 12 52l1 5q-11 2 -1 9q2 2 2 5l-8 8q-4 -6 -4 -8q-2 -8 -6.5 -30.5t-6.5 -34.5q-8 -47 -22 -141q-2 -13 -6 -37t-5 -35h2q-1 -5 -1 -15t-1 -15q0 -1 3 -4zM284 824q-1 0 -2.5 0.5t-2.5 0.5l-7 2l-1 2q-6 7 -15 12q-12 8 -17 13l-4 4 q-21 26 -73 62q-12 9 -12 23q0 8 3 14q10 22 31 22q8 0 17 -9q7 -6 19 -18q7 -7 25 -23q6 -6 9 -10q28 -25 29 -26q18 -14 26 -37q0 -2 1 -3q3 -12 1 -17q-1 -2 -4 -5q-10 -10 -23 -7z" glyph-name="Egrave" horiz-adv-x="533" unicode=""/><glyph d="M105 -138q-26 0 -47 12q-14 8 -18 19q-13 39 -9 76q8 67 24 131q4 14 7 36q4 37 14 85q16 71 19 101q4 44 17 88q14 47 18 76q-15 -3 -30 -3h-3q-9 0 -17 3q-12 4 -12 15q-1 10 6 17q10 10 28 10h2q36 0 81 19q48 21 133 47q32 10 48 16l38 12q32 10 48 14l18 6l7 1 q2 0 3.5 0.5t2.5 0.5q13 0 18 -11q3 -7 0 -15q-3 -10 -14 -13l-31 -12q-53 -21 -92 -31l-11 -3q-64 -15 -101 -29q-4 -2 -7 -2l-8 -3q-14 -5 -15 -22q-4 -25 -15 -77l-15 -63q-7 -40 -22 -91l-1 -3q-4 -14 -3 -20q0 -3 -3 -24q-3 -7 -3 -15v-1q17 0 42 9q3 0 8 2t7 2l58 16 q14 4 50 13.5t56 15.5h4q10 0 16 -7q9 -16 -5 -26q-7 -5 -15 -8q-37 -12 -85 -23q-28 -4 -88 -26q-6 -2 -10 -4q-29 -9 -39 -11q-8 -1 -8 -8q-1 -13 -7 -37q-4 -17 -6 -33q-6 -46 -20 -98q-11 -46 -8 -81q10 -1 25 3q32 10 104 27q52 12 77 20l16 4q12 4 19 6q8 2 16 0 q11 -2 14 -14q2 -12 -8 -19q-3 -2 -8.5 -4t-6.5 -3q-13 -4 -52 -13l-13 -3q-40 -10 -77 -21q-6 -2 -16.5 -4.5t-14.5 -3.5q-9 -4 -17 -5q-26 -8 -39 -11q-16 -2 -24 -2zM68 -5q4 2 5 4t1 11q1 7 2.5 20t2.5 20q0 2 0.5 4.5t0.5 3.5q-3 16 7 40q2 13 1 18q-5 23 8 38 q4 4 4 11q-10 27 8 61q2 6 1 10q-6 21 12 52l1 5q-11 2 -1 9q2 2 2 5l-8 8q-4 -6 -4 -8q-2 -8 -6.5 -30.5t-6.5 -34.5q-8 -47 -22 -141q-2 -13 -6 -37t-5 -35h2q-1 -5 -1 -15t-1 -15q0 -1 3 -4zM186 737q-8 0 -14 3q-22 10 -22 30q0 10 8 18l19 19q7 8 23 24q3 4 9 10 q25 28 26 29q15 18 38 26q1 0 2 1q12 3 17 1q4 -2 6 -4q10 -10 7 -23q-1 -2 -1 -5l-2 -7l-2 -1q-6 -5 -13 -15q-5 -11 -13 -17l-1 -1q-1 -2 -2 -3q-26 -21 -62 -73q-9 -12 -23 -12z" glyph-name="Eacute" horiz-adv-x="533" unicode=""/><glyph d="M105 -138q-26 0 -47 12q-14 8 -18 19q-13 39 -9 76q8 67 24 131q4 14 7 36q4 37 14 85q16 71 19 101q4 44 17 88q14 47 18 76q-15 -3 -30 -3h-3q-9 0 -17 3q-12 4 -12 15q-1 10 6 17q10 10 28 10h2q36 0 81 19q48 21 133 47q32 10 48 16l38 12q32 10 48 14l18 6l7 1 q2 0 3.5 0.5t2.5 0.5q13 0 18 -11q3 -7 0 -15q-3 -10 -14 -13l-31 -12q-53 -21 -92 -31l-11 -3q-64 -15 -101 -29q-4 -2 -7 -2l-8 -3q-14 -5 -15 -22q-4 -25 -15 -77l-15 -63q-7 -40 -22 -91l-1 -3q-4 -14 -3 -20q0 -3 -3 -24q-3 -7 -3 -15v-1q17 0 42 9q3 0 8 2t7 2l58 16 q14 4 50 13.5t56 15.5h4q10 0 16 -7q9 -16 -5 -26q-7 -5 -15 -8q-37 -12 -85 -23q-28 -4 -88 -26q-6 -2 -10 -4q-29 -9 -39 -11q-8 -1 -8 -8q-1 -13 -7 -37q-4 -17 -6 -33q-6 -46 -20 -98q-11 -46 -8 -81q10 -1 25 3q32 10 104 27q52 12 77 20l16 4q12 4 19 6q8 2 16 0 q11 -2 14 -14q2 -12 -8 -19q-3 -2 -8.5 -4t-6.5 -3q-13 -4 -52 -13l-13 -3q-40 -10 -77 -21q-6 -2 -16.5 -4.5t-14.5 -3.5q-9 -4 -17 -5q-26 -8 -39 -11q-16 -2 -24 -2zM68 -5q4 2 5 4t1 11q1 7 2.5 20t2.5 20q0 2 0.5 4.5t0.5 3.5q-3 16 7 40q2 13 1 18q-5 23 8 38 q4 4 4 11q-10 27 8 61q2 6 1 10q-6 21 12 52l1 5q-11 2 -1 9q2 2 2 5l-8 8q-4 -6 -4 -8q-2 -8 -6.5 -30.5t-6.5 -34.5q-8 -47 -22 -141q-2 -13 -6 -37t-5 -35h2q-1 -5 -1 -15t-1 -15q0 -1 3 -4zM184 793q-8 0 -13 7q-2 3 -6 7q-14 16 -15 30q0 18 3 27q19 46 65 115 q6 8 9 11l2 3q10 12 25 5l6 -2q22 -11 29 -18q51 -45 63 -91q1 -4 11 -27q1 -1 2.5 -4t2.5 -5.5t2 -4.5q5 -12 -4 -21q-10 -5 -11 -5q-3 0 -7 2q-11 6 -15 17q-2 4 -4.5 12t-3.5 11l-2 6q-14 38 -44 71q-1 -2 -4 -6.5t-4 -6.5q-19 -45 -42 -73q-11 -13 -27 -43l-4 -8 q-5 -9 -14 -9z" glyph-name="Ecircumflex" horiz-adv-x="533" unicode=""/><glyph d="M105 -138q-26 0 -47 12q-14 8 -18 19q-13 39 -9 76q8 67 24 131q4 14 7 36q4 37 14 85q16 71 19 101q4 44 17 88q14 47 18 76q-15 -3 -30 -3h-3q-9 0 -17 3q-12 4 -12 15q-1 10 6 17q10 10 28 10h2q36 0 81 19q48 21 133 47q32 10 48 16l38 12q32 10 48 14l18 6l7 1 q2 0 3.5 0.5t2.5 0.5q13 0 18 -11q3 -7 0 -15q-3 -10 -14 -13l-31 -12q-53 -21 -92 -31l-11 -3q-64 -15 -101 -29q-4 -2 -7 -2l-8 -3q-14 -5 -15 -22q-4 -25 -15 -77l-15 -63q-7 -40 -22 -91l-1 -3q-4 -14 -3 -20q0 -3 -3 -24q-3 -7 -3 -15v-1q17 0 42 9q3 0 8 2t7 2l58 16 q14 4 50 13.5t56 15.5h4q10 0 16 -7q9 -16 -5 -26q-7 -5 -15 -8q-37 -12 -85 -23q-28 -4 -88 -26q-6 -2 -10 -4q-29 -9 -39 -11q-8 -1 -8 -8q-1 -13 -7 -37q-4 -17 -6 -33q-6 -46 -20 -98q-11 -46 -8 -81q10 -1 25 3q32 10 104 27q52 12 77 20l16 4q12 4 19 6q8 2 16 0 q11 -2 14 -14q2 -12 -8 -19q-3 -2 -8.5 -4t-6.5 -3q-13 -4 -52 -13l-13 -3q-40 -10 -77 -21q-6 -2 -16.5 -4.5t-14.5 -3.5q-9 -4 -17 -5q-26 -8 -39 -11q-16 -2 -24 -2zM68 -5q4 2 5 4t1 11q1 7 2.5 20t2.5 20q0 2 0.5 4.5t0.5 3.5q-3 16 7 40q2 13 1 18q-5 23 8 38 q4 4 4 11q-10 27 8 61q2 6 1 10q-6 21 12 52l1 5q-11 2 -1 9q2 2 2 5l-8 8q-4 -6 -4 -8q-2 -8 -6.5 -30.5t-6.5 -34.5q-8 -47 -22 -141q-2 -13 -6 -37t-5 -35h2q-1 -5 -1 -15t-1 -15q0 -1 3 -4zM193 848q-24 -3 -36.5 18.5t-4 46.5t34.5 30q32 6 48 -10t10.5 -39t-27.5 -36 q-12 -8 -25 -10zM341 848q-24 -3 -36.5 18.5t-4 46.5t35.5 30q32 6 47.5 -10t10 -39t-27.5 -36q-13 -8 -25 -10z" glyph-name="Edieresis" horiz-adv-x="533" unicode=""/><glyph d="M115 -146q-43 0 -80 34q-21 19 -30 63q-9 59 21 105q10 15 34 28q2 1 6 1q8 0 13 -6q6 -7 2 -16q-4 -12 -12 -19q-17 -12 -20 -45q-4 -33 5 -63q3 -11 9 -16q24 -23 52 -24q20 -2 30 13q6 8 15 28q1 3 3.5 10t4.5 10q10 21 15 38q0 1 2 7q2 4 2 6q1 11 8 63q6 30 7 46 q0 2 6 37q2 12 4 17q1 7 3.5 22t3.5 23q3 16 8.5 48t8.5 48q2 13 -6 19q-16 11 -27 37l-29 80q-6 21 -3 46q8 65 33 138q3 9 13 23q1 2 3.5 5.5t3.5 5.5q17 35 48 70q43 49 76 71l18 15q17 16 36 14q21 -2 36 -15q7 -7 6 -14v-10q0 -23 -7 -35q-17 -27 -43 -96q-4 -9 -7 -20 q-3 -8 -13 -44q-1 -7 -5 -21q-5 -20 -11 -60q-8 -47 -9 -50q-2 -12 -8 -36q-1 -8 -4.5 -23.5t-5.5 -23.5l-9 -45q-1 -9 -5 -27q-1 -8 -4 -22.5t-5 -26.5t-3 -23q-4 -37 -20 -109q-12 -54 -16 -86q-2 -8 -2 -12q-6 -32 -5 -45q0 -17 -6 -29q-6 -13 -13 -31q-20 -52 -79 -73 q-13 -4 -29 -4q-8 0 -12 -1h-8zM244 383l8 36q8 35 19 91q8 34 11 61q3 25 17 78l3 11l3 10q4 18 7 26l24 55q-50 -45 -73 -91q-4 -9 -12 -19q-13 -16 -23 -50l-3 -11q-2 -10 -4 -16q-13 -36 -10 -88q0 -9 4 -21q7 -21 19 -54q5 -12 10 -18zM291 461l4 6l4 8q0 2 0.5 4.5 t0.5 3.5l-2 2l-7 -7v-8h-1zM226 59l6 6q1 4 1 13q2 8 4 24.5t3 24.5q0 1 0.5 4t0.5 5q-3 17 8 48q3 13 3 22q-5 26 9 46q4 3 4 13q-8 36 11 73q3 7 2 12q-5 24 14 63l2 6q-11 2 -2 11q3 2 3 6q-1 3 -8 10q0 -1 -2 -4.5t-2 -5.5q-1 -5 -7.5 -34t-8.5 -44q-5 -28 -14.5 -84.5 t-14.5 -84.5q-2 -17 -7 -47.5t-6 -40.5h1q0 -6 -1 -18t-1 -18q0 -2 2 -6zM342 903q-1 0 -2.5 0.5t-2.5 0.5l-7 2l-1 2q-6 8 -15 12q-12 8 -17 13l-4 4q-21 26 -73 62q-12 9 -12 23q0 8 3 14q10 22 31 22q8 0 17 -9q7 -6 19 -18q7 -7 25 -23q6 -6 9 -10q28 -25 29 -26 q18 -14 26 -37q0 -2 1 -3q3 -12 1 -17q-1 -2 -4 -5q-10 -10 -23 -7z" glyph-name="Igrave" horiz-adv-x="421" unicode=""/><glyph d="M115 -146q-43 0 -80 34q-21 19 -30 63q-9 59 21 105q10 15 34 28q2 1 6 1q8 0 13 -6q6 -7 2 -16q-4 -12 -12 -19q-17 -12 -20 -45q-4 -33 5 -63q3 -11 9 -16q24 -23 52 -24q20 -2 30 13q6 8 15 28q1 3 3.5 10t4.5 10q10 21 15 38q0 1 2 7q2 4 2 6q1 11 8 63q6 30 7 46 q0 2 6 37q2 12 4 17q1 7 3.5 22t3.5 23q3 16 8.5 48t8.5 48q2 13 -6 19q-16 11 -27 37l-29 80q-6 21 -3 46q8 65 33 138q3 9 13 23q1 2 3.5 5.5t3.5 5.5q17 35 48 70q43 49 76 71l18 15q17 16 36 14q21 -2 36 -15q7 -7 6 -14v-10q0 -23 -7 -35q-17 -27 -43 -96q-4 -9 -7 -20 q-3 -8 -13 -44q-1 -7 -5 -21q-5 -20 -11 -60q-8 -47 -9 -50q-2 -12 -8 -36q-1 -8 -4.5 -23.5t-5.5 -23.5l-9 -45q-1 -9 -5 -27q-1 -8 -4 -22.5t-5 -26.5t-3 -23q-4 -37 -20 -109q-12 -54 -16 -86q-2 -8 -2 -12q-6 -32 -5 -45q0 -17 -6 -29q-6 -13 -13 -31q-20 -52 -79 -73 q-13 -4 -29 -4q-8 0 -12 -1h-8zM244 383l8 36q8 35 19 91q8 34 11 61q3 25 17 78l3 11l3 10q4 18 7 26l24 55q-50 -45 -73 -91q-4 -9 -12 -19q-13 -16 -23 -50l-3 -11q-2 -10 -4 -16q-13 -36 -10 -88q0 -9 4 -21q7 -21 19 -54q5 -12 10 -18zM291 461l4 6l4 8q0 2 0.5 4.5 t0.5 3.5l-2 2l-7 -7v-8h-1zM226 59l6 6q1 4 1 13q2 8 4 24.5t3 24.5q0 1 0.5 4t0.5 5q-3 17 8 48q3 13 3 22q-5 26 9 46q4 3 4 13q-8 36 11 73q3 7 2 12q-5 24 14 63l2 6q-11 2 -2 11q3 2 3 6q-1 3 -8 10q0 -1 -2 -4.5t-2 -5.5q-1 -5 -7.5 -34t-8.5 -44q-5 -28 -14.5 -84.5 t-14.5 -84.5q-2 -17 -7 -47.5t-6 -40.5h1q0 -6 -1 -18t-1 -18q0 -2 2 -6zM238 855q-8 0 -14 3q-22 10 -22 30q0 10 8 18l19 19q7 8 23 24q3 4 9 10q25 28 26 29q15 18 38 26q1 0 2 1q12 3 17 1q4 -2 6 -4q10 -10 7 -23q-1 -2 -1 -5l-2 -7l-2 -1q-6 -5 -13 -15 q-5 -11 -13 -17l-1 -1q-1 -2 -2 -3q-26 -21 -62 -73q-9 -12 -23 -12z" glyph-name="Iacute" horiz-adv-x="421" unicode=""/><glyph d="M115 -146q-43 0 -80 34q-21 19 -30 63q-9 59 21 105q10 15 34 28q2 1 6 1q8 0 13 -6q6 -7 2 -16q-4 -12 -12 -19q-17 -12 -20 -45q-4 -33 5 -63q3 -11 9 -16q24 -23 52 -24q20 -2 30 13q6 8 15 28q1 3 3.5 10t4.5 10q10 21 15 38q0 1 2 7q2 4 2 6q1 11 8 63q6 30 7 46 q0 2 6 37q2 12 4 17q1 7 3.5 22t3.5 23q3 16 8.5 48t8.5 48q2 13 -6 19q-16 11 -27 37l-29 80q-6 21 -3 46q8 65 33 138q3 9 13 23q1 2 3.5 5.5t3.5 5.5q17 35 48 70q43 49 76 71l18 15q17 16 36 14q21 -2 36 -15q7 -7 6 -14v-10q0 -23 -7 -35q-17 -27 -43 -96q-4 -9 -7 -20 q-3 -8 -13 -44q-1 -7 -5 -21q-5 -20 -11 -60q-8 -47 -9 -50q-2 -12 -8 -36q-1 -8 -4.5 -23.5t-5.5 -23.5l-9 -45q-1 -9 -5 -27q-1 -8 -4 -22.5t-5 -26.5t-3 -23q-4 -37 -20 -109q-12 -54 -16 -86q-2 -8 -2 -12q-6 -32 -5 -45q0 -17 -6 -29q-6 -13 -13 -31q-20 -52 -79 -73 q-13 -4 -29 -4q-8 0 -12 -1h-8zM244 383l8 36q8 35 19 91q8 34 11 61q3 25 17 78l3 11l3 10q4 18 7 26l24 55q-50 -45 -73 -91q-4 -9 -12 -19q-13 -16 -23 -50l-3 -11q-2 -10 -4 -16q-13 -36 -10 -88q0 -9 4 -21q7 -21 19 -54q5 -12 10 -18zM291 461l4 6l4 8q0 2 0.5 4.5 t0.5 3.5l-2 2l-7 -7v-8h-1zM226 59l6 6q1 4 1 13q2 8 4 24.5t3 24.5q0 1 0.5 4t0.5 5q-3 17 8 48q3 13 3 22q-5 26 9 46q4 3 4 13q-8 36 11 73q3 7 2 12q-5 24 14 63l2 6q-11 2 -2 11q3 2 3 6q-1 3 -8 10q0 -1 -2 -4.5t-2 -5.5q-1 -5 -7.5 -34t-8.5 -44q-5 -28 -14.5 -84.5 t-14.5 -84.5q-2 -17 -7 -47.5t-6 -40.5h1q0 -6 -1 -18t-1 -18q0 -2 2 -6zM202 848q-8 0 -13 7q-2 3 -6 7q-14 16 -15 30q0 18 3 27q19 46 65 115q6 8 9 11l2 3q10 12 25 5l6 -2q22 -11 29 -18q51 -45 63 -91q1 -4 11 -27q1 -1 2.5 -4t2.5 -5.5t2 -4.5q5 -12 -4 -21 q-10 -5 -11 -5q-3 0 -7 2q-11 6 -15 17q-2 4 -4.5 12t-3.5 11l-2 6q-14 38 -44 71q-1 -2 -4 -6.5t-4 -6.5q-19 -45 -42 -73q-11 -13 -27 -43l-4 -8q-5 -9 -14 -9z" glyph-name="Icircumflex" horiz-adv-x="421" unicode=""/><glyph d="M115 -146q-43 0 -80 34q-21 19 -30 63q-9 59 21 105q10 15 34 28q2 1 6 1q8 0 13 -6q6 -7 2 -16q-4 -12 -12 -19q-17 -12 -20 -45q-4 -33 5 -63q3 -11 9 -16q24 -23 52 -24q20 -2 30 13q6 8 15 28q1 3 3.5 10t4.5 10q10 21 15 38q0 1 2 7q2 4 2 6q1 11 8 63q6 30 7 46 q0 2 6 37q2 12 4 17q1 7 3.5 22t3.5 23q3 16 8.5 48t8.5 48q2 13 -6 19q-16 11 -27 37l-29 80q-6 21 -3 46q8 65 33 138q3 9 13 23q1 2 3.5 5.5t3.5 5.5q17 35 48 70q43 49 76 71l18 15q17 16 36 14q21 -2 36 -15q7 -7 6 -14v-10q0 -23 -7 -35q-17 -27 -43 -96q-4 -9 -7 -20 q-3 -8 -13 -44q-1 -7 -5 -21q-5 -20 -11 -60q-8 -47 -9 -50q-2 -12 -8 -36q-1 -8 -4.5 -23.5t-5.5 -23.5l-9 -45q-1 -9 -5 -27q-1 -8 -4 -22.5t-5 -26.5t-3 -23q-4 -37 -20 -109q-12 -54 -16 -86q-2 -8 -2 -12q-6 -32 -5 -45q0 -17 -6 -29q-6 -13 -13 -31q-20 -52 -79 -73 q-13 -4 -29 -4q-8 0 -12 -1h-8zM244 383l8 36q8 35 19 91q8 34 11 61q3 25 17 78l3 11l3 10q4 18 7 26l24 55q-50 -45 -73 -91q-4 -9 -12 -19q-13 -16 -23 -50l-3 -11q-2 -10 -4 -16q-13 -36 -10 -88q0 -9 4 -21q7 -21 19 -54q5 -12 10 -18zM291 461l4 6l4 8q0 2 0.5 4.5 t0.5 3.5l-2 2l-7 -7v-8h-1zM226 59l6 6q1 4 1 13q2 8 4 24.5t3 24.5q0 1 0.5 4t0.5 5q-3 17 8 48q3 13 3 22q-5 26 9 46q4 3 4 13q-8 36 11 73q3 7 2 12q-5 24 14 63l2 6q-11 2 -2 11q3 2 3 6q-1 3 -8 10q0 -1 -2 -4.5t-2 -5.5q-1 -5 -7.5 -34t-8.5 -44q-5 -28 -14.5 -84.5 t-14.5 -84.5q-2 -17 -7 -47.5t-6 -40.5h1q0 -6 -1 -18t-1 -18q0 -2 2 -6zM241 921q-24 -3 -36.5 18.5t-4 46.5t34.5 30q32 6 48 -10t10.5 -39t-27.5 -36q-12 -8 -25 -10zM389 921q-24 -3 -36.5 18.5t-4 46.5t35.5 30q32 6 47.5 -10t10 -39t-27.5 -36q-13 -8 -25 -10z" glyph-name="Idieresis" horiz-adv-x="421" unicode=""/><glyph d="M542 385q1 -10 -1 -24l-1 -4q-3 -22 -11 -66q-21 -124 -50 -212q-31 -94 -97 -182q-30 -42 -60.5 -58.5t-74.5 -8.5q-36 6 -64.5 31.5t-33.5 62.5q-1 7 -1 20v10v1l1 1v8q0 19 5 27q4 10 16 10q14 0 16 -15v-13q-4 -72 32 -94q21 -12 44 -4.5t36 27.5q50 74 77 147 q4 11 10 35l2 8q1 3 3.5 11.5t3.5 13.5q12 46 17 69l9 39q15 57 17 90q1 13 1 77l-1 6q0 32 -13 86q-1 5 -3.5 16.5t-4.5 17.5l-1 4q-1 1 -6 2q-8 0 -18 -5q-31 -14 -68 -51l-14 -15q-8 -10 -13 -14q-16 -17 -37 -57q-29 -57 -71 -171h35q50 1 86 -12q1 -1 2 -1q2 -1 3 -1 q18 -5 19 -12q0 -3 -2 -7q-7 -13 -38 -21l-12 -3l-13 -3l-6 1q-11 2 -40 0q-30 -2 -45 -1h-11q-4 -12 -13 -36.5t-14 -36.5q-21 -54 -31 -126l-1 -10q-2 -20 -4 -28q-5 -24 -19 -42t-31 -2q-5 4 -10 12q-15 27 -13 51v2q4 47 7 73q2 18 2 26q0 2 0.5 5t1.5 5q0 3 0.5 7 t0.5 6l2 27q1 12 2.5 35t2.5 35l-85 -3q-32 -2 -46 11q-6 5 -8 13q-3 22 38 37q20 7 42 5q9 0 27 -0.5t28 -0.5h8q2 89 -3 128v5q1 25 1 75q2 112 8 155l2.5 10t1.5 9l1 5q3 12 17 18q10 5 22 5q26 0 33 -35q3 -14 1 -45l-3 -21q-1 -7 -2.5 -21t-1.5 -21q-3 -36 -1 -103v-24 v-5q2 -4 2 -6v-39v-89v-4h7q29 94 85 190q7 12 22 45q20 43 52 64q57 40 96 55q53 20 96 -14q12 -9 18 -23l5 -14q10 -22 12 -34q8 -30 18 -97zM468 344q4 38 4 57q0 35 -3 52q-1 5 0 9l-2 23l-6 5q-3 -5 -2 -6q0 -15 1 -22q9 -38 0 -72q-2 -6 -4 -24q-1 -6 -1.5 -18 t-0.5 -18q0 -5 -0.5 -17.5t-0.5 -18.5q-1 -1 2 -6q3 3 5 3v2t1 2q2 8 4 24.5t3 24.5zM455 254q6 14 3 23q-1 2 -7 6l-3 -3q0 -4 -0.5 -11.5t-0.5 -10.5q-1 -3 2 -5.5t6 -0.5v2z" glyph-name="Eth" horiz-adv-x="600" unicode=""/><glyph d="M67 -185q-8 0 -23 10l-1 2q-10 8 -13 26v3q0 2 3 18q14 37 22 92l9 48l9 41q2 10 4.5 30t3.5 29l3 24v5q0 9 2 15q5 9 9 40q0 2 0.5 8t0.5 8q1 4 15 73l4 17l24 107l10 43l3 9q9 21 26 22q2 0 5.5 0.5t4.5 0.5q22 0 30 -17q16 -31 22 -57q25 -125 63 -240q12 -30 14 -38 q18 -48 23 -66q8 -30 23 -67q2 -6 7.5 -21.5t8.5 -24.5l15 46q7 19 11 34q3 10 5 27l1 4q7 45 26 118l4 14q6 23 15 46l6 17q6 17 18 52t18 52q2 6 5 13q25 54 40 104q5 18 20 50q8 16 11 24q37 74 57 100q9 11 18 16t14 5.5t20.5 -1.5t21.5 -2q1 0 3.5 -0.5t4.5 -0.5 q27 -2 9 -25l-1 -1q-32 -43 -44 -70l-11 -22q-49 -100 -67 -157l-1 -4q-3 -9 -4 -11q-11 -23 -31 -85l-12 -35q-13 -41 -24 -81q-4 -12 -10 -34q-1 -3 -2 -8t-2 -7q-1 -5 -3.5 -13.5t-3.5 -11.5q-15 -44 -20 -75q-2 -14 -14 -57q-6 -16 -8 -24q-4 -15 -11 -34q-1 -3 -3.5 -9 t-3.5 -9q-9 -28 -29 -41q-8 -7 -16 -7q-9 0 -22 11q-25 26 -48 92l-3 10q-7 21 -31 94q-26 82 -38 114q-32 93 -50 184l-21 -94l-12 -53q-2 -10 -2 -13q-2 -32 -14 -90q-4 -20 -10 -60q-3 -25 -13 -75l-9 -42q0 -4 -6 -26q-6 -29 -7 -39q-2 -21 -22 -41q-2 -3 -5 -5l-1 -1 h-2h-2h-1h-1h-2h-1q-6 -3 -11 -3zM135 232l1 2q6 12 4 21q-1 1 -3.5 3t-3.5 3q-1 0 -1 -1l-2 -1l-3 -21q-1 -3 2 -5t6 -1zM63 -134q8 11 17 55q1 4 3 14t3 16q7 27 8 47q2 6 2 20t2 20q1 6 4 16.5t4.5 19.5t0.5 17q-2 11 0 23t7 28t6 23q-6 5 -4 20q1 3 4.5 11.5t3.5 11.5 t-2 12q-11 -19 -11 -20l-24 -158q-1 -7 -21 -121q-1 -9 -1.5 -27.5t-1.5 -27.5zM373 -88l1 2q4 14 2 21l-3 6l-2 -2q-2 -14 -2 -21q-1 -2 0.5 -4.5t3.5 -1.5zM312 676h-1q-1 1 -2 1q-12 2 -19.5 11t-6.5 21q11 46 39 64q37 23 89 8q26 -6 36 1q11 8 11 24q1 11 9.5 19 t20.5 8q33 1 26 -35q-7 -37 -42 -63q-22 -17 -44 -15q-8 0 -24 3.5t-24 4.5q-15 1 -24 -7t-12.5 -18t-11.5 -18.5t-20 -8.5z" glyph-name="Ntilde" horiz-adv-x="579" unicode=""/><glyph d="M164 -127q-25 0 -55 11q-27 11 -45 46q-27 54 -33 129q-3 36 2 92q4 47 5 68q4 53 7 77q10 113 55 224q35 85 108 131l26 13q34 14 73 -3l3 -1q2 -2 4 -3q2 -2 4 -2q38 -13 41 -62q0 -5 0.5 -15t0.5 -15q0 -13 -8 -21q-7 -7 -14 -5q-11 2 -14 12q0 2 -1 6t-1 6t-2 10v3 q-4 17 -7 21q-23 34 -59 15q-13 -6 -24 -19q-35 -43 -52 -97q-15 -43 -37 -148q-4 -22 -5 -34q-2 -33 -7 -91t-6 -78l-4 -50v-17q0 -72 6 -97q7 -25 11 -32q10 -25 29 -24q4 0 6 -1q6 -3 12 -3q10 0 33 17q9 8 17 27l2 8q9 25 37 112q1 5 8 23q13 45 14 49q1 5 5 20 q4 17 5 23l7 43q11 51 11 80q0 11 4 35q1 2 1.5 5t0.5 5q5 35 -16 81q-11 26 -36 7q-19 -15 -36 -37q-14 -17 -27 -17q-11 0 -15 9q-8 21 11 37l12 12q22 20 34 29q33 24 73 7q45 -19 73 -67q11 -20 13 -47q2 -62 -7 -112q-20 -123 -54 -201q-8 -16 -16 -40q-22 -56 -35 -77 q-13 -24 -30 -35q-4 -2 -5 -3q-29 -29 -85 -38q-6 -1 -18 -1zM271 -37q2 1 5 1l1 2q1 1 2 1q4 7 11.5 20t11.5 20q12 21 24 49q10 23 16 47q0 3 3 8l6 20l-4 7q-1 -1 -3 -2l-1 -2q-1 -2 -3 -9t-3 -11q-6 -37 -26 -64q-4 -5 -12 -19q-2 -4 -7 -14.5t-8 -16.5q-10 -21 -13 -31 v-6zM257 -68l2 1q10 12 10 19q0 2 -4 8h-1q-2 -1 -3 -1q-1 -3 -4.5 -9.5t-4.5 -9.5q-2 -2 0 -5t5 -3zM284 824q-1 0 -2.5 0.5t-2.5 0.5l-7 2l-1 2q-6 7 -15 12q-12 8 -17 13l-4 4q-21 26 -73 62q-12 9 -12 23q0 8 3 14q10 22 31 22q8 0 17 -9q7 -6 19 -18q7 -7 25 -23 q6 -6 9 -10q28 -25 29 -26q18 -14 26 -37q0 -2 1 -3q3 -12 1 -17q-1 -2 -4 -5q-10 -10 -23 -7z" glyph-name="Ograve" horiz-adv-x="444" unicode=""/><glyph d="M164 -127q-25 0 -55 11q-27 11 -45 46q-27 54 -33 129q-3 36 2 92q4 47 5 68q4 53 7 77q10 113 55 224q35 85 108 131l26 13q34 14 73 -3l3 -1q2 -2 4 -3q2 -2 4 -2q38 -13 41 -62q0 -5 0.5 -15t0.5 -15q0 -13 -8 -21q-7 -7 -14 -5q-11 2 -14 12q0 2 -1 6t-1 6t-2 10v3 q-4 17 -7 21q-23 34 -59 15q-13 -6 -24 -19q-35 -43 -52 -97q-15 -43 -37 -148q-4 -22 -5 -34q-2 -33 -7 -91t-6 -78l-4 -50v-17q0 -72 6 -97q7 -25 11 -32q10 -25 29 -24q4 0 6 -1q6 -3 12 -3q10 0 33 17q9 8 17 27l2 8q9 25 37 112q1 5 8 23q13 45 14 49q1 5 5 20 q4 17 5 23l7 43q11 51 11 80q0 11 4 35q1 2 1.5 5t0.5 5q5 35 -16 81q-11 26 -36 7q-19 -15 -36 -37q-14 -17 -27 -17q-11 0 -15 9q-8 21 11 37l12 12q22 20 34 29q33 24 73 7q45 -19 73 -67q11 -20 13 -47q2 -62 -7 -112q-20 -123 -54 -201q-8 -16 -16 -40q-22 -56 -35 -77 q-13 -24 -30 -35q-4 -2 -5 -3q-29 -29 -85 -38q-6 -1 -18 -1zM271 -37q2 1 5 1l1 2q1 1 2 1q4 7 11.5 20t11.5 20q12 21 24 49q10 23 16 47q0 3 3 8l6 20l-4 7q-1 -1 -3 -2l-1 -2q-1 -2 -3 -9t-3 -11q-6 -37 -26 -64q-4 -5 -12 -19q-2 -4 -7 -14.5t-8 -16.5q-10 -21 -13 -31 v-6zM257 -68l2 1q10 12 10 19q0 2 -4 8h-1q-2 -1 -3 -1q-1 -3 -4.5 -9.5t-4.5 -9.5q-2 -2 0 -5t5 -3zM186 737q-8 0 -14 3q-22 10 -22 30q0 10 8 18l19 19q7 8 23 24q3 4 9 10q25 28 26 29q15 18 38 26q1 0 2 1q12 3 17 1q4 -2 6 -4q10 -10 7 -23q-1 -2 -1 -5l-2 -7l-2 -1 q-6 -5 -13 -15q-5 -11 -13 -17l-1 -1q-1 -2 -2 -3q-26 -21 -62 -73q-9 -12 -23 -12z" glyph-name="Oacute" horiz-adv-x="444" unicode=""/><glyph d="M164 -127q-25 0 -55 11q-27 11 -45 46q-27 54 -33 129q-3 36 2 92q4 47 5 68q4 53 7 77q10 113 55 224q35 85 108 131l26 13q34 14 73 -3l3 -1q2 -2 4 -3q2 -2 4 -2q38 -13 41 -62q0 -5 0.5 -15t0.5 -15q0 -13 -8 -21q-7 -7 -14 -5q-11 2 -14 12q0 2 -1 6t-1 6t-2 10v3 q-4 17 -7 21q-23 34 -59 15q-13 -6 -24 -19q-35 -43 -52 -97q-15 -43 -37 -148q-4 -22 -5 -34q-2 -33 -7 -91t-6 -78l-4 -50v-17q0 -72 6 -97q7 -25 11 -32q10 -25 29 -24q4 0 6 -1q6 -3 12 -3q10 0 33 17q9 8 17 27l2 8q9 25 37 112q1 5 8 23q13 45 14 49q1 5 5 20 q4 17 5 23l7 43q11 51 11 80q0 11 4 35q1 2 1.5 5t0.5 5q5 35 -16 81q-11 26 -36 7q-19 -15 -36 -37q-14 -17 -27 -17q-11 0 -15 9q-8 21 11 37l12 12q22 20 34 29q33 24 73 7q45 -19 73 -67q11 -20 13 -47q2 -62 -7 -112q-20 -123 -54 -201q-8 -16 -16 -40q-22 -56 -35 -77 q-13 -24 -30 -35q-4 -2 -5 -3q-29 -29 -85 -38q-6 -1 -18 -1zM271 -37q2 1 5 1l1 2q1 1 2 1q4 7 11.5 20t11.5 20q12 21 24 49q10 23 16 47q0 3 3 8l6 20l-4 7q-1 -1 -3 -2l-1 -2q-1 -2 -3 -9t-3 -11q-6 -37 -26 -64q-4 -5 -12 -19q-2 -4 -7 -14.5t-8 -16.5q-10 -21 -13 -31 v-6zM257 -68l2 1q10 12 10 19q0 2 -4 8h-1q-2 -1 -3 -1q-1 -3 -4.5 -9.5t-4.5 -9.5q-2 -2 0 -5t5 -3zM184 793q-8 0 -13 7q-2 3 -6 7q-14 16 -15 30q0 18 3 27q19 46 65 115q6 8 9 11l2 3q10 12 25 5l6 -2q22 -11 29 -18q51 -45 63 -91q1 -4 11 -27q1 -1 2.5 -4t2.5 -5.5 t2 -4.5q5 -12 -4 -21q-10 -5 -11 -5q-3 0 -7 2q-11 6 -15 17q-2 4 -4.5 12t-3.5 11l-2 6q-14 38 -44 71q-1 -2 -4 -6.5t-4 -6.5q-19 -45 -42 -73q-11 -13 -27 -43l-4 -8q-5 -9 -14 -9z" glyph-name="Ocircumflex" horiz-adv-x="444" unicode=""/><glyph d="M164 -127q-25 0 -55 11q-27 11 -45 46q-27 54 -33 129q-3 36 2 92q4 47 5 68q4 53 7 77q10 113 55 224q35 85 108 131l26 13q34 14 73 -3l3 -1q2 -2 4 -3q2 -2 4 -2q38 -13 41 -62q0 -5 0.5 -15t0.5 -15q0 -13 -8 -21q-7 -7 -14 -5q-11 2 -14 12q0 2 -1 6t-1 6t-2 10v3 q-4 17 -7 21q-23 34 -59 15q-13 -6 -24 -19q-35 -43 -52 -97q-15 -43 -37 -148q-4 -22 -5 -34q-2 -33 -7 -91t-6 -78l-4 -50v-17q0 -72 6 -97q7 -25 11 -32q10 -25 29 -24q4 0 6 -1q6 -3 12 -3q10 0 33 17q9 8 17 27l2 8q9 25 37 112q1 5 8 23q13 45 14 49q1 5 5 20 q4 17 5 23l7 43q11 51 11 80q0 11 4 35q1 2 1.5 5t0.5 5q5 35 -16 81q-11 26 -36 7q-19 -15 -36 -37q-14 -17 -27 -17q-11 0 -15 9q-8 21 11 37l12 12q22 20 34 29q33 24 73 7q45 -19 73 -67q11 -20 13 -47q2 -62 -7 -112q-20 -123 -54 -201q-8 -16 -16 -40q-22 -56 -35 -77 q-13 -24 -30 -35q-4 -2 -5 -3q-29 -29 -85 -38q-6 -1 -18 -1zM271 -37q2 1 5 1l1 2q1 1 2 1q4 7 11.5 20t11.5 20q12 21 24 49q10 23 16 47q0 3 3 8l6 20l-4 7q-1 -1 -3 -2l-1 -2q-1 -2 -3 -9t-3 -11q-6 -37 -26 -64q-4 -5 -12 -19q-2 -4 -7 -14.5t-8 -16.5q-10 -21 -13 -31 v-6zM257 -68l2 1q10 12 10 19q0 2 -4 8h-1q-2 -1 -3 -1q-1 -3 -4.5 -9.5t-4.5 -9.5q-2 -2 0 -5t5 -3zM179 840h-1l-2 1q-12 2 -19.5 11t-6.5 21q11 46 39 64q37 23 89 8q26 -6 36 1q11 8 11 24q1 11 9.5 19t20.5 8q33 1 26 -35q-7 -37 -42 -63q-22 -17 -44 -15q-8 0 -24 3.5 t-24 4.5q-15 1 -24 -7t-12.5 -18t-11.5 -18.5t-20 -8.5z" glyph-name="Otilde" horiz-adv-x="444" unicode=""/><glyph d="M164 -127q-25 0 -55 11q-27 11 -45 46q-27 54 -33 129q-3 36 2 92q4 47 5 68q4 53 7 77q10 113 55 224q35 85 108 131l26 13q34 14 73 -3l3 -1q2 -2 4 -3q2 -2 4 -2q38 -13 41 -62q0 -5 0.5 -15t0.5 -15q0 -13 -8 -21q-7 -7 -14 -5q-11 2 -14 12q0 2 -1 6t-1 6t-2 10v3 q-4 17 -7 21q-23 34 -59 15q-13 -6 -24 -19q-35 -43 -52 -97q-15 -43 -37 -148q-4 -22 -5 -34q-2 -33 -7 -91t-6 -78l-4 -50v-17q0 -72 6 -97q7 -25 11 -32q10 -25 29 -24q4 0 6 -1q6 -3 12 -3q10 0 33 17q9 8 17 27l2 8q9 25 37 112q1 5 8 23q13 45 14 49q1 5 5 20 q4 17 5 23l7 43q11 51 11 80q0 11 4 35q1 2 1.5 5t0.5 5q5 35 -16 81q-11 26 -36 7q-19 -15 -36 -37q-14 -17 -27 -17q-11 0 -15 9q-8 21 11 37l12 12q22 20 34 29q33 24 73 7q45 -19 73 -67q11 -20 13 -47q2 -62 -7 -112q-20 -123 -54 -201q-8 -16 -16 -40q-22 -56 -35 -77 q-13 -24 -30 -35q-4 -2 -5 -3q-29 -29 -85 -38q-6 -1 -18 -1zM271 -37q2 1 5 1l1 2q1 1 2 1q4 7 11.5 20t11.5 20q12 21 24 49q10 23 16 47q0 3 3 8l6 20l-4 7q-1 -1 -3 -2l-1 -2q-1 -2 -3 -9t-3 -11q-6 -37 -26 -64q-4 -5 -12 -19q-2 -4 -7 -14.5t-8 -16.5q-10 -21 -13 -31 v-6zM257 -68l2 1q10 12 10 19q0 2 -4 8h-1q-2 -1 -3 -1q-1 -3 -4.5 -9.5t-4.5 -9.5q-2 -2 0 -5t5 -3zM193 848q-24 -3 -36.5 18.5t-4 46.5t34.5 30q32 6 48 -10t10.5 -39t-27.5 -36q-12 -8 -25 -10zM341 848q-24 -3 -36.5 18.5t-4 46.5t35.5 30q32 6 47.5 -10t10 -39 t-27.5 -36q-13 -8 -25 -10z" glyph-name="Odieresis" horiz-adv-x="444" unicode=""/><glyph d="M13 -145q-20 -28 -52 -24q-27 3 -28 26q0 12 9 27q45 73 108 151q18 22 36.5 49t31 47t31.5 54t27 49t29.5 56t26.5 51q13 25 43 65t40 57q87 145 120 205l12 22q7 14 22 7l5 -3q11 -7 17 -13q15 -16 4 -43q-73 -173 -133 -250q-46 -57 -112 -173t-93 -156 q-9 -14 -25.5 -40t-23.5 -37q-15 -23 -46 -62.5t-41 -53.5q-7 -10 -8 -11zM164 -127q-25 0 -55 11q-27 11 -45 46q-27 54 -33 129q-3 36 2 92q4 47 5 68q4 53 7 77q10 113 55 224q35 85 108 131l26 13q34 14 73 -3l3 -1q2 -2 4 -3q2 -2 4 -2q38 -13 41 -62q0 -5 0.5 -15 t0.5 -15q0 -13 -8 -21q-7 -7 -14 -5q-11 2 -14 12q0 2 -1 6t-1 6t-2 10v3q-4 17 -7 21q-23 34 -59 15q-13 -6 -24 -19q-35 -43 -52 -97q-15 -43 -37 -148q-4 -22 -5 -34q-2 -33 -7 -91t-6 -78l-4 -50v-17q0 -72 6 -97q7 -25 11 -32q10 -25 29 -24q4 0 6 -1q6 -3 12 -3 q10 0 33 17q9 8 17 27l2 8q9 25 37 112q1 5 8 23q13 45 14 49q1 5 5 20q4 17 5 23l7 43q11 51 11 80q0 11 4 35q1 2 1.5 5t0.5 5q5 35 -16 81q-11 26 -36 7q-19 -15 -36 -37q-14 -17 -27 -17q-11 0 -15 9q-8 21 11 37l12 12q22 20 34 29q33 24 73 7q45 -19 73 -67 q11 -20 13 -47q2 -62 -7 -112q-20 -123 -54 -201q-8 -16 -16 -40q-22 -56 -35 -77q-13 -24 -30 -35q-4 -2 -5 -3q-29 -29 -85 -38q-6 -1 -18 -1zM271 -37q2 1 5 1l1 2q1 1 2 1q4 7 11.5 20t11.5 20q12 21 24 49q10 23 16 47q0 3 3 8l6 20l-4 7q-1 -1 -3 -2l-1 -2 q-1 -2 -3 -9t-3 -11q-6 -37 -26 -64q-4 -5 -12 -19q-2 -4 -7 -14.5t-8 -16.5q-10 -21 -13 -31v-6zM257 -68l2 1q10 12 10 19q0 2 -4 8h-1q-2 -1 -3 -1q-1 -3 -4.5 -9.5t-4.5 -9.5q-2 -2 0 -5t5 -3z" glyph-name="Oslash" horiz-adv-x="444" unicode=""/><glyph d="M300 -173q-59 0 -35 179q7 72 11 93q3 16 4.5 48.5t4.5 48.5q1 4 2.5 12t2.5 12q0 5 2 13q0 -1 -2 -3.5t-2 -4.5q-71 -135 -85 -160q-21 -37 -70 -90q-17 -19 -40 -23q-26 -4 -47.5 12.5t-31.5 44.5q-20 53 -10 161q1 15 3.5 46.5t4.5 51t6 46t9 47.5q9 36 21 107t19 104 q12 48 33 77.5t58 22.5q14 -3 19 -14.5t1.5 -28.5t-9 -32.5t-12.5 -32t-8 -21.5q-6 -20 -10 -44t-7.5 -53.5t-6.5 -45.5q-6 -37 -31 -222q0 -5 -2 -15t-2 -15q-20 -103 8 -139q54 31 103 129q3 7 23 44q92 169 146 367l13 49l6 20q12 34 38 34q13 0 22 -7q26 -18 6 -111 q-8 -35 -22.5 -100t-20.5 -91q-4 -18 -13.5 -54.5t-14.5 -59t-9.5 -54t-4.5 -58.5q0 -19 -6 -51q-20 -106 -24 -191q-1 -36 -29 -46q-8 -2 -11 -2zM25 125l2 1l3 3v9v15.5t1 15.5q0 1 1 3v3q-5 10 3 32v14q-7 16 5 30q4 4 2 9q-12 19 3 47q2 6 0 8q-7 15 8 42l1 4 q-8 -1 -7 1q0 2 5 5q2 2 2 5q-1 2 -9 4q-3 -6 -3 -7q-7 -42 -8 -51q-2 -19 -5 -56t-5 -55q-1 -10 -3 -29t-2 -28h2q0 -3 0.5 -11t0.5 -12q0 -2 3 -2zM284 824q-1 0 -2.5 0.5t-2.5 0.5l-7 2l-1 2q-6 7 -15 12q-12 8 -17 13l-4 4q-21 26 -73 62q-12 9 -12 23q0 8 3 14 q10 22 31 22q8 0 17 -9q7 -6 19 -18q7 -7 25 -23q6 -6 9 -10q28 -25 29 -26q18 -14 26 -37q0 -2 1 -3q3 -12 1 -17q-1 -2 -4 -5q-10 -10 -23 -7z" glyph-name="Ugrave" horiz-adv-x="415" unicode=""/><glyph d="M300 -173q-59 0 -35 179q7 72 11 93q3 16 4.5 48.5t4.5 48.5q1 4 2.5 12t2.5 12q0 5 2 13q0 -1 -2 -3.5t-2 -4.5q-71 -135 -85 -160q-21 -37 -70 -90q-17 -19 -40 -23q-26 -4 -47.5 12.5t-31.5 44.5q-20 53 -10 161q1 15 3.5 46.5t4.5 51t6 46t9 47.5q9 36 21 107t19 104 q12 48 33 77.5t58 22.5q14 -3 19 -14.5t1.5 -28.5t-9 -32.5t-12.5 -32t-8 -21.5q-6 -20 -10 -44t-7.5 -53.5t-6.5 -45.5q-6 -37 -31 -222q0 -5 -2 -15t-2 -15q-20 -103 8 -139q54 31 103 129q3 7 23 44q92 169 146 367l13 49l6 20q12 34 38 34q13 0 22 -7q26 -18 6 -111 q-8 -35 -22.5 -100t-20.5 -91q-4 -18 -13.5 -54.5t-14.5 -59t-9.5 -54t-4.5 -58.5q0 -19 -6 -51q-20 -106 -24 -191q-1 -36 -29 -46q-8 -2 -11 -2zM25 125l2 1l3 3v9v15.5t1 15.5q0 1 1 3v3q-5 10 3 32v14q-7 16 5 30q4 4 2 9q-12 19 3 47q2 6 0 8q-7 15 8 42l1 4 q-8 -1 -7 1q0 2 5 5q2 2 2 5q-1 2 -9 4q-3 -6 -3 -7q-7 -42 -8 -51q-2 -19 -5 -56t-5 -55q-1 -10 -3 -29t-2 -28h2q0 -3 0.5 -11t0.5 -12q0 -2 3 -2zM186 737q-8 0 -14 3q-22 10 -22 30q0 10 8 18l19 19q7 8 23 24q3 4 9 10q25 28 26 29q15 18 38 26q1 0 2 1q12 3 17 1 q4 -2 6 -4q10 -10 7 -23q-1 -2 -1 -5l-2 -7l-2 -1q-6 -5 -13 -15q-5 -11 -13 -17l-1 -1q-1 -2 -2 -3q-26 -21 -62 -73q-9 -12 -23 -12z" glyph-name="Uacute" horiz-adv-x="415" unicode=""/><glyph d="M300 -173q-59 0 -35 179q7 72 11 93q3 16 4.5 48.5t4.5 48.5q1 4 2.5 12t2.5 12q0 5 2 13q0 -1 -2 -3.5t-2 -4.5q-71 -135 -85 -160q-21 -37 -70 -90q-17 -19 -40 -23q-26 -4 -47.5 12.5t-31.5 44.5q-20 53 -10 161q1 15 3.5 46.5t4.5 51t6 46t9 47.5q9 36 21 107t19 104 q12 48 33 77.5t58 22.5q14 -3 19 -14.5t1.5 -28.5t-9 -32.5t-12.5 -32t-8 -21.5q-6 -20 -10 -44t-7.5 -53.5t-6.5 -45.5q-6 -37 -31 -222q0 -5 -2 -15t-2 -15q-20 -103 8 -139q54 31 103 129q3 7 23 44q92 169 146 367l13 49l6 20q12 34 38 34q13 0 22 -7q26 -18 6 -111 q-8 -35 -22.5 -100t-20.5 -91q-4 -18 -13.5 -54.5t-14.5 -59t-9.5 -54t-4.5 -58.5q0 -19 -6 -51q-20 -106 -24 -191q-1 -36 -29 -46q-8 -2 -11 -2zM25 125l2 1l3 3v9v15.5t1 15.5q0 1 1 3v3q-5 10 3 32v14q-7 16 5 30q4 4 2 9q-12 19 3 47q2 6 0 8q-7 15 8 42l1 4 q-8 -1 -7 1q0 2 5 5q2 2 2 5q-1 2 -9 4q-3 -6 -3 -7q-7 -42 -8 -51q-2 -19 -5 -56t-5 -55q-1 -10 -3 -29t-2 -28h2q0 -3 0.5 -11t0.5 -12q0 -2 3 -2zM184 793q-8 0 -13 7q-2 3 -6 7q-14 16 -15 30q0 18 3 27q19 46 65 115q6 8 9 11l2 3q10 12 25 5l6 -2q22 -11 29 -18 q51 -45 63 -91q1 -4 11 -27q1 -1 2.5 -4t2.5 -5.5t2 -4.5q5 -12 -4 -21q-10 -5 -11 -5q-3 0 -7 2q-11 6 -15 17q-2 4 -4.5 12t-3.5 11l-2 6q-14 38 -44 71q-1 -2 -4 -6.5t-4 -6.5q-19 -45 -42 -73q-11 -13 -27 -43l-4 -8q-5 -9 -14 -9z" glyph-name="Ucircumflex" horiz-adv-x="415" unicode=""/><glyph d="M300 -173q-59 0 -35 179q7 72 11 93q3 16 4.5 48.5t4.5 48.5q1 4 2.5 12t2.5 12q0 5 2 13q0 -1 -2 -3.5t-2 -4.5q-71 -135 -85 -160q-21 -37 -70 -90q-17 -19 -40 -23q-26 -4 -47.5 12.5t-31.5 44.5q-20 53 -10 161q1 15 3.5 46.5t4.5 51t6 46t9 47.5q9 36 21 107t19 104 q12 48 33 77.5t58 22.5q14 -3 19 -14.5t1.5 -28.5t-9 -32.5t-12.5 -32t-8 -21.5q-6 -20 -10 -44t-7.5 -53.5t-6.5 -45.5q-6 -37 -31 -222q0 -5 -2 -15t-2 -15q-20 -103 8 -139q54 31 103 129q3 7 23 44q92 169 146 367l13 49l6 20q12 34 38 34q13 0 22 -7q26 -18 6 -111 q-8 -35 -22.5 -100t-20.5 -91q-4 -18 -13.5 -54.5t-14.5 -59t-9.5 -54t-4.5 -58.5q0 -19 -6 -51q-20 -106 -24 -191q-1 -36 -29 -46q-8 -2 -11 -2zM25 125l2 1l3 3v9v15.5t1 15.5q0 1 1 3v3q-5 10 3 32v14q-7 16 5 30q4 4 2 9q-12 19 3 47q2 6 0 8q-7 15 8 42l1 4 q-8 -1 -7 1q0 2 5 5q2 2 2 5q-1 2 -9 4q-3 -6 -3 -7q-7 -42 -8 -51q-2 -19 -5 -56t-5 -55q-1 -10 -3 -29t-2 -28h2q0 -3 0.5 -11t0.5 -12q0 -2 3 -2zM193 848q-24 -3 -36.5 18.5t-4 46.5t34.5 30q32 6 48 -10t10.5 -39t-27.5 -36q-12 -8 -25 -10zM341 848q-24 -3 -36.5 18.5 t-4 46.5t35.5 30q32 6 47.5 -10t10 -39t-27.5 -36q-13 -8 -25 -10z" glyph-name="Udieresis" horiz-adv-x="415" unicode=""/><glyph d="M176 -195q-19 0 -30 16q-25 29 -19 59q11 60 22 92q1 3 2 8t2 7q1 11 6 22q6 15 17 54q2 7 6 19.5t5 17.5q17 45 28 93q3 14 17 59q2 6 5.5 17t5.5 16l2 9q7 24 10 31q-7 -7 -11 -10l-25 -24q-19 -18 -59 -34q-10 -5 -19 -8q-1 -1 -3 -1q-9 -2 -25 -2q-60 0 -90 51 l-15 30l-2 6q-6 13 -6 46l1 5q1 42 0 87l3 42q3 13 3 27q1 10 8 47q4 15 6 29q3 23 25 29q15 3 31 6q17 2 24 -14v-1q11 -28 4 -46q-15 -44 -15 -94q0 -11 -2 -29q-2 -34 -1 -43l5 -44l3 -27q1 -14 15 -38l2 -3q6 -10 27 -10q5 0 7 1q20 6 30 14q6 6 18 14q19 15 24 22 q4 6 16 14q5 5 8 7q32 31 83 115l3 9q1 1 1 2q1 2 1 3l3 9q1 2 4 9t5 11q17 34 26 61q3 7 18 38l7 13q4 8 12.5 24.5t12.5 24.5q2 4 5 7l3 7q10 18 31 18q22 0 33 -19q6 -13 3 -25q-3 -7 -7 -23q-10 -42 -21 -60q-10 -15 -19 -47q-1 -2 -3.5 -9t-3.5 -11q-1 -1 -1 -3t-1 -3 q0 -2 -1.5 -6t-2.5 -6q-9 -19 -25 -57q-42 -99 -48 -115q-3 -7 -19 -54l-4 -13q-2 -8 -8 -26q-20 -68 -30 -92q-8 -22 -12 -48q-6 -31 -32 -105l-1 -2q-28 -74 -34 -121q-2 -12 -4 -17q-4 -14 -3 -21q0 -5 -2 -7q-7 -24 -24 -28q-8 -2 -11 -2zM200 298q3 0 4 1q2 0 4 3 q28 20 42 31q4 2 3 6q-6 3 -4.5 9.5t-0.5 9.5q-21 -35 -36 -46q-4 -1 -10 -10q-2 -1 -2 -4zM166 273q11 6 23 14v2l-2 1q-9 -4 -25 -14zM136 257q3 1 16 9l-1 2q-5 0 -8 -1q-2 -1 -5 -4t-5 -4zM189 -105q12 14 13 19q28 102 41 153q29 96 35 118q3 10 6 29t4 26 q-9 -10 -23 -53q-8 -21 -10 -29q-8 -19 -13 -46q-2 -6 -4.5 -19t-4.5 -20q-1 -6 -7.5 -23.5t-7.5 -27.5q0 -12 -3 -24t-10 -27t-9 -22q7 -6 2 -20q-1 -4 -5 -11.5t-4.5 -11t0.5 -11.5zM186 737q-8 0 -14 3q-22 10 -22 30q0 10 8 18l19 19q7 8 23 24q3 4 9 10q25 28 26 29 q15 18 38 26q1 0 2 1q12 3 17 1q4 -2 6 -4q10 -10 7 -23q-1 -2 -1 -5l-2 -7l-2 -1q-6 -5 -13 -15q-5 -11 -13 -17l-1 -1q-1 -2 -2 -3q-26 -21 -62 -73q-9 -12 -23 -12z" glyph-name="Yacute" horiz-adv-x="394" unicode=""/><glyph d="M49 -343q-11 0 -19 8q-13 11 -15 22l-3 10q-8 26 -6 41q0 10 -1 14q-6 39 -4 122v42q0 11 0.5 31t1 36.5t1.5 31.5q4 67 14 107q1 7 3.5 21t4.5 21q1 6 3.5 18t3.5 18q43 342 63 424q1 10 8 23q3 4 9 8q1 0 3 1q2 2 6 2h2q6 0 9 1l10 1q10 0 18 -8q18 -21 13 -45 q-2 -16 -4 -25q0 -3 -1.5 -10.5t-2.5 -11.5l-4 -31q0 -2 -29 -232.5t-36 -270.5q-2 -10 -2 -31v-9v-46q8 22 14 40l12 37q16 52 26 78l17 44q15 43 40 105q16 39 50 93q18 28 47 50q30 21 60 11q19 -6 32 -25t12 -38q-4 -65 -17 -97q-6 -18 -8 -28q-8 -30 -9 -32 q-23 -59 -47 -104l-2 -4q-7 -10 -9 -17q-15 -32 -52 -51q-12 -5 -19 -5q-20 0 -31 24q-13 33 -12 65q0 1 3 13q5 12 16 12h2q14 -2 14 -17q0 -7 -2 -17q-3 -12 3 -26q15 31 23 66q7 33 30 98q20 58 30 129v4v4q-2 2 -4 0q-19 -13 -31 -31q-35 -50 -48 -92q-2 -8 -15 -38 l-6 -14q-37 -89 -89 -256q-24 -73 -30 -140l-3 -26q-4 -36 -4 -52q2 -26 -21 -40q-10 -6 -18 -6zM269 92q7 6 19 36q1 3 3.5 9t3.5 9q6 16 9 30q2 5 2.5 14t1.5 12q1 2 6.5 15t4.5 19q-2 7 0 11.5t6.5 10.5t6.5 11q-5 5 -4.5 13.5t2.5 13.5q2 4 6 4t-2 4q-10 -10 -11 -13 q-4 -17 -12 -43t-13 -43l-24 -77q-2 -6 -3 -18t-2 -18z" glyph-name="Thorn" horiz-adv-x="435" unicode=""/><glyph d="M303 -159q-77 3 -112 41q-46 47 -33 111l2 10q8 42 22 61q5 6 14 6h3q2 0 4 -2h-1l-1 -2q1 0 2 1v1q5 -2 6 -6q3 -6 -1 -13q-1 -1 -1 -3l-6 -9q-24 -25 -4 -103q7 -31 39.5 -41.5t61.5 4.5q7 4 14 9t11.5 9t12 12t10 11t11 13t9.5 12l1 3q5 6 10 18q1 1 1 3t1 3 q2 4 5.5 12t5.5 12q2 5 6.5 16t6.5 16q19 40 14 93q-2 22 -4 33l-1 10v3v2q-28 46 -50 57q-31 15 -67 3q-3 -1 -20 -13l-3 -3q-10 -9 -22 -9q-20 0 -29 22q-5 12 2 21l3 6q2 3 7 9.5t8 10.5q2 3 8 9q13 15 15 20q2 4 3 5q16 13 31 37q24 32 28 36q10 9 20 31q14 24 21 35 l22 39q11 23 18 51q6 22 10 52q-2 -1 -7.5 -3.5t-7.5 -4.5q-57 -41 -81 -69q-27 -31 -38 -43l-19 -21l-1 -2q-8 -8 -11 -12q-65 -93 -116 -194q-39 -78 -44 -122q-4 -18 -7 -27q-2 -6 -4 -14q-5 -23 -7 -53q-2 -22 -4 -33v-5q0 -3 -2 -13q-7 -23 -30 -23q-5 0 -15 4 q-4 2 -12 8l-5 3q-5 3 -5 9q-5 77 11 142q9 37 13 112l2 25q0 18 3 36q5 37 28 179q3 16 5 48q1 4 1 12.5t1 12.5q1 13 12 22.5t26 9.5q10 0 15 -4q7 -3 9 -9q10 -13 10 -38q1 -29 -10 -96q-2 -8 -4 -20q-2 -8 -4 -25.5t-4 -26.5q-1 -13 -5 -37q-6 -30 -8 -39q-3 -13 -3 -27 q2 5 8 15q2 3 11.5 20t14.5 26q41 74 69 113q36 51 85 106q47 51 93 81l4 3q27 16 38 19q43 11 72 -2q13 -6 17 -13t3 -21q-4 -43 -40 -113q-14 -28 -46 -76l-11 -18q-8 -13 -26 -39q-17 -24 -21 -31q-5 -7 -14.5 -18.5t-10.5 -12.5q-8 -8 -11 -13q-5 -5 -7 -8q25 0 45 -4 q41 -7 93 -51l10 -10l2 -3q34 -37 33 -85q-6 -119 -74 -210q-29 -39 -67 -63q-32 -19 -63 -19h-3zM80 469l6 11l-2 10q-4 -4 -6 -9q0 -8 2 -12zM74 430l6 12l-6 7q-5 -8 -6 -13q0 -2 6 -6zM28 34q7 11 14 56q5 17 6 30q5 27 5 47q1 7 1 20.5t1 20.5q0 2 4 22t3 31 q-1 18 -0.5 25t5 24.5t5.5 24.5q-7 5 -5 20q1 3 3.5 12t2.5 12t-3 11q-1 -2 -3.5 -6t-4.5 -7.5t-2 -6.5q-10 -106 -16 -159q-2 -18 -4.5 -38.5t-5.5 -45t-5 -38.5q-1 -10 -1 -27v-28zM431 -38q3 2 6 2q1 0 1 1.5t1 1.5l20 44q11 23 19 51q7 23 10 50q0 2 2 8l4 21l-6 6 q0 -1 -2 -2.5t-2 -2.5q-4 -14 -4 -21q0 -36 -18 -66q-7 -11 -11 -21q-3 -5 -6.5 -16.5t-5.5 -16.5q-1 -5 -4.5 -15.5t-4.5 -16.5q-1 -1 1 -7zM421 -71l1 2q11 13 9 20q0 1 -6 7q-2 0 -4 -2q-1 -3 -4 -10t-4 -10q-4 -4 4 -6q2 -1 4 -1z" glyph-name="germandbls" horiz-adv-x="514" unicode=""/><glyph d="M219 -26q-2 0 -3 1q-27 2 -39 18q-19 23 -23 48q-2 19 2 53q0 2 0.5 6.5t0.5 6.5q-1 0 -1 -2q0 -1 -1 -2q-27 -35 -57 -62q-26 -24 -68 -26q-20 0 -33 13q-25 26 -27 57q0 21 5 46l1 5q12 58 44 131q25 57 80 78q43 17 69 -21t14 -86q-6 -17 -20 -10q-10 4 -10 14l2 11 q2 9 0 17q0 5 -1 7q0 4 -1 6q0 3 -1 5q-3 13 -7 13q-7 1 -16 -12q-23 -27 -29 -54q-2 -12 -11 -35q-11 -26 -23 -84l-6 -26q-3 -17 5 -31h2q22 17 36 34l11 13q21 28 43 51q11 11 17 32q6 23 22 71q4 12 15 37q8 19 29 19q8 0 12 -1q4 -2 6 -2q18 -4 26 -13.5t6 -24.5 t-6 -26t-13 -29.5t-11 -24.5q-41 -112 -36 -156q2 -6 5 -6t5 1q11 6 28 27l3 3q36 45 52 78l2 2q7 13 9 23q2 8 6 12q11 9 21 2q7 -4 7 -14q0 -8 -3 -11q-26 -57 -61 -100q-6 -6 -9 -12q-25 -41 -50 -56q-2 -2 -3 -4q-7 -10 -17 -10zM236 436q-1 0 -2.5 0.5t-2.5 0.5l-7 2 l-1 2q-6 7 -15 12q-12 8 -17 13l-4 4q-21 26 -73 62q-12 9 -12 23q0 8 3 14q10 22 31 22q8 0 17 -9q7 -6 19 -18q7 -7 25 -23q6 -6 9 -10q28 -25 29 -26q18 -14 26 -37q0 -2 1 -3q3 -12 1 -17q-1 -2 -4 -5q-10 -10 -23 -7z" glyph-name="agrave" horiz-adv-x="312" unicode=""/><glyph d="M219 -26q-2 0 -3 1q-27 2 -39 18q-19 23 -23 48q-2 19 2 53q0 2 0.5 6.5t0.5 6.5q-1 0 -1 -2q0 -1 -1 -2q-27 -35 -57 -62q-26 -24 -68 -26q-20 0 -33 13q-25 26 -27 57q0 21 5 46l1 5q12 58 44 131q25 57 80 78q43 17 69 -21t14 -86q-6 -17 -20 -10q-10 4 -10 14l2 11 q2 9 0 17q0 5 -1 7q0 4 -1 6q0 3 -1 5q-3 13 -7 13q-7 1 -16 -12q-23 -27 -29 -54q-2 -12 -11 -35q-11 -26 -23 -84l-6 -26q-3 -17 5 -31h2q22 17 36 34l11 13q21 28 43 51q11 11 17 32q6 23 22 71q4 12 15 37q8 19 29 19q8 0 12 -1q4 -2 6 -2q18 -4 26 -13.5t6 -24.5 t-6 -26t-13 -29.5t-11 -24.5q-41 -112 -36 -156q2 -6 5 -6t5 1q11 6 28 27l3 3q36 45 52 78l2 2q7 13 9 23q2 8 6 12q11 9 21 2q7 -4 7 -14q0 -8 -3 -11q-26 -57 -61 -100q-6 -6 -9 -12q-25 -41 -50 -56q-2 -2 -3 -4q-7 -10 -17 -10zM119 420q-8 0 -14 3q-22 10 -22 30 q0 10 8 18l19 19q7 8 23 24q3 4 9 10q25 28 26 29q15 18 38 26q1 0 2 1q12 3 17 1q4 -2 6 -4q10 -10 7 -23q-1 -2 -1 -5l-2 -7l-2 -1q-6 -5 -13 -15q-5 -11 -13 -17l-1 -1q-1 -2 -2 -3q-26 -21 -62 -73q-9 -12 -23 -12z" glyph-name="aacute" horiz-adv-x="312" unicode=""/><glyph d="M219 -26q-2 0 -3 1q-27 2 -39 18q-19 23 -23 48q-2 19 2 53q0 2 0.5 6.5t0.5 6.5q-1 0 -1 -2q0 -1 -1 -2q-27 -35 -57 -62q-26 -24 -68 -26q-20 0 -33 13q-25 26 -27 57q0 21 5 46l1 5q12 58 44 131q25 57 80 78q43 17 69 -21t14 -86q-6 -17 -20 -10q-10 4 -10 14l2 11 q2 9 0 17q0 5 -1 7q0 4 -1 6q0 3 -1 5q-3 13 -7 13q-7 1 -16 -12q-23 -27 -29 -54q-2 -12 -11 -35q-11 -26 -23 -84l-6 -26q-3 -17 5 -31h2q22 17 36 34l11 13q21 28 43 51q11 11 17 32q6 23 22 71q4 12 15 37q8 19 29 19q8 0 12 -1q4 -2 6 -2q18 -4 26 -13.5t6 -24.5 t-6 -26t-13 -29.5t-11 -24.5q-41 -112 -36 -156q2 -6 5 -6t5 1q11 6 28 27l3 3q36 45 52 78l2 2q7 13 9 23q2 8 6 12q11 9 21 2q7 -4 7 -14q0 -8 -3 -11q-26 -57 -61 -100q-6 -6 -9 -12q-25 -41 -50 -56q-2 -2 -3 -4q-7 -10 -17 -10zM114 432q-8 0 -13 7q-2 3 -6 7 q-14 16 -15 30q0 18 3 27q19 46 65 115q6 8 9 11l2 3q10 12 25 5l6 -2q22 -11 29 -18q51 -45 63 -91q1 -4 11 -27l7 -14q5 -12 -4 -21q-10 -5 -11 -5q-3 0 -7 2q-11 6 -15 17q-2 4 -4.5 12t-3.5 11l-2 6q-14 38 -44 71q-1 -2 -4 -6.5t-4 -6.5q-19 -45 -42 -73 q-11 -13 -27 -43l-4 -8q-5 -9 -14 -9z" glyph-name="acircumflex" horiz-adv-x="312" unicode=""/><glyph d="M219 -26q-2 0 -3 1q-27 2 -39 18q-19 23 -23 48q-2 19 2 53q0 2 0.5 6.5t0.5 6.5q-1 0 -1 -2q0 -1 -1 -2q-27 -35 -57 -62q-26 -24 -68 -26q-20 0 -33 13q-25 26 -27 57q0 21 5 46l1 5q12 58 44 131q25 57 80 78q43 17 69 -21t14 -86q-6 -17 -20 -10q-10 4 -10 14l2 11 q2 9 0 17q0 5 -1 7q0 4 -1 6q0 3 -1 5q-3 13 -7 13q-7 1 -16 -12q-23 -27 -29 -54q-2 -12 -11 -35q-11 -26 -23 -84l-6 -26q-3 -17 5 -31h2q22 17 36 34l11 13q21 28 43 51q11 11 17 32q6 23 22 71q4 12 15 37q8 19 29 19q8 0 12 -1q4 -2 6 -2q18 -4 26 -13.5t6 -24.5 t-6 -26t-13 -29.5t-11 -24.5q-41 -112 -36 -156q2 -6 5 -6t5 1q11 6 28 27l3 3q36 45 52 78l2 2q7 13 9 23q2 8 6 12q11 9 21 2q7 -4 7 -14q0 -8 -3 -11q-26 -57 -61 -100q-6 -6 -9 -12q-25 -41 -50 -56q-2 -2 -3 -4q-7 -10 -17 -10zM94 407l-1 1h-2q-12 2 -19.5 11t-6.5 21 q11 46 39 64q37 23 89 8q26 -6 36 1q11 8 11 24q1 11 9.5 19t20.5 8q33 1 26 -35q-7 -37 -42 -63q-22 -17 -44 -15q-8 1 -24 4t-24 4q-15 1 -24 -7t-12.5 -18t-11.5 -18.5t-20 -8.5z" glyph-name="atilde" horiz-adv-x="312" unicode=""/><glyph d="M219 -26q-2 0 -3 1q-27 2 -39 18q-19 23 -23 48q-2 19 2 53q0 2 0.5 6.5t0.5 6.5q-1 0 -1 -2q0 -1 -1 -2q-27 -35 -57 -62q-26 -24 -68 -26q-20 0 -33 13q-25 26 -27 57q0 21 5 46l1 5q12 58 44 131q25 57 80 78q43 17 69 -21t14 -86q-6 -17 -20 -10q-10 4 -10 14l2 11 q2 9 0 17q0 5 -1 7q0 4 -1 6q0 3 -1 5q-3 13 -7 13q-7 1 -16 -12q-23 -27 -29 -54q-2 -12 -11 -35q-11 -26 -23 -84l-6 -26q-3 -17 5 -31h2q22 17 36 34l11 13q21 28 43 51q11 11 17 32q6 23 22 71q4 12 15 37q8 19 29 19q8 0 12 -1q4 -2 6 -2q18 -4 26 -13.5t6 -24.5 t-6 -26t-13 -29.5t-11 -24.5q-41 -112 -36 -156q2 -6 5 -6t5 1q11 6 28 27l3 3q36 45 52 78l2 2q7 13 9 23q2 8 6 12q11 9 21 2q7 -4 7 -14q0 -8 -3 -11q-26 -57 -61 -100q-6 -6 -9 -12q-25 -41 -50 -56q-2 -2 -3 -4q-7 -10 -17 -10zM111 442q-24 -3 -36.5 18.5t-4 46.5 t34.5 30q32 6 48 -10t10.5 -39t-27.5 -36q-12 -8 -25 -10zM259 442q-24 -3 -36.5 18.5t-4 46.5t35.5 30q32 6 47.5 -10t10 -39t-27.5 -36q-13 -8 -25 -10z" glyph-name="adieresis" horiz-adv-x="312" unicode=""/><glyph d="M219 -26q-2 0 -3 1q-27 2 -39 18q-19 23 -23 48q-2 19 2 53q0 2 0.5 6.5t0.5 6.5q-1 0 -1 -2q0 -1 -1 -2q-27 -35 -57 -62q-26 -24 -68 -26q-20 0 -33 13q-25 26 -27 57q0 21 5 46l1 5q12 58 44 131q25 57 80 78q43 17 69 -21t14 -86q-6 -17 -20 -10q-10 4 -10 14l2 11 q2 9 0 17q0 5 -1 7q0 4 -1 6q0 3 -1 5q-3 13 -7 13q-7 1 -16 -12q-23 -27 -29 -54q-2 -12 -11 -35q-11 -26 -23 -84l-6 -26q-3 -17 5 -31h2q22 17 36 34l11 13q21 28 43 51q11 11 17 32q6 23 22 71q4 12 15 37q8 19 29 19q8 0 12 -1q4 -2 6 -2q18 -4 26 -13.5t6 -24.5 t-6 -26t-13 -29.5t-11 -24.5q-41 -112 -36 -156q2 -6 5 -6t5 1q11 6 28 27l3 3q36 45 52 78l2 2q7 13 9 23q2 8 6 12q11 9 21 2q7 -4 7 -14q0 -8 -3 -11q-26 -57 -61 -100q-6 -6 -9 -12q-25 -41 -50 -56q-2 -2 -3 -4q-7 -10 -17 -10zM177 430q-40 -5 -60.5 31.5t-7 78.5 t58.5 50q54 10 80 -16.5t16.5 -65.5t-45.5 -62q-21 -13 -42 -16zM182 473q10 2 20 8q17 11 21.5 29.5t-8 31t-38.5 7.5q-13 -3 -20.5 -12t-8.5 -20t2 -21.5t12 -17t20 -5.5z" glyph-name="aring" horiz-adv-x="312" unicode=""/><glyph d="M649 178q4 -9 -1 -17q-44 -73 -74 -110q-8 -10 -12 -14q-10 -11 -18 -21q-16 -22 -55 -43l-7 -3q-12 -8 -29 -8h-6h-2q-17 0 -47 8q-30 9 -47 43q-18 39 -24 68q-4 -5 -11 -14.5t-8 -10.5q-6 -6 -9 -12q-25 -41 -50 -56q-2 -2 -3 -4q-8 -10 -17 -10q-2 0 -3 1 q-27 2 -39 18q-19 23 -23 48q-2 19 2 53q0 2 0.5 6.5t0.5 6.5q-1 0 -1 -2q0 -1 -1 -2q-27 -35 -57 -62q-26 -24 -68 -26q-20 0 -33 13q-25 26 -27 57q0 21 5 46l1 5q12 58 44 131q25 57 80 78q43 17 69 -21t14 -86q-6 -17 -20 -10q-10 4 -10 14l2 11q2 9 0 17q0 5 -1 7 q0 4 -1 6q0 3 -1 5q-3 13 -7 13q-7 1 -16 -12q-23 -27 -29 -54q-2 -12 -11 -35q-11 -26 -23 -84l-6 -26q-3 -17 5 -31h2q22 17 36 34l11 13q21 28 43 51q11 11 17 32q6 23 22 71q4 12 15 37q8 19 29 19q8 0 12 -1q4 -2 6 -2q18 -4 26 -13.5t6 -24.5t-6 -26t-13 -29.5 t-11 -24.5q-41 -112 -36 -156q2 -6 5 -6t5 1q11 6 28 27l3 3q31 37 48 71q5 42 15 73l4 10q4 15 16 45q25 58 72 97q17 13 47 19l2 1h12q18 -3 37.5 -21t23.5 -35q2 -13 0 -18v-2q-10 -38 -21 -54q-11 -17 -27.5 -35t-30 -30.5t-26.5 -29.5t-20 -32t-7.5 -36.5t9.5 -45.5 q4 -11 19 -22t29 -12q4 0 8 2q11 3 21 14l8 8q1 1 8 9t11 13q44 54 69 94l9 18q1 2 3 7t3 7q7 14 22 9q7 -2 10 -10zM450 258q-18 -37 -26 -77q2 0 4 2q50 40 77 84q6 10 15 36l2 10q-1 18 -10 18q-3 0 -9 -3q-12 -5 -20 -15q-19 -26 -33 -55z" glyph-name="ae" horiz-adv-x="610" unicode=""/><glyph d="M328 255q12 -5 12 -15t-4 -15l-9 -15q-3 -6 -17.5 -29t-22.5 -36l-43 -63q-1 -2 -8 -12t-11 -16q-35 -50 -85 -82q-10 -6 -15 -8l-3 -27h1q35 -5 51 -22q18 -20 15 -47q-4 -27 -26 -40q-13 -9 -34 -9q-10 0 -22 3q-23 3 -28 8q-9 3 -12.5 11.5t-0.5 17.5q4 9 13 13t17 0 q31 -12 44 -5q2 2 3 7q1 6 -2 9q-6 6 -24 9l-20 1q-10 -1 -18 7t-6 18l5 43q-11 2 -29 13q-32 22 -41 55q0 3 -2 9q-8 38 -4 57v3q-3 57 21 121l1 4q4 14 5 16q6 33 40 82l1 1l2 3q23 31 58 31q22 0 44 -14q17 -12 23 -37q12 -42 -5 -80q-4 -10 -12 -11h-3q-11 0 -14 9 q-1 6 0 15q5 23 7 30q6 19 -11 44q-3 4 -8 1q-12 -7 -17 -17q-2 -3 -3.5 -8t-2.5 -7q-31 -108 -38 -178v-15q-1 -28 6 -50q1 -7 7 -10q18 -12 42 -12q1 0 6 3q37 35 51 61q6 10 24 35q2 2 11 16q48 68 70 113q3 5 4 6q8 10 17 5z" glyph-name="ccedilla" horiz-adv-x="280" unicode=""/><glyph d="M122 -38q-17 0 -47 8q-30 9 -47 43q-31 69 -28 118q5 44 15 77l4 10q4 15 16 45q25 58 72 97q17 13 47 19l2 1h12q18 -3 37.5 -21t23.5 -35q2 -13 0 -18v-2q-10 -38 -21 -54q-11 -17 -27.5 -35t-30 -30.5t-26.5 -29.5t-20 -32t-7.5 -36.5t9.5 -45.5q4 -11 19 -22t29 -12 q4 0 8 2q11 3 21 14l8 8q1 1 8 9t11 13q44 54 69 94l9 18q1 2 3 6.5t3 7.5q7 14 22 9q7 -2 10 -10q4 -9 -1 -17q-44 -73 -74 -110q-8 -10 -12 -14q-11 -11 -18 -21q-16 -22 -55 -43l-7 -3q-12 -8 -29 -8h-6h-2zM101 181q2 0 4 2q50 40 77 84q6 10 15 36l2 10q-1 18 -10 18 q-3 0 -9 -3q-12 -5 -20 -15q-19 -26 -33 -55q-18 -37 -26 -77zM199 447q-1 0 -2.5 0.5t-2.5 0.5l-7 2l-1 2q-6 8 -15 12q-12 8 -17 13l-4 4q-21 26 -73 62q-12 9 -12 23q0 8 3 14q10 22 31 22q8 0 17 -9q7 -6 19 -18q7 -7 25 -23q6 -6 9 -10q28 -25 29 -26q18 -14 26 -37 q0 -2 1 -3q3 -12 1 -17q-1 -2 -4 -5q-10 -10 -23 -7z" glyph-name="egrave" horiz-adv-x="277" unicode=""/><glyph d="M122 -38q-17 0 -47 8q-30 9 -47 43q-31 69 -28 118q5 44 15 77l4 10q4 15 16 45q25 58 72 97q17 13 47 19l2 1h12q18 -3 37.5 -21t23.5 -35q2 -13 0 -18v-2q-10 -38 -21 -54q-11 -17 -27.5 -35t-30 -30.5t-26.5 -29.5t-20 -32t-7.5 -36.5t9.5 -45.5q4 -11 19 -22t29 -12 q4 0 8 2q11 3 21 14l8 8q1 1 8 9t11 13q44 54 69 94l9 18q1 2 3 6.5t3 7.5q7 14 22 9q7 -2 10 -10q4 -9 -1 -17q-44 -73 -74 -110q-8 -10 -12 -14q-11 -11 -18 -21q-16 -22 -55 -43l-7 -3q-12 -8 -29 -8h-6h-2zM101 181q2 0 4 2q50 40 77 84q6 10 15 36l2 10q-1 18 -10 18 q-3 0 -9 -3q-12 -5 -20 -15q-19 -26 -33 -55q-18 -37 -26 -77zM101 443q-8 0 -14 3q-22 10 -22 30q0 10 8 18l19 19q7 8 23 24q3 4 9 10q25 28 26 29q15 18 38 26q1 0 2 1q12 3 17 1q4 -2 6 -4q10 -10 7 -23q-1 -2 -1 -5l-2 -7l-2 -1q-6 -5 -13 -15q-5 -11 -13 -17l-1 -1 q-1 -2 -2 -3q-26 -21 -62 -73q-9 -12 -23 -12z" glyph-name="eacute" horiz-adv-x="277" unicode=""/><glyph d="M122 -38q-17 0 -47 8q-30 9 -47 43q-31 69 -28 118q5 44 15 77l4 10q4 15 16 45q25 58 72 97q17 13 47 19l2 1h12q18 -3 37.5 -21t23.5 -35q2 -13 0 -18v-2q-10 -38 -21 -54q-11 -17 -27.5 -35t-30 -30.5t-26.5 -29.5t-20 -32t-7.5 -36.5t9.5 -45.5q4 -11 19 -22t29 -12 q4 0 8 2q11 3 21 14l8 8q1 1 8 9t11 13q44 54 69 94l9 18q1 2 3 6.5t3 7.5q7 14 22 9q7 -2 10 -10q4 -9 -1 -17q-44 -73 -74 -110q-8 -10 -12 -14q-11 -11 -18 -21q-16 -22 -55 -43l-7 -3q-12 -8 -29 -8h-6h-2zM101 181q2 0 4 2q50 40 77 84q6 10 15 36l2 10q-1 18 -10 18 q-3 0 -9 -3q-12 -5 -20 -15q-19 -26 -33 -55q-18 -37 -26 -77zM78 438q-8 0 -13 7q-2 3 -6 7q-14 16 -15 30q0 18 3 27q19 46 65 115q6 8 9 11l2 3q10 12 25 5l6 -2q22 -11 29 -18q51 -45 63 -91q1 -5 11 -27q1 -1 2.5 -4t2.5 -5.5t2 -4.5q5 -12 -4 -21q-10 -5 -11 -5 q-3 0 -7 2q-11 6 -15 17q-2 4 -4.5 12t-3.5 11l-2 6q-14 38 -44 71q-1 -2 -4 -6.5t-4 -6.5q-19 -45 -42 -73q-11 -13 -27 -43l-4 -8q-5 -9 -14 -9z" glyph-name="ecircumflex" horiz-adv-x="277" unicode=""/><glyph d="M122 -38q-17 0 -47 8q-30 9 -47 43q-31 69 -28 118q5 44 15 77l4 10q4 15 16 45q25 58 72 97q17 13 47 19l2 1h12q18 -3 37.5 -21t23.5 -35q2 -13 0 -18v-2q-10 -38 -21 -54q-11 -17 -27.5 -35t-30 -30.5t-26.5 -29.5t-20 -32t-7.5 -36.5t9.5 -45.5q4 -11 19 -22t29 -12 q4 0 8 2q11 3 21 14l8 8q1 1 8 9t11 13q44 54 69 94l9 18q1 2 3 6.5t3 7.5q7 14 22 9q7 -2 10 -10q4 -9 -1 -17q-44 -73 -74 -110q-8 -10 -12 -14q-11 -11 -18 -21q-16 -22 -55 -43l-7 -3q-12 -8 -29 -8h-6h-2zM101 181q2 0 4 2q50 40 77 84q6 10 15 36l2 10q-1 18 -10 18 q-3 0 -9 -3q-12 -5 -20 -15q-19 -26 -33 -55q-18 -37 -26 -77zM78 512q-24 -3 -36.5 18.5t-4 46.5t34.5 30q32 6 48 -10t10.5 -39t-27.5 -36q-12 -8 -25 -10zM226 512q-24 -3 -36.5 18.5t-4 46.5t35.5 30q32 6 47.5 -10t10 -39t-27.5 -36q-13 -8 -25 -10z" glyph-name="edieresis" horiz-adv-x="277" unicode=""/><glyph d="M115 384q-1 0 -2.5 0.5t-2.5 0.5l-7 2l-1 2q-6 7 -15 12q-12 8 -17 13l-4 4q-21 26 -73 62q-12 9 -12 23q0 8 3 14q10 22 31 22q8 0 17 -9q7 -6 19 -18q7 -7 25 -23q6 -6 9 -10q28 -25 29 -26q18 -14 26 -37q0 -2 1 -3q3 -12 1 -17q-1 -2 -4 -5q-10 -10 -23 -7zM71 -18 q-20 0 -37 10q-43 26 -53 65l-1 6q-12 50 -7 79q1 5 2 10.5t2 12.5t2 11l4 28q6 25 16 44q14 24 37 24q6 0 9 -1q3 0 5 -1h1q2 0 3 1q1 0 3.5 0.5t4.5 0.5q5 0 12 -5q8 -9 3 -25q0 -2 -1 -4q-17 -87 -19 -137q0 -1 -0.5 -5t-0.5 -6v-16q-1 -16 18 -37q5 -5 13 -5q26 1 38 13 q27 27 42 57q7 13 30 53l7 14q4 5 12 11q2 1 6 1q10 0 13 -10q2 -8 1 -14q-4 -12 -8 -18l-11 -20q-29 -50 -34 -58q-25 -39 -72 -68q-20 -11 -38 -11h-2z" glyph-name="igrave" horiz-adv-x="196" unicode=""/><glyph d="M18 416q-8 0 -14 3q-22 10 -22 30q0 10 8 18l19 19q7 8 23 24q3 4 9 10q25 28 26 29q15 18 38 26q1 0 2 1q12 3 17 1q4 -2 6 -4q10 -10 7 -23q-1 -2 -1 -5l-2 -7l-2 -1q-6 -5 -13 -15q-5 -11 -13 -17l-1 -1q-1 -2 -2 -3q-26 -21 -62 -73q-9 -12 -23 -12zM70 -18 q-20 0 -37 10q-43 26 -53 65l-1 6q-12 50 -7 79q1 5 2 10.5t2 12.5t2 11l4 28q6 25 16 44q14 24 37 24q6 0 9 -1q3 0 5 -1h1q2 0 3 1q1 0 3.5 0.5t4.5 0.5q5 0 12 -5q8 -9 3 -25q0 -2 -1 -4q-17 -87 -19 -137q0 -1 -0.5 -5t-0.5 -6v-16q-1 -16 18 -37q5 -5 13 -5q26 1 38 13 q27 27 42 57q7 13 30 53l7 14q4 5 12 11q2 1 6 1q10 0 13 -10q2 -8 1 -14q-4 -12 -8 -18l-11 -20q-29 -50 -34 -58q-25 -39 -72 -68q-20 -11 -38 -11h-2z" glyph-name="iacute" horiz-adv-x="195" unicode=""/><glyph d="M5 425q-8 0 -13 7q-2 3 -6 7q-14 16 -15 30q0 18 3 27q19 46 65 115q6 8 9 11l2 3q10 12 25 5l6 -2q22 -11 29 -18q51 -45 63 -91q1 -5 11 -27q1 -1 2.5 -4t2.5 -5.5t2 -4.5q5 -12 -4 -21q-10 -5 -11 -5q-3 0 -7 2q-11 6 -15 17q-2 4 -4.5 12t-3.5 11l-2 6q-14 38 -44 71 q-1 -2 -4 -6.5t-4 -6.5q-19 -45 -42 -73q-11 -13 -27 -43l-4 -8q-5 -9 -14 -9zM109 -18q-20 0 -37 10q-43 26 -53 65l-1 6q-12 50 -7 79q1 5 2 10.5t2 12.5t2 11l4 28q6 25 16 44q14 24 37 24q6 0 9 -1q3 0 5 -1h1q2 0 3 1q1 0 3.5 0.5t4.5 0.5q5 0 12 -5q8 -9 3 -25 q0 -2 -1 -4q-17 -87 -19 -137q0 -1 -0.5 -5t-0.5 -6v-16q-1 -16 18 -37q5 -5 13 -5q26 1 38 13q27 27 42 57q7 13 30 53l7 14q4 5 12 11q2 1 6 1q10 0 13 -10q2 -8 1 -14q-4 -12 -8 -18l-11 -20q-29 -50 -34 -58q-25 -39 -72 -68q-20 -11 -38 -11h-2z" glyph-name="icircumflex" horiz-adv-x="234" unicode=""/><glyph d="M14 464q-24 -3 -36.5 18.5t-4 46.5t34.5 30q32 6 48 -10t10.5 -39t-27.5 -36q-12 -8 -25 -10zM162 464q-24 -3 -36.5 18.5t-4 46.5t35.5 30q32 6 47.5 -10t10 -39t-27.5 -36q-13 -8 -25 -10zM111 -18q-20 0 -37 10q-43 26 -53 65l-1 6q-12 50 -7 79q1 5 2 10.5t2 12.5 t2 11l4 28q6 25 16 44q14 24 37 24q6 0 9 -1q3 0 5 -1h1q2 0 3 1q1 0 3.5 0.5t4.5 0.5q5 0 12 -5q8 -9 3 -25q0 -2 -1 -4q-17 -87 -19 -137q0 -1 -0.5 -5t-0.5 -6v-16q-1 -16 18 -37q5 -5 13 -5q26 1 38 13q27 27 42 57q7 13 30 53l7 14q4 5 12 11q2 1 6 1q10 0 13 -10 q2 -8 1 -14q-4 -12 -8 -18l-11 -20q-29 -50 -34 -58q-25 -39 -72 -68q-20 -11 -38 -11h-2z" glyph-name="idieresis" horiz-adv-x="236" unicode=""/><glyph d="M461 245q13 -8 6 -20l-3.5 -7t-3.5 -8l-10 -19q-34 -69 -71 -122q-14 -20 -21 -31l-8 -12q-22 -34 -64 -49q-13 -5 -27 -5q-24 0 -43 19q-28 28 -35 56q0 2 -1 4v2l-2 -3l-21 -22l-3 -3q-12 -15 -30 -31q-40 -33 -78 2q-65 61 -39 146q16 57 39 99q3 4 8.5 11.5t7.5 11.5 l10 13q8 13 31 24q27 13 47 -3v5q-3 61 20 155q2 6 2 10l-74 -3q-32 -2 -46 11q-6 5 -8 13q-3 22 38 37q20 7 42 5q9 0 27 -0.5t28 -0.5h5q2 10 3 16q13 60 43 106q21 33 56 25q14 -3 32 -19l4 -3q10 -8 12 -30q1 -19 0 -37q0 -18 1 -27q1 -6 -2 -36h24q50 1 86 -12 q1 -1 2 -1t2 -1q19 -5 20 -12q0 -3 -2 -7q-7 -13 -38 -21l-12 -3l-13 -3l-6 1q-11 2 -40 0q-24 -2 -35 -1v-1q-1 -3 -1.5 -9.5t-0.5 -9.5t-0.5 -8.5t-1 -10t-1.5 -8.5l-12 -55l-9 -45l-3 -11l-3 -15q-11 -52 -37 -103l-7 -12l-6 -12q-6 -11 -4 -24l5 -40q3 -14 7 -47 q2 -21 34 -42q2 0 5 1q14 8 25 20q13 13 27 36q2 3 5.5 8t5.5 8l6 9q2 4 8 12q37 52 72 127q2 6 5 9q10 12 21 3zM224 628q0 -1 0.5 -2.5t0.5 -2.5h-2l2 -6q1 3 4 4q1 2 4 5q-1 1 0 2.5t1 2.5l-3 1q-4 -2 -7 -4zM298 605q-9 -24 -21 -78q4 0 12 -0.5t11 -0.5q1 1 1 4 q6 44 2 86zM204 552l-5 -23h8q4 6 7 9q2 6 1 8q-6 19 13 40l1 4q-12 2 -2 7q3 3 3 4q-3 4 -9 6q-4 -4 -3 -5q-13 -43 -14 -50zM191 440q2 12 2 14q-2 10 -1 14h-6q-1 -4 -3 -12.5t-3 -12.5q-2 -10 -5.5 -29t-4.5 -27h1q-1 -4 -1 -11.5t-1 -11.5q0 -1 3 -4l2 1q2 1 3 2t1 9 q0 1 2 13t4 18q0 1 0.5 3t0.5 3q-4 13 6 31zM222 212v-7q31 61 37 101l3 15q4 18 7 27q2 8 6.5 27.5t6.5 30.5q3 17 10 60q-5 0 -13.5 0.5t-12.5 0.5q-5 -25 -15 -51q-10 -24 -13 -48l-6 -49q-8 -52 -8 -79q0 -8 -2 -28zM162 89q7 9 5 20l-3 23q-4 34 -9 52q-5 15 -10 40 q-1 4 -2 11t-2 10l-6 20h-2h-1q-6 -3 -7 -7q-1 -2 -2.5 -4t-1.5 -3q-1 -2 -7 -17q-20 -60 -26 -155q-1 -16 2 -37v-2q0 -3 4 -7q1 -1 5 -3q1 -1 3.5 -2.5t3.5 -2.5l1 -1l2 2q34 33 53 63zM73 130q0 1 1 1q0 2 -1 4q-1 0 -3 1q-1 -1 -4 -1v-2q-2 -1 0 -3l3 -2l1 8zM61 59v1 q0 1 -3 4h-1h-1q-3 0 -3 -2t1 -3q0 -1 3 -3l1 8v-8z" glyph-name="eth" horiz-adv-x="600" unicode=""/><glyph d="M261 -80q-23 0 -40 28q-31 55 -43 115q-3 19 -1 43q0 3 0.5 9.5t0.5 9.5v65q-16 -19 -29 -44l-78 -135q-9 -17 -28 -17q-14 0 -22 8q-12 10 -19 38v3q-2 7 -2 30q2 12 2 20q2 16 2 23q1 19 5 57q4 31 5 50q0 13 3 26q3 27 2 33q0 7 5 19l3 8q4 9 6.5 13t8.5 7t16 3h12 q24 -1 31 -10q6 -7 3 -33q-4 -29 -7 -47q-1 -8 -5 -29q0 -5 -2 -15q-2 -26 -8 -43q-1 -2 -1 -4l-1 -5q-1 -4 -1 -10q0 -13 -2 -39l48 80q13 22 43 59l9 9q14 18 22 26q13 15 30 15q23 0 35 -30q16 -50 9 -88q-1 -4 -1 -23l9 -115v-2q0 -1 0.5 -3.5t1.5 -3.5q19 -29 35 -42 q3 -3 5 -3q1 0 6 3q25 22 35 38q39 69 56 101q2 3 3.5 7t4 9.5t3.5 8.5q0 2 1.5 6t2.5 6q2 2 2 5q2 4 4 10q5 9 14 9h2q10 -1 15 -11q3 -7 -1 -18l-6 -14l-13 -28q-21 -44 -71 -128q-28 -46 -85 -55h-5h-6q-4 0 -5 -1q-8 -4 -19 -4zM209 5q5 9 5 40q1 7 1 20q0 22 -2 31 q0 4 -2 13t-2 13q0 2 0.5 18t-2.5 17q-3 9 -3 12t2.5 10.5t2.5 13.5q-11 1 -11 25q0 4 4 5.5t-3 3.5q-1 -2 -3.5 -7.5t-2.5 -8.5q1 -18 2 -45t3 -45q1 -13 2 -40t2 -41q0 -5 3 -16.5t4 -18.5zM249 4l2.5 2.5t1.5 2.5l-15 58q4 -36 5 -59zM118 416h-1q-1 1 -2 1 q-12 2 -19.5 11t-6.5 21q11 46 39 64q37 23 89 8q26 -6 36 1q11 8 11 24q1 11 9.5 19t20.5 8q33 1 26 -35q-7 -37 -42 -63q-22 -17 -44 -15q-8 0 -24 3.5t-24 4.5q-15 1 -24 -7t-12.5 -18t-11.5 -18.5t-20 -8.5z" glyph-name="ntilde" horiz-adv-x="428" unicode=""/><glyph d="M49 -70q-23 0 -42 17q-21 18 -30 42q-12 36 -12 78q3 108 46 189q11 22 41 72l16 27q8 12 13 17q13 15 34 10q12 -3 30 -15l6 -3q11 -8 9 -24q-3 -14 12 -22q39 -25 42 -80q2 -43 -12 -101q0 -3 -2 -7q-2 -8 -1 -11q5 -4 20 2q37 17 59 36q14 14 44 39q4 5 14 5 q9 0 12 -5q5 -5 3 -11q-2 -11 -7 -15q-16 -12 -32 -26q-38 -34 -61 -46q-25 -14 -47 -18t-31 -27q-19 -49 -60 -92q-21 -21 -44 -28q-11 -3 -20 -3zM144 109h3q8 0 11 2t5 10l4 11q16 56 13 81v12v19q0 16 -11 29q-10 10 -17 10q-8 0 -14 -11q-1 -2 -7 -13l-1 -2 q-1 -2 -3.5 -6.5t-3.5 -7.5q-6 -13 -13 -26l-1 -2q-11 -22 -26 -47q-9 -11 0 -27q13 -27 41 -31q3 0 9.5 -0.5t10.5 -0.5zM76 -19q3 0 6 2q37 26 60 88l-13 3q-44 1 -68 33q-1 0 -1 -2q-6 -17 -12 -55l-3 -20q-1 -36 26 -48q2 -1 5 -1zM223 436q-1 0 -2.5 0.5t-2.5 0.5l-7 2 l-1 2q-6 7 -15 12q-12 8 -17 13l-4 4q-21 26 -73 62q-12 9 -12 23q0 8 3 14q10 22 31 22q8 0 17 -9q7 -6 19 -18q7 -7 25 -23q6 -6 9 -10q28 -25 29 -26q18 -14 26 -37q0 -2 1 -3q3 -12 1 -17q-1 -2 -4 -5q-10 -10 -23 -7z" glyph-name="ograve" unicode=""/><glyph d="M49 -70q-23 0 -42 17q-21 18 -30 42q-12 36 -12 78q3 108 46 189q11 22 41 72l16 27q8 12 13 17q13 15 34 10q12 -3 30 -15l6 -3q11 -8 9 -24q-3 -14 12 -22q39 -25 42 -80q2 -43 -12 -101q0 -3 -2 -7q-2 -8 -1 -11q5 -4 20 2q37 17 59 36q14 14 44 39q4 5 14 5 q9 0 12 -5q5 -5 3 -11q-2 -11 -7 -15q-16 -12 -32 -26q-38 -34 -61 -46q-25 -14 -47 -18t-31 -27q-19 -49 -60 -92q-21 -21 -44 -28q-11 -3 -20 -3zM144 109h3q8 0 11 2t5 10l4 11q16 56 13 81v12v19q0 16 -11 29q-10 10 -17 10q-8 0 -14 -11q-1 -2 -7 -13l-1 -2 q-1 -2 -3.5 -6.5t-3.5 -7.5q-6 -13 -13 -26l-1 -2q-11 -22 -26 -47q-9 -11 0 -27q13 -27 41 -31q3 0 9.5 -0.5t10.5 -0.5zM76 -19q3 0 6 2q37 26 60 88l-13 3q-44 1 -68 33q-1 0 -1 -2q-6 -17 -12 -55l-3 -20q-1 -36 26 -48q2 -1 5 -1zM125 431q-8 0 -14 3q-22 10 -22 30 q0 10 8 18l19 19q7 8 23 24q3 4 9 10q25 28 26 29q15 18 38 26q1 0 2 1q12 3 17 1q4 -2 6 -4q10 -10 7 -23q-1 -2 -1 -5l-2 -7l-2 -1q-6 -5 -13 -15q-5 -11 -13 -17l-1 -1q-1 -2 -2 -3q-26 -21 -62 -73q-9 -12 -23 -12z" glyph-name="oacute" unicode=""/><glyph d="M49 -70q-23 0 -42 17q-21 18 -30 42q-12 36 -12 78q3 108 46 189q11 22 41 72l16 27q8 12 13 17q13 15 34 10q12 -3 30 -15l6 -3q11 -8 9 -24q-3 -14 12 -22q39 -25 42 -80q2 -43 -12 -101q0 -3 -2 -7q-2 -8 -1 -11q5 -4 20 2q37 17 59 36q14 14 44 39q4 5 14 5 q9 0 12 -5q5 -5 3 -11q-2 -11 -7 -15q-16 -12 -32 -26q-38 -34 -61 -46q-25 -14 -47 -18t-31 -27q-19 -49 -60 -92q-21 -21 -44 -28q-11 -3 -20 -3zM144 109h3q8 0 11 2t5 10l4 11q16 56 13 81v12v19q0 16 -11 29q-10 10 -17 10q-8 0 -14 -11q-1 -2 -7 -13l-1 -2 q-1 -2 -3.5 -6.5t-3.5 -7.5q-6 -13 -13 -26l-1 -2q-11 -22 -26 -47q-9 -11 0 -27q13 -27 41 -31q3 0 9.5 -0.5t10.5 -0.5zM76 -19q3 0 6 2q37 26 60 88l-13 3q-44 1 -68 33q-1 0 -1 -2q-6 -17 -12 -55l-3 -20q-1 -36 26 -48q2 -1 5 -1zM66 429q-8 0 -13 7q-2 3 -6 7 q-14 16 -15 30q0 18 3 27q19 46 65 115q6 8 9 11l2 3q10 12 25 5l6 -2q22 -11 29 -18q51 -45 63 -91q1 -5 11 -27l7 -14q5 -12 -4 -21q-10 -5 -11 -5q-3 0 -7 2q-11 6 -15 17q-2 4 -4.5 12t-3.5 11l-2 6q-14 38 -44 71q-1 -2 -4 -6.5t-4 -6.5q-19 -45 -42 -73 q-11 -13 -27 -43l-4 -8q-5 -9 -14 -9z" glyph-name="ocircumflex" unicode=""/><glyph d="M49 -70q-23 0 -42 17q-21 18 -30 42q-12 36 -12 78q3 108 46 189q11 22 41 72l16 27q8 12 13 17q13 15 34 10q12 -3 30 -15l6 -3q11 -8 9 -24q-3 -14 12 -22q39 -25 42 -80q2 -43 -12 -101q0 -3 -2 -7q-2 -8 -1 -11q5 -4 20 2q37 17 59 36q14 14 44 39q4 5 14 5 q9 0 12 -5q5 -5 3 -11q-2 -11 -7 -15q-16 -12 -32 -26q-38 -34 -61 -46q-25 -14 -47 -18t-31 -27q-19 -49 -60 -92q-21 -21 -44 -28q-11 -3 -20 -3zM144 109h3q8 0 11 2t5 10l4 11q16 56 13 81v12v19q0 16 -11 29q-10 10 -17 10q-8 0 -14 -11q-1 -2 -7 -13l-1 -2 q-1 -2 -3.5 -6.5t-3.5 -7.5q-6 -13 -13 -26l-1 -2q-11 -22 -26 -47q-9 -11 0 -27q13 -27 41 -31q3 0 9.5 -0.5t10.5 -0.5zM76 -19q3 0 6 2q37 26 60 88l-13 3q-44 1 -68 33q-1 0 -1 -2q-6 -17 -12 -55l-3 -20q-1 -36 26 -48q2 -1 5 -1zM88 423l-1 1h-2q-12 2 -19.5 11 t-6.5 21q11 46 39 64q37 23 89 8q26 -6 36 1q11 8 11 24q1 11 9.5 19t20.5 8q33 1 26 -35q-7 -37 -42 -63q-22 -17 -44 -15q-8 0 -24 3.5t-24 4.5q-15 1 -24 -7t-12.5 -18t-11.5 -18.5t-20 -8.5z" glyph-name="otilde" unicode=""/><glyph d="M49 -70q-23 0 -42 17q-21 18 -30 42q-12 36 -12 78q3 108 46 189q11 22 41 72l16 27q8 12 13 17q13 15 34 10q12 -3 30 -15l6 -3q11 -8 9 -24q-3 -14 12 -22q39 -25 42 -80q2 -43 -12 -101q0 -3 -2 -7q-2 -8 -1 -11q5 -4 20 2q37 17 59 36q14 14 44 39q4 5 14 5 q9 0 12 -5q5 -5 3 -11q-2 -11 -7 -15q-16 -12 -32 -26q-38 -34 -61 -46q-25 -14 -47 -18t-31 -27q-19 -49 -60 -92q-21 -21 -44 -28q-11 -3 -20 -3zM144 109h3q8 0 11 2t5 10l4 11q16 56 13 81v12v19q0 16 -11 29q-10 10 -17 10q-8 0 -14 -11q-1 -2 -7 -13l-1 -2 q-1 -2 -3.5 -6.5t-3.5 -7.5q-6 -13 -13 -26l-1 -2q-11 -22 -26 -47q-9 -11 0 -27q13 -27 41 -31q3 0 9.5 -0.5t10.5 -0.5zM76 -19q3 0 6 2q37 26 60 88l-13 3q-44 1 -68 33q-1 0 -1 -2q-6 -17 -12 -55l-3 -20q-1 -36 26 -48q2 -1 5 -1zM96 446q-24 -3 -36.5 18.5t-4 46.5 t34.5 30q32 6 48 -10t10.5 -39t-27.5 -36q-12 -8 -25 -10zM244 446q-24 -3 -36.5 18.5t-4 46.5t35.5 30q32 6 47.5 -10t10 -39t-27.5 -36q-13 -8 -25 -10z" glyph-name="odieresis" unicode=""/><glyph d="M49 -70q-23 0 -42 17q-21 18 -30 42q-12 36 -12 78q3 108 46 189q11 22 41 72l16 27q8 12 13 17q13 15 34 10q12 -3 30 -15l6 -3q11 -8 9 -24q-3 -14 12 -22q39 -25 42 -80q2 -43 -12 -101q0 -3 -2 -7q-2 -8 -1 -11q5 -4 20 2q37 17 59 36q14 14 44 39q4 5 14 5 q9 0 12 -5q5 -5 3 -11q-2 -11 -7 -15q-16 -12 -32 -26q-38 -34 -61 -46q-25 -14 -47 -18t-31 -27q-19 -49 -60 -92q-21 -21 -44 -28q-11 -3 -20 -3zM144 109h3q8 0 11 2t5 10l4 11q16 56 13 81v12v19q0 16 -11 29q-10 10 -17 10q-8 0 -14 -11q-1 -2 -7 -13l-1 -2 q-1 -2 -3.5 -6.5t-3.5 -7.5q-6 -13 -13 -26l-1 -2q-11 -22 -26 -47q-9 -11 0 -27q13 -27 41 -31q3 0 9.5 -0.5t10.5 -0.5zM76 -19q3 0 6 2q37 26 60 88l-13 3q-44 1 -68 33q-1 0 -1 -2q-6 -17 -12 -55l-3 -20q-1 -36 26 -48q2 -1 5 -1z" glyph-name="oslash" unicode=""/><glyph d="M418 182q13 -4 11 -15l-3 -12q-20 -56 -32 -83l-9 -20q-1 -2 -2.5 -6t-2.5 -6l-2 -5q-2 -8 -7 -15q-24 -28 -58 -47q-10 -5 -19 -5q-5 0 -19 4q-51 21 -53 78q-1 7 0 16v12q-2 27 7 56q3 9 5 27l-1 -1q-21 -64 -93 -108q-48 -31 -91.5 7.5t-47.5 92.5q-4 56 7 93 q4 14 13 35l4 10q9 19 24 12q2 -1 7 -2l6 -1q11 -2 18 -6t11 -11t6 -12t1 -16t-1.5 -15.5t-3 -17.5t-3.5 -17q-11 -61 15 -106q6 -14 24 -14q11 0 17 5q40 27 59 72q10 24 21 44q4 7 16.5 41t26 53t35.5 23l4 1q11 2 17 -11q12 -21 9 -44q-3 -29 -19 -77q-40 -113 -23 -151 q16 -30 34.5 -23.5t30.5 36.5q7 16 8 20q24 55 30 87q1 6 6 15q5 10 17 7zM236 422q-1 0 -2.5 0.5t-2.5 0.5l-7 2l-1 2q-6 7 -15 12q-12 8 -17 13l-4 4q-21 26 -73 62q-12 9 -12 23q0 8 3 14q10 22 31 22q8 0 17 -9q7 -6 19 -18q7 -7 25 -23q6 -6 9 -10q28 -25 29 -26 q18 -14 26 -37q0 -2 1 -3q3 -12 1 -17q-1 -2 -4 -5q-10 -10 -23 -7z" glyph-name="ugrave" horiz-adv-x="384" unicode=""/><glyph d="M418 182q13 -4 11 -15l-3 -12q-20 -56 -32 -83l-9 -20q-1 -2 -2.5 -6t-2.5 -6l-2 -5q-2 -8 -7 -15q-24 -28 -58 -47q-10 -5 -19 -5q-5 0 -19 4q-51 21 -53 78q-1 7 0 16v12q-2 27 7 56q3 9 5 27l-1 -1q-21 -64 -93 -108q-48 -31 -91.5 7.5t-47.5 92.5q-4 56 7 93 q4 14 13 35l4 10q9 19 24 12q2 -1 7 -2l6 -1q11 -2 18 -6t11 -11t6 -12t1 -16t-1.5 -15.5t-3 -17.5t-3.5 -17q-11 -61 15 -106q6 -14 24 -14q11 0 17 5q40 27 59 72q10 24 21 44q4 7 16.5 41t26 53t35.5 23l4 1q11 2 17 -11q12 -21 9 -44q-3 -29 -19 -77q-40 -113 -23 -151 q16 -30 34.5 -23.5t30.5 36.5q7 16 8 20q24 55 30 87q1 6 6 15q5 10 17 7zM156 425q-8 0 -14 3q-22 10 -22 30q0 10 8 18l19 19q7 8 23 24q3 4 9 10q25 28 26 29q15 18 38 26q1 0 2 1q12 3 17 1q4 -2 6 -4q10 -10 7 -23q-1 -2 -1 -5l-2 -7l-2 -1q-6 -5 -13 -15 q-5 -11 -13 -17l-1 -1q-1 -2 -2 -3q-26 -21 -62 -73q-9 -12 -23 -12z" glyph-name="uacute" horiz-adv-x="384" unicode=""/><glyph d="M418 182q13 -4 11 -15l-3 -12q-20 -56 -32 -83l-9 -20q-1 -2 -2.5 -6t-2.5 -6l-2 -5q-2 -8 -7 -15q-24 -28 -58 -47q-10 -5 -19 -5q-5 0 -19 4q-51 21 -53 78q-1 7 0 16v12q-2 27 7 56q3 9 5 27l-1 -1q-21 -64 -93 -108q-48 -31 -91.5 7.5t-47.5 92.5q-4 56 7 93 q4 14 13 35l4 10q9 19 24 12q2 -1 7 -2l6 -1q11 -2 18 -6t11 -11t6 -12t1 -16t-1.5 -15.5t-3 -17.5t-3.5 -17q-11 -61 15 -106q6 -14 24 -14q11 0 17 5q40 27 59 72q10 24 21 44q4 7 16.5 41t26 53t35.5 23l4 1q11 2 17 -11q12 -21 9 -44q-3 -29 -19 -77q-40 -113 -23 -151 q16 -30 34.5 -23.5t30.5 36.5q7 16 8 20q24 55 30 87q1 6 6 15q5 10 17 7zM93 398q-8 0 -13 7q-2 3 -6 7q-14 16 -15 30q0 18 3 27q19 46 65 115q6 8 9 11l2 3q10 12 25 5l6 -2q22 -11 29 -18q51 -45 63 -91q1 -5 11 -27q1 -1 2.5 -4t2.5 -5.5t2 -4.5q5 -12 -4 -21 q-10 -5 -11 -5q-3 0 -7 2q-11 6 -15 17q-2 4 -4.5 12t-3.5 11l-2 6q-14 38 -44 71q-1 -2 -4 -6.5t-4 -6.5q-19 -45 -42 -73q-11 -13 -27 -43l-4 -8q-5 -9 -14 -9z" glyph-name="ucircumflex" horiz-adv-x="384" unicode=""/><glyph d="M418 182q13 -4 11 -15l-3 -12q-20 -56 -32 -83l-9 -20q-1 -2 -2.5 -6t-2.5 -6l-2 -5q-2 -8 -7 -15q-24 -28 -58 -47q-10 -5 -19 -5q-5 0 -19 4q-51 21 -53 78q-1 7 0 16v12q-2 27 7 56q3 9 5 27l-1 -1q-21 -64 -93 -108q-48 -31 -91.5 7.5t-47.5 92.5q-4 56 7 93 q4 14 13 35l4 10q9 19 24 12q2 -1 7 -2l6 -1q11 -2 18 -6t11 -11t6 -12t1 -16t-1.5 -15.5t-3 -17.5t-3.5 -17q-11 -61 15 -106q6 -14 24 -14q11 0 17 5q40 27 59 72q10 24 21 44q4 7 16.5 41t26 53t35.5 23l4 1q11 2 17 -11q12 -21 9 -44q-3 -29 -19 -77q-40 -113 -23 -151 q16 -30 34.5 -23.5t30.5 36.5q7 16 8 20q24 55 30 87q1 6 6 15q5 10 17 7zM105 418q-24 -3 -36.5 18.5t-4 46.5t34.5 30q32 6 48 -10t10.5 -39t-27.5 -36q-12 -8 -25 -10zM253 418q-24 -3 -36.5 18.5t-4 46.5t35.5 30q32 6 47.5 -10t10 -39t-27.5 -36q-13 -8 -25 -10z" glyph-name="udieresis" horiz-adv-x="384" unicode=""/><glyph d="M-18 -498q-65 -5 -120 43.5t-57 115.5q-2 60 32 117q3 5 6.5 10.5t8 12t6.5 10.5q3 5 19 29q18 31 60 38q7 1 12 -4q4 -4 4 -12q0 -7 -5 -14q-4 -5 -12 -7q-27 -8 -44 -40l-2 -4q-3 -5 -12 -20.5t-15 -23.5q-15 -22 -19 -53q-4 -26 -1 -58q6 -50 51 -78q60 -40 123.5 1.5 t83.5 109.5q2 5 5.5 13.5t4.5 11.5l2 4q3 7 19.5 58.5t19.5 62.5q10 34 16 51l1 1q7 19 8 30q0 5 5 25q0 2 2 6l2 11l20 74q2 6 5 16.5t5 15.5q1 4 4.5 15.5t5.5 18.5q5 15 16 60q-2 -3 -13 -22l-17 -25.5t-20 -30.5q-21 -31 -40 -47q-32 -28 -87 -28q-12 0 -20 10 q-59 57 -45 135q11 74 30 114q2 4 4 16q4 20 30 27q10 2 26 -2q9 -3 16 -3q13 0 13 -14q0 -21 -7 -40q-22 -67 -22 -152q0 -13 5 -36q4 -8 8 -8q5 0 9 3q36 25 58 57l4 6q30 41 48 74q30 49 56 71l2 2q13 10 14 11q22 11 38 -4q12 -12 9 -25q-1 -2 -3 -15q0 -1 -1 -7.5 t-2 -10.5q-1 -3 -12 -44l-6 -24q-1 -5 -3.5 -13.5t-3.5 -11.5q-11 -42 -12 -46q-6 -33 -20 -74l-5 -17q-7 -25 -28 -103q-2 -8 -6.5 -24t-6.5 -24q-17 -62 -41 -120q-35 -85 -84 -140.5t-125 -61.5zM200 -181q5 5 5 9q22 68 24 76l45 166q3 15 10.5 44t10.5 42h-1l6 36 q0 2 -2 6q-1 -1 -3 -2.5t-3 -2.5q-2 -8 -2 -14q-1 -3 -12 -47q0 -2 -1 -5t-1 -4q1 -20 -13 -48q-5 -19 -5 -21q3 -27 -13 -45q-3 -2 -6 -13q6 -36 -18 -71q-3 -10 -2 -12q2 -26 -21 -62l-2 -5q12 -3 0 -11q-3 -3 -3 -6q1 -2 4 -6zM186 -219q5 4 7 6q0 1 0.5 4t0.5 4h1v9 q-1 -1 -2.5 -3t-2.5 -3t-2.5 -4t-2.5 -4q0 -1 -1 -3.5t-1 -3.5zM168 408q-8 0 -14 3q-22 10 -22 30q0 10 8 18l19 19q7 8 23 24q3 4 9 10q25 28 26 29q15 18 38 26q1 0 2 1q12 3 17 1q4 -2 6 -4q10 -10 7 -23q-1 -2 -1 -5l-2 -7l-2 -1q-6 -5 -13 -15q-5 -11 -13 -17l-1 -1 q-1 -2 -2 -3q-26 -21 -62 -73q-9 -12 -23 -12z" glyph-name="yacute" horiz-adv-x="372" unicode=""/><glyph d="M49 -343q-11 0 -19 8q-13 11 -15 22l-3 10q-8 26 -6 41q0 10 -1 14q-6 39 -4 122v42q0 11 0.5 31t1 36.5t1.5 31.5q4 67 14 107q1 7 3.5 21t4.5 21q1 6 3.5 18t3.5 18q43 342 63 424q1 10 8 23q3 4 9 8q1 0 3 1q2 2 6 2h2q6 0 9 1l10 1q10 0 18 -8q18 -21 13 -45 q-2 -16 -4 -25q0 -3 -1.5 -10.5t-2.5 -11.5l-4 -31q0 -2 -29 -232.5t-36 -270.5q-2 -10 -2 -31v-9v-46q8 22 14 40l12 37q16 52 26 78l17 44q15 43 40 105q16 39 50 93q18 28 47 50q30 21 60 11q19 -6 32 -25t12 -38q-4 -65 -17 -97q-6 -18 -8 -28q-8 -30 -9 -32 q-23 -59 -47 -104l-2 -4q-7 -10 -9 -17q-15 -32 -52 -51q-12 -5 -19 -5q-20 0 -31 24q-13 33 -12 65q0 1 3 13q5 12 16 12h2q14 -2 14 -17q0 -7 -2 -17q-3 -12 3 -26q15 31 23 66q7 33 30 98q20 58 30 129v4v4q-2 2 -4 0q-19 -13 -31 -31q-35 -50 -48 -92q-2 -8 -15 -38 l-6 -14q-37 -89 -89 -256q-24 -73 -30 -140l-3 -26q-4 -36 -4 -52q2 -26 -21 -40q-10 -6 -18 -6zM269 92q7 6 19 36q1 3 3.5 9t3.5 9q6 16 9 30q2 5 2.5 14t1.5 12q1 2 6.5 15t4.5 19q-2 7 0 11.5t6.5 10.5t6.5 11q-5 5 -4.5 13.5t2.5 13.5q2 4 6 4t-2 4q-10 -10 -11 -13 q-4 -17 -12 -43t-13 -43l-24 -77q-2 -6 -3 -18t-2 -18z" glyph-name="thorn" horiz-adv-x="435" unicode=""/><glyph d="M-18 -498q-65 -5 -120 43.5t-57 115.5q-2 60 32 117q3 5 6.5 10.5t8 12t6.5 10.5q3 5 19 29q18 31 60 38q7 1 12 -4q4 -4 4 -12q0 -7 -5 -14q-4 -5 -12 -7q-27 -8 -44 -40l-2 -4q-3 -5 -12 -20.5t-15 -23.5q-15 -22 -19 -53q-4 -26 -1 -58q6 -50 51 -78q60 -40 123.5 1.5 t83.5 109.5q2 5 5.5 13.5t4.5 11.5l2 4q3 7 19.5 58.5t19.5 62.5q10 34 16 51l1 1q7 19 8 30q0 5 5 25q0 2 2 6l2 11l20 74q2 6 5 16.5t5 15.5q1 4 4.5 15.5t5.5 18.5q5 15 16 60q-2 -3 -13 -22l-17 -25.5t-20 -30.5q-21 -31 -40 -47q-32 -28 -87 -28q-12 0 -20 10 q-59 57 -45 135q11 74 30 114q2 4 4 16q4 20 30 27q10 2 26 -2q9 -3 16 -3q13 0 13 -14q0 -21 -7 -40q-22 -67 -22 -152q0 -13 5 -36q4 -8 8 -8q5 0 9 3q36 25 58 57l4 6q30 41 48 74q30 49 56 71l2 2q13 10 14 11q22 11 38 -4q12 -12 9 -25q-1 -2 -3 -15q0 -1 -1 -7.5 t-2 -10.5q-1 -3 -12 -44l-6 -24q-1 -5 -3.5 -13.5t-3.5 -11.5q-11 -42 -12 -46q-6 -33 -20 -74l-5 -17q-7 -25 -28 -103q-2 -8 -6.5 -24t-6.5 -24q-17 -62 -41 -120q-35 -85 -84 -140.5t-125 -61.5zM200 -181q5 5 5 9q22 68 24 76l45 166q3 15 10.5 44t10.5 42h-1l6 36 q0 2 -2 6q-1 -1 -3 -2.5t-3 -2.5q-2 -8 -2 -14q-1 -3 -12 -47q0 -2 -1 -5t-1 -4q1 -20 -13 -48q-5 -19 -5 -21q3 -27 -13 -45q-3 -2 -6 -13q6 -36 -18 -71q-3 -10 -2 -12q2 -26 -21 -62l-2 -5q12 -3 0 -11q-3 -3 -3 -6q1 -2 4 -6zM186 -219q5 4 7 6q0 1 0.5 4t0.5 4h1v9 q-1 -1 -2.5 -3t-2.5 -3t-2.5 -4t-2.5 -4q0 -1 -1 -3.5t-1 -3.5zM120 430q-24 -3 -36.5 18.5t-4 46.5t34.5 30q32 6 48 -10t10.5 -39t-27.5 -36q-12 -8 -25 -10zM268 430q-24 -3 -36.5 18.5t-4 46.5t35.5 30q32 6 47.5 -10t10 -39t-27.5 -36q-13 -8 -25 -10z" glyph-name="ydieresis" horiz-adv-x="372" unicode=""/><glyph d="M767 683q3 -7 0 -15q-3 -10 -14 -13l-31 -12q-53 -21 -92 -31l-11 -3q-64 -15 -101 -29q-4 -2 -7 -2l-8 -3q-14 -5 -15 -22q-4 -25 -15 -77l-15 -63q-7 -40 -22 -91l-1 -3q-4 -14 -3 -20q0 -3 -3 -24q-3 -7 -3 -15v-1q17 0 42 9q2 0 7 2t8 2l58 16q14 4 50 13.5t56 15.5 h4q10 0 16 -7q9 -16 -5 -26q-7 -5 -15 -8q-37 -12 -85 -23q-28 -4 -88 -26q-6 -2 -10 -4q-28 -9 -39 -11q-8 -1 -8 -8q-1 -13 -7 -37q-4 -17 -6 -33q-6 -46 -20 -98q-11 -46 -8 -81q10 -1 25 3q32 10 104 27q52 12 77 20l16 4q12 4 19 6q8 2 16 0q11 -2 14 -14q2 -12 -8 -19 q-3 -2 -8.5 -4t-6.5 -3q-13 -4 -52 -13l-13 -3q-40 -10 -77 -21q-6 -2 -16.5 -4.5t-14.5 -3.5q-9 -4 -17 -5q-26 -8 -39 -11q-16 -2 -24 -2q-26 0 -47 12q-14 8 -18 19l-3 9l-1 -1v-1q-13 -24 -30 -35q-4 -2 -5 -3q-29 -29 -85 -38q-6 -1 -18 -1q-25 0 -55 11q-27 11 -45 46 q-27 54 -33 129q-3 36 2 92q4 47 5 68q4 53 7 77q10 113 55 224q35 85 108 131l26 13q34 14 73 -3l3 -1q2 -2 4 -3q2 -2 4 -2q38 -13 41 -62q0 -10 1 -16q2 1 8 1h2q36 0 81 19q48 21 133 47q32 10 48 16l38 12q32 10 48 14l18 6l7 1q2 0 3.5 0.5t2.5 0.5q13 0 18 -11z M233 -37l2 8q9 25 37 112q1 5 8 23q13 45 14 49q1 5 5 20q4 17 5 23l7 43q11 51 11 80q0 11 4 35q1 2 1.5 5t0.5 5q5 35 -16 81q-11 26 -36 7q-19 -15 -36 -37q-14 -17 -27 -17q-11 0 -15 9q-8 21 11 37l12 12q22 20 34 29q33 24 73 7q26 -11 50 -35v1q14 47 18 76 q-15 -3 -30 -3h-3q-9 0 -17 3h-1q-1 1 -2 1h-5q-11 2 -14 12q0 2 -1 6t-1 6t-2 10v3q-4 17 -7 21q-23 34 -59 15q-13 -6 -24 -19q-35 -43 -52 -97q-15 -43 -37 -148q-4 -22 -5 -34q-2 -33 -7 -91t-6 -78l-4 -50v-17q0 -72 6 -97q7 -25 11 -32q10 -25 29 -24q4 0 6 -1 q6 -3 12 -3q10 0 33 17q9 8 17 27zM279 -33l17 30q0 15 1 22q0 2 0.5 5.5t0.5 5.5q-10 -23 -14 -30q-10 -21 -13 -31v-6q2 1 5 1l1 2q1 1 2 1zM259 -67q10 12 10 19q0 2 -4 8h-1q-2 -1 -3 -1q-1 -3 -4.5 -9.5t-4.5 -9.5q-2 -2 0 -5t5 -3z" glyph-name="OE" horiz-adv-x="600" unicode=""/><glyph d="M598 178q4 -9 -1 -17q-44 -73 -74 -110q-8 -10 -12 -14q-11 -11 -18 -21q-16 -22 -55 -43l-7 -3q-12 -8 -29 -8h-6h-2q-17 0 -47 8q-30 9 -47 43q-26 56 -28 98q-7 -5 -21 -13q-25 -14 -47 -18t-31 -27q-19 -49 -60 -92q-21 -21 -44 -28q-11 -3 -20 -3q-23 0 -42 17 q-21 18 -30 42q-12 36 -12 78q3 108 46 189q11 22 41 72l16 27q8 12 13 17q13 15 34 10q12 -3 30 -15l6 -3q11 -8 9 -24q-3 -14 12 -22q39 -25 42 -80q2 -43 -12 -101q0 -3 -2 -7q-2 -8 -1 -11q5 -4 20 2q38 18 56 33q5 30 12 54l4 10q4 15 16 45q25 58 72 97q17 13 47 19 l2 1h12q18 -3 37.5 -21t23.5 -35q2 -13 0 -18v-2q-10 -38 -21 -54q-11 -17 -27.5 -35t-30 -30.5t-26.5 -29.5t-20 -32t-7.5 -36.5t9.5 -45.5q4 -11 19 -22t29 -12q4 0 8 2q11 3 21 14l8 8q1 1 8 9t11 13q44 54 69 94l9 18q1 2 3 6.5t3 7.5q7 14 22 9q7 -2 10 -10zM399 258 q-18 -37 -26 -77q2 0 4 2q50 40 77 84q6 10 15 36l2 10q-1 18 -10 18q-3 0 -9 -3q-12 -5 -20 -15q-19 -26 -33 -55zM167 132q16 56 13 81v12v19q0 16 -11 29q-10 10 -17 10q-8 0 -14 -11q-1 -2 -7 -13l-1 -2q-1 -2 -3.5 -6.5t-3.5 -7.5q-6 -13 -13 -26l-1 -2 q-11 -22 -26 -47q-9 -11 0 -27q13 -27 41 -31q3 0 9.5 -0.5t10.5 -0.5h3q8 0 11 2t5 10zM82 -17q37 26 60 88l-13 3q-44 1 -68 33q-1 0 -1 -2q-6 -17 -12 -55l-3 -20q-1 -36 26 -48q2 -1 5 -1t6 2z" glyph-name="oe" horiz-adv-x="554" unicode=""/><glyph d="M337 -136q-16 0 -30 14q-12 12 -17 26q-11 24 -18 70q-11 85 -6 186q1 20 1 61t1 72.5t5 60.5q3 24 3 49q0 9 1 13q-3 -5 -10 -25q-5 -12 -31 -83l-17 -46l-12 -32q-15 -38 -26 -70q-12 -39 -53 -125l-10 -18q-4 -10 -12 -20q-10 -12 -25 -14t-27 8q-16 12 -26 35 t-13 37.5t-6.5 49.5t-4.5 40q-4 43 -4 64t3.5 64t3.5 64q1 24 10 105q8 75 9 119q0 17 10 43l3 8q6 15 22 18q14 2 18 2h1q8 0 14 -3t9 -10t5 -12.5t2 -16.5v-15.5t-1 -16t-1 -12.5q-2 -23 -3 -49.5t-1.5 -59t-1.5 -49.5q-1 -20 -5 -96t-3 -117v-54q0 -1 2 -17q0 -2 3 -11.5 t5 -18t1 -10.5q12 24 32 74q2 7 8 21q19 47 48 136.5t57.5 160t66.5 126.5q5 6 8 16q5 16 14 27l2 3q9 15 18 15q3 0 4 -1q15 -4 15 -26v-4q2 -30 2.5 -40t-2.5 -40.5t-3 -39.5q-2 -42 -4 -130q0 -201 -2 -258q-2 -74 -2 -111v-29l54 152q10 26 28 80q35 103 56 153 q8 19 22 59l21 56l30 75q42 112 77 184l2 5q11 24 21 33q10 11 23 0q6 -8 5 -16q0 -7 -4 -14q-13 -21 -33 -67l-4 -8q-30 -67 -63 -155q-16 -40 -23 -60l-8 -19q-22 -54 -44 -114q-20 -54 -41 -118q-2 -5 -5.5 -15t-5.5 -15q-20 -64 -37 -105q-12 -28 -38 -103l-15 -45 l-2 -4q-8 -21 -12 -27q-15 -20 -34 -20zM307 -89q3 5 1 8q-2 24 -4 34q-10 58 -9 108q1 10 1 34l-3 55q-2 39 -4 53q0 2 -1 6q-2 2 -2 4q0 -1 -3 -4q-1 0 -1 -3v-2q2 -48 2 -72q0 -29 4 -85q4 -50 8 -80q2 -8 2 -13l4 -35zM272 793q-8 0 -13 7q-2 3 -6 7q-14 16 -15 30 q0 18 3 27q19 46 65 115q6 8 9 11l2 3q10 12 25 5l6 -2q22 -11 29 -18q51 -45 63 -91q1 -4 11 -27q1 -1 2.5 -4t2.5 -5.5t2 -4.5q5 -12 -4 -21q-10 -5 -11 -5q-3 0 -7 2q-11 6 -15 17q-2 4 -4.5 12t-3.5 11l-2 6q-14 38 -44 71q-1 -2 -4 -6.5t-4 -6.5q-19 -45 -42 -73 q-11 -13 -27 -43l-4 -8q-5 -9 -14 -9z" glyph-name="Wcircumflex" horiz-adv-x="606" unicode=""/><glyph d="M324 -22q-8 0 -13 4q-25 13 -36 30q-43 61 -49 139q-6 61 0 103q-28 -48 -39 -73q-15 -37 -46 -74q-22 -27 -56 -41q-12 -5 -23 -5q-20 0 -36 12t-21 31q-4 15 -5 28v20v8q1 51 18 105q5 16 10 43l2 12q2 12 7 21q11 20 33 12q12 -4 17 -4q18 -3 18 -25q-2 -17 -4 -26 l-3 -14q-14 -59 -19 -77q-13 -46 2 -95l3 -5q2 -3 6 -2q23 11 38 32q13 18 40.5 92t59 129.5t68.5 55.5q4 0 8 -2q13 -6 13 -27v-25q1 -28 -5.5 -77t-8.5 -77.5t8 -76.5q2 -5 2 -16v-3v-10q-2 -8 0 -14q0 -1 1 -2.5l2 -3t1 -2.5q6 -14 6 -16q0 -6 10 -12q4 -3 8 -3q3 0 6 6 q8 15 9 20q3 16 24 58q14 26 27 78q9 37 20 64q4 9 10 27q7 24 22 50l15 27q8 17 22 40l1 3q45 70 75 94q4 4 10.5 2.5t9.5 -6.5q2 -3 1.5 -8t-3.5 -8q-30 -26 -70 -96q-3 -5 -20 -35q-25 -41 -51 -115q-12 -29 -14 -49q-4 -27 -22 -70l-5 -12q-18 -42 -25 -71 q-11 -47 -43 -63q-10 -5 -16 -5zM208 466q-8 0 -13 7q-2 3 -6 7q-14 16 -15 30q0 18 3 27q19 46 65 115q6 8 9 11l2 3q10 12 25 5l6 -2q22 -11 29 -18q51 -45 63 -91q1 -5 11 -27l7 -14q5 -12 -4 -21q-10 -5 -11 -5q-3 0 -7 2q-11 6 -15 17q-2 4 -4.5 12t-3.5 11l-2 6 q-14 38 -44 71q-1 -2 -4 -6.5t-4 -6.5q-19 -45 -42 -73q-11 -13 -27 -43l-4 -8q-5 -9 -14 -9z" glyph-name="wcircumflex" horiz-adv-x="543" unicode=""/><glyph d="M176 -195q-19 0 -30 16q-25 29 -19 59q11 60 22 92q1 3 2 8t2 7q1 11 6 22q6 15 17 54q2 7 6 19.5t5 17.5q17 45 28 93q3 14 17 59q2 6 5.5 17t5.5 16l2 9q7 24 10 31q-7 -7 -11 -10l-25 -24q-19 -18 -59 -34q-10 -5 -19 -8q-1 -1 -3 -1q-9 -2 -25 -2q-60 0 -90 51 l-15 30l-2 6q-6 13 -6 46l1 5q1 42 0 87l3 42q3 13 3 27q1 10 8 47q4 15 6 29q3 23 25 29q15 3 31 6q17 2 24 -14v-1q11 -28 4 -46q-15 -44 -15 -94q0 -11 -2 -29q-2 -34 -1 -43l5 -44l3 -27q1 -14 15 -38l2 -3q6 -10 27 -10q5 0 7 1q20 6 30 14q6 6 18 14q19 15 24 22 q4 6 16 14q5 5 8 7q32 31 83 115l3 9q1 1 1 2q1 2 1 3l3 9q1 2 4 9t5 11q17 34 26 61q3 7 18 38l7 13q4 8 12.5 24.5t12.5 24.5q2 4 5 7l3 7q10 18 31 18q22 0 33 -19q6 -13 3 -25q-3 -7 -7 -23q-10 -42 -21 -60q-10 -15 -19 -47q-1 -2 -3.5 -9t-3.5 -11q-1 -1 -1 -3t-1 -3 q0 -2 -1.5 -6t-2.5 -6q-9 -19 -25 -57q-42 -99 -48 -115q-3 -7 -19 -54l-4 -13q-2 -8 -8 -26q-20 -68 -30 -92q-8 -22 -12 -48q-6 -31 -32 -105l-1 -2q-28 -74 -34 -121q-2 -12 -4 -17q-4 -14 -3 -21q0 -5 -2 -7q-7 -24 -24 -28q-8 -2 -11 -2zM200 298q3 0 4 1q2 0 4 3 q28 20 42 31q4 2 3 6q-6 3 -4.5 9.5t-0.5 9.5q-21 -35 -36 -46q-4 -1 -10 -10q-2 -1 -2 -4zM166 273q11 6 23 14v2l-2 1q-9 -4 -25 -14zM136 257q3 1 16 9l-1 2q-5 0 -8 -1q-2 -1 -5 -4t-5 -4zM189 -105q12 14 13 19q28 102 41 153q29 96 35 118q3 10 6 29t4 26 q-9 -10 -23 -53q-8 -21 -10 -29q-8 -19 -13 -46q-2 -6 -4.5 -19t-4.5 -20q-1 -6 -7.5 -23.5t-7.5 -27.5q0 -12 -3 -24t-10 -27t-9 -22q7 -6 2 -20q-1 -4 -5 -11.5t-4.5 -11t0.5 -11.5zM184 793q-8 0 -13 7q-2 3 -6 7q-14 16 -15 30q0 18 3 27q19 46 65 115q6 8 9 11l2 3 q10 12 25 5l6 -2q22 -11 29 -18q51 -45 63 -91q1 -4 11 -27q1 -1 2.5 -4t2.5 -5.5t2 -4.5q5 -12 -4 -21q-10 -5 -11 -5q-3 0 -7 2q-11 6 -15 17q-2 4 -4.5 12t-3.5 11l-2 6q-14 38 -44 71q-1 -2 -4 -6.5t-4 -6.5q-19 -45 -42 -73q-11 -13 -27 -43l-4 -8q-5 -9 -14 -9z" glyph-name="Ycircumflex" horiz-adv-x="394" unicode=""/><glyph d="M-18 -498q-65 -5 -120 43.5t-57 115.5q-2 60 32 117q3 5 6.5 10.5t8 12t6.5 10.5q3 5 19 29q18 31 60 38q7 1 12 -4q4 -4 4 -12q0 -7 -5 -14q-4 -5 -12 -7q-27 -8 -44 -40l-2 -4q-3 -5 -12 -20.5t-15 -23.5q-15 -22 -19 -53q-4 -26 -1 -58q6 -50 51 -78q60 -40 123.5 1.5 t83.5 109.5q2 5 5.5 13.5t4.5 11.5l2 4q3 7 19.5 58.5t19.5 62.5q10 34 16 51l1 1q7 19 8 30q0 5 5 25q0 2 2 6l2 11l20 74q2 6 5 16.5t5 15.5q1 4 4.5 15.5t5.5 18.5q5 15 16 60q-2 -3 -13 -22l-17 -25.5t-20 -30.5q-21 -31 -40 -47q-32 -28 -87 -28q-12 0 -20 10 q-59 57 -45 135q11 74 30 114q2 4 4 16q4 20 30 27q10 2 26 -2q9 -3 16 -3q13 0 13 -14q0 -21 -7 -40q-22 -67 -22 -152q0 -13 5 -36q4 -8 8 -8q5 0 9 3q36 25 58 57l4 6q30 41 48 74q30 49 56 71l2 2q13 10 14 11q22 11 38 -4q12 -12 9 -25q-1 -2 -3 -15q0 -1 -1 -7.5 t-2 -10.5q-1 -3 -12 -44l-6 -24q-1 -5 -3.5 -13.5t-3.5 -11.5q-11 -42 -12 -46q-6 -33 -20 -74l-5 -17q-7 -25 -28 -103q-2 -8 -6.5 -24t-6.5 -24q-17 -62 -41 -120q-35 -85 -84 -140.5t-125 -61.5zM200 -181q5 5 5 9q22 68 24 76l45 166q3 15 10.5 44t10.5 42h-1l6 36 q0 2 -2 6q-1 -1 -3 -2.5t-3 -2.5q-2 -8 -2 -14q-1 -3 -12 -47q0 -2 -1 -5t-1 -4q1 -20 -13 -48q-5 -19 -5 -21q3 -27 -13 -45q-3 -2 -6 -13q6 -36 -18 -71q-3 -10 -2 -12q2 -26 -21 -62l-2 -5q12 -3 0 -11q-3 -3 -3 -6q1 -2 4 -6zM186 -219q5 4 7 6q0 1 0.5 4t0.5 4h1v9 q-1 -1 -2.5 -3t-2.5 -3t-2.5 -4t-2.5 -4q0 -1 -1 -3.5t-1 -3.5zM117 360q-8 0 -13 7q-2 3 -6 7q-14 16 -15 30q0 18 3 27q19 46 65 115q6 8 9 11l2 3q10 12 25 5l6 -2q22 -11 29 -18q51 -45 63 -91q1 -4 11 -27q1 -1 2.5 -4t2.5 -5.5t2 -4.5q5 -12 -4 -21q-10 -5 -11 -5 q-3 0 -7 2q-11 6 -15 17q-2 4 -4.5 12t-3.5 11l-2 6q-14 38 -44 71q-1 -2 -4 -6.5t-4 -6.5q-19 -45 -42 -73q-11 -13 -27 -43l-4 -8q-5 -9 -14 -9z" glyph-name="ycircumflex" horiz-adv-x="372" unicode=""/><glyph d="M176 -195q-19 0 -30 16q-25 29 -19 59q11 60 22 92q1 3 2 8t2 7q1 11 6 22q6 15 17 54q2 7 6 19.5t5 17.5q17 45 28 93q3 14 17 59q2 6 5.5 17t5.5 16l2 9q7 24 10 31q-7 -7 -11 -10l-25 -24q-19 -18 -59 -34q-10 -5 -19 -8q-1 -1 -3 -1q-9 -2 -25 -2q-60 0 -90 51 l-15 30l-2 6q-6 13 -6 46l1 5q1 42 0 87l3 42q3 13 3 27q1 10 8 47q4 15 6 29q3 23 25 29q15 3 31 6q17 2 24 -14v-1q11 -28 4 -46q-15 -44 -15 -94q0 -11 -2 -29q-2 -34 -1 -43l5 -44l3 -27q1 -14 15 -38l2 -3q6 -10 27 -10q5 0 7 1q20 6 30 14q6 6 18 14q19 15 24 22 q4 6 16 14q5 5 8 7q32 31 83 115l3 9q1 1 1 2q1 2 1 3l3 9q1 2 4 9t5 11q17 34 26 61q3 7 18 38l7 13q4 8 12.5 24.5t12.5 24.5q2 4 5 7l3 7q10 18 31 18q22 0 33 -19q6 -13 3 -25q-3 -7 -7 -23q-10 -42 -21 -60q-10 -15 -19 -47q-1 -2 -3.5 -9t-3.5 -11q-1 -1 -1 -3t-1 -3 q0 -2 -1.5 -6t-2.5 -6q-9 -19 -25 -57q-42 -99 -48 -115q-3 -7 -19 -54l-4 -13q-2 -8 -8 -26q-20 -68 -30 -92q-8 -22 -12 -48q-6 -31 -32 -105l-1 -2q-28 -74 -34 -121q-2 -12 -4 -17q-4 -14 -3 -21q0 -5 -2 -7q-7 -24 -24 -28q-8 -2 -11 -2zM200 298q3 0 4 1q2 0 4 3 q28 20 42 31q4 2 3 6q-6 3 -4.5 9.5t-0.5 9.5q-21 -35 -36 -46q-4 -1 -10 -10q-2 -1 -2 -4zM166 273q11 6 23 14v2l-2 1q-9 -4 -25 -14zM136 257q3 1 16 9l-1 2q-5 0 -8 -1q-2 -1 -5 -4t-5 -4zM189 -105q12 14 13 19q28 102 41 153q29 96 35 118q3 10 6 29t4 26 q-9 -10 -23 -53q-8 -21 -10 -29q-8 -19 -13 -46q-2 -6 -4.5 -19t-4.5 -20q-1 -6 -7.5 -23.5t-7.5 -27.5q0 -12 -3 -24t-10 -27t-9 -22q7 -6 2 -20q-1 -4 -5 -11.5t-4.5 -11t0.5 -11.5zM193 848q-24 -3 -36.5 18.5t-4 46.5t34.5 30q32 6 48 -10t10.5 -39t-27.5 -36 q-12 -8 -25 -10zM341 848q-24 -3 -36.5 18.5t-4 46.5t35.5 30q32 6 47.5 -10t10 -39t-27.5 -36q-13 -8 -25 -10z" glyph-name="Ydieresis" horiz-adv-x="394" unicode=""/><glyph d="M184 793q-8 0 -13 7q-2 3 -6 7q-14 16 -15 30q0 18 3 27q19 46 65 115q6 8 9 11l2 3q10 12 25 5l6 -2q22 -11 29 -18q51 -45 63 -91q1 -4 11 -27q1 -1 2.5 -4t2.5 -5.5t2 -4.5q5 -12 -4 -21q-10 -5 -11 -5q-3 0 -7 2q-11 6 -15 17q-2 4 -4.5 12t-3.5 11l-2 6 q-14 38 -44 71q-1 -2 -4 -6.5t-4 -6.5q-19 -45 -42 -73q-11 -13 -27 -43l-4 -8q-5 -9 -14 -9z" glyph-name="circumflex" horiz-adv-x="522" unicode=""/><glyph d="M267 795l-5 3q-20 8 -30 17q-52 48 -63 91q-3 12 -11 27q-4 10 -6 14q-6 12 4 22q5 5 11 5q2 0 6 -2q10 -6 15 -17q6 -16 8 -23l3 -7q12 -36 43 -70q6 6 9 13q16 39 42 73q12 15 26 42l5 9q3 8 14 8q9 0 13 -7q1 -1 3 -3.5t3 -3.5q14 -19 14 -30q2 -15 -3 -26 q-20 -48 -64 -115q-3 -5 -10 -12l-2 -2q-11 -12 -25 -6z" glyph-name="caron" horiz-adv-x="522" unicode=""/><glyph d="M193 848q-24 -3 -36.5 18.5t-4 46.5t34.5 30q32 6 47.5 -10t10 -39t-26.5 -36q-12 -8 -25 -10z" glyph-name="dotaccent" horiz-adv-x="396" unicode=""/><glyph d="M222 815q-40 -5 -60.5 31.5t-7 78.5t58.5 50q54 10 80 -16.5t16.5 -65.5t-45.5 -62q-21 -13 -42 -16zM227 858q10 2 20 8q17 11 21.5 29.5t-8 31t-38.5 7.5q-13 -3 -20.5 -12t-8.5 -20t2 -21.5t12 -17t20 -5.5z" glyph-name="ring" horiz-adv-x="461" unicode=""/><glyph d="M179 840h-1l-2 1q-12 2 -19.5 11t-6.5 21q11 46 39 64q37 23 89 8q26 -6 36 1q11 8 11 24q1 11 9.5 19t20.5 8q33 1 26 -35q-7 -37 -42 -63q-22 -17 -44 -15q-8 0 -24 3.5t-24 4.5q-15 1 -24 -7t-12.5 -18t-11.5 -18.5t-20 -8.5z" glyph-name="tilde" horiz-adv-x="532" unicode=""/><glyph d="M342 820q-8 0 -14 3q-22 10 -22 30q0 10 8 18l19 19q7 8 23 24q3 4 9 10q25 28 26 29q15 18 38 26q1 0 2 1q12 3 17 1q4 -2 6 -4q10 -10 7 -23q-1 -2 -1 -5l-2 -7l-2 -1q-6 -5 -13 -15q-5 -11 -13 -17l-1 -1q-1 -2 -2 -3q-26 -21 -62 -73q-9 -12 -23 -12zM186 820 q-8 0 -14 3q-22 10 -22 30q0 10 8 18l19 19q7 8 23 24q3 4 9 10q25 28 26 29q15 18 38 26q1 0 2 1q12 3 17 1q4 -2 6 -4q10 -10 7 -23q-1 -2 -1 -5l-2 -7l-2 -1q-6 -5 -13 -15q-5 -11 -13 -17l-1 -1q-1 -2 -2 -3q-26 -21 -62 -73q-9 -12 -23 -12z" glyph-name="hungarumlaut" horiz-adv-x="612" unicode=""/><glyph d="M-413 -98q-1 0 -3 1t-3 1q-17 8 -19 10q-17 14 -11 42q43 186 88 269q35 64 79.5 189t64.5 170q7 15 18.5 43.5t16.5 40.5q11 25 35 69.5t32 60.5q4 8 6 13q14 30 46 32q29 2 32 -22q2 -12 -4 -27q-27 -71 -80 -167q-17 -30 -31.5 -61.5t-28.5 -71t-22 -62.5t-24 -72.5 t-21 -65.5q-8 -27 -30.5 -72t-29.5 -63q-76 -200 -83 -222l-7 -24q-6 -16 -21 -11z" glyph-name="uni0338" horiz-adv-x="0" unicode=""/><glyph d="M337 -136q-16 0 -30 14q-12 12 -17 26q-11 24 -18 70q-11 85 -6 186q1 20 1 61t1 72.5t5 60.5q3 24 3 49q0 9 1 13q-3 -5 -10 -25q-5 -12 -31 -83l-17 -46l-12 -32q-15 -38 -26 -70q-12 -39 -53 -125l-10 -18q-4 -10 -12 -20q-10 -12 -25 -14t-27 8q-16 12 -26 35 t-13 37.5t-6.5 49.5t-4.5 40q-4 43 -4 64t3.5 64t3.5 64q1 24 10 105q8 75 9 119q0 17 10 43l3 8q6 15 22 18q14 2 18 2h1q8 0 14 -3t9 -10t5 -12.5t2 -16.5v-15.5t-1 -16t-1 -12.5q-2 -23 -3 -49.5t-1.5 -59t-1.5 -49.5q-1 -20 -5 -96t-3 -117v-54q0 -1 2 -17q0 -2 3 -11.5 t5 -18t1 -10.5q12 24 32 74q2 7 8 21q19 47 48 136.5t57.5 160t66.5 126.5q5 6 8 16q5 16 14 27l2 3q9 15 18 15q3 0 4 -1q15 -4 15 -26v-4q2 -30 2.5 -40t-2.5 -40.5t-3 -39.5q-2 -42 -4 -130q0 -201 -2 -258q-2 -74 -2 -111v-29l54 152q10 26 28 80q35 103 56 153 q8 19 22 59l21 56l30 75q42 112 77 184l2 5q11 24 21 33q10 11 23 0q6 -8 5 -16q0 -7 -4 -14q-13 -21 -33 -67l-4 -8q-30 -67 -63 -155q-16 -40 -23 -60l-8 -19q-22 -54 -44 -114q-20 -54 -41 -118q-2 -5 -5.5 -15t-5.5 -15q-20 -64 -37 -105q-12 -28 -38 -103l-15 -45 l-2 -4q-8 -21 -12 -27q-15 -20 -34 -20zM307 -89q3 5 1 8q-2 24 -4 34q-10 58 -9 108q1 10 1 34l-3 55q-2 39 -4 53q0 2 -1 6q-2 2 -2 4q0 -1 -3 -4q-1 0 -1 -3v-2q2 -48 2 -72q0 -29 4 -85q4 -50 8 -80q2 -8 2 -13l4 -35zM284 824q-1 0 -2.5 0.5t-2.5 0.5l-7 2l-1 2 q-6 7 -15 12q-12 8 -17 13l-4 4q-21 26 -73 62q-12 9 -12 23q0 8 3 14q10 22 31 22q8 0 17 -9q7 -6 19 -18q7 -7 25 -23q6 -6 9 -10q28 -25 29 -26q18 -14 26 -37q0 -2 1 -3q3 -12 1 -17q-1 -2 -4 -5q-10 -10 -23 -7z" glyph-name="Wgrave" horiz-adv-x="606" unicode=""/><glyph d="M324 -22q-8 0 -13 4q-25 13 -36 30q-43 61 -49 139q-6 61 0 103q-28 -48 -39 -73q-15 -37 -46 -74q-22 -27 -56 -41q-12 -5 -23 -5q-20 0 -36 12t-21 31q-4 15 -5 28v20v8q1 51 18 105q5 16 10 43l2 12q2 12 7 21q11 20 33 12q12 -4 17 -4q18 -3 18 -25q-2 -17 -4 -26 l-3 -14q-14 -59 -19 -77q-13 -46 2 -95l3 -5q2 -3 6 -2q23 11 38 32q13 18 40.5 92t59 129.5t68.5 55.5q4 0 8 -2q13 -6 13 -27v-25q1 -28 -5.5 -77t-8.5 -77.5t8 -76.5q2 -5 2 -16v-3v-10q-2 -8 0 -14q0 -1 1 -2.5l2 -3t1 -2.5q6 -14 6 -16q0 -6 10 -12q4 -3 8 -3q3 0 6 6 q8 15 9 20q3 16 24 58q14 26 27 78q9 37 20 64q4 9 10 27q7 24 22 50l15 27q8 17 22 40l1 3q45 70 75 94q4 4 10.5 2.5t9.5 -6.5q2 -3 1.5 -8t-3.5 -8q-30 -26 -70 -96q-3 -5 -20 -35q-25 -41 -51 -115q-12 -29 -14 -49q-4 -27 -22 -70l-5 -12q-18 -42 -25 -71 q-11 -47 -43 -63q-10 -5 -16 -5zM339 471q-1 0 -2.5 0.5t-2.5 0.5l-7 2l-1 2q-6 8 -15 12q-12 8 -17 13l-4 4q-21 26 -73 62q-12 9 -12 23q0 8 3 14q10 22 31 22q8 0 17 -9q7 -6 19 -18q7 -7 25 -23q6 -6 9 -10q28 -25 29 -26q18 -14 26 -37q0 -2 1 -3q3 -12 1 -17 q-1 -2 -4 -5q-10 -10 -23 -7z" glyph-name="wgrave" horiz-adv-x="543" unicode=""/><glyph d="M337 -136q-16 0 -30 14q-12 12 -17 26q-11 24 -18 70q-11 85 -6 186q1 20 1 61t1 72.5t5 60.5q3 24 3 49q0 9 1 13q-3 -5 -10 -25q-5 -12 -31 -83l-17 -46l-12 -32q-15 -38 -26 -70q-12 -39 -53 -125l-10 -18q-4 -10 -12 -20q-10 -12 -25 -14t-27 8q-16 12 -26 35 t-13 37.5t-6.5 49.5t-4.5 40q-4 43 -4 64t3.5 64t3.5 64q1 24 10 105q8 75 9 119q0 17 10 43l3 8q6 15 22 18q14 2 18 2h1q8 0 14 -3t9 -10t5 -12.5t2 -16.5v-15.5t-1 -16t-1 -12.5q-2 -23 -3 -49.5t-1.5 -59t-1.5 -49.5q-1 -20 -5 -96t-3 -117v-54q0 -1 2 -17q0 -2 3 -11.5 t5 -18t1 -10.5q12 24 32 74q2 7 8 21q19 47 48 136.5t57.5 160t66.5 126.5q5 6 8 16q5 16 14 27l2 3q9 15 18 15q3 0 4 -1q15 -4 15 -26v-4q2 -30 2.5 -40t-2.5 -40.5t-3 -39.5q-2 -42 -4 -130q0 -201 -2 -258q-2 -74 -2 -111v-29l54 152q10 26 28 80q35 103 56 153 q8 19 22 59l21 56l30 75q42 112 77 184l2 5q11 24 21 33q10 11 23 0q6 -8 5 -16q0 -7 -4 -14q-13 -21 -33 -67l-4 -8q-30 -67 -63 -155q-16 -40 -23 -60l-8 -19q-22 -54 -44 -114q-20 -54 -41 -118q-2 -5 -5.5 -15t-5.5 -15q-20 -64 -37 -105q-12 -28 -38 -103l-15 -45 l-2 -4q-8 -21 -12 -27q-15 -20 -34 -20zM307 -89q3 5 1 8q-2 24 -4 34q-10 58 -9 108q1 10 1 34l-3 55q-2 39 -4 53q0 2 -1 6q-2 2 -2 4q0 -1 -3 -4q-1 0 -1 -3v-2q2 -48 2 -72q0 -29 4 -85q4 -50 8 -80q2 -8 2 -13l4 -35zM304 737q-8 0 -14 3q-22 10 -22 30q0 10 8 18 l19 19q7 8 23 24q3 4 9 10q25 28 26 29q15 18 38 26q1 0 2 1q12 3 17 1q4 -2 6 -4q10 -10 7 -23q-1 -2 -1 -5l-2 -7l-2 -1q-6 -5 -13 -15q-5 -11 -13 -17l-1 -1q-1 -2 -2 -3q-26 -21 -62 -73q-9 -12 -23 -12z" glyph-name="Wacute" horiz-adv-x="606" unicode=""/><glyph d="M324 -22q-8 0 -13 4q-25 13 -36 30q-43 61 -49 139q-6 61 0 103q-28 -48 -39 -73q-15 -37 -46 -74q-22 -27 -56 -41q-12 -5 -23 -5q-20 0 -36 12t-21 31q-4 15 -5 28v20v8q1 51 18 105q5 16 10 43l2 12q2 12 7 21q11 20 33 12q12 -4 17 -4q18 -3 18 -25q-2 -17 -4 -26 l-3 -14q-14 -59 -19 -77q-13 -46 2 -95l3 -5q2 -3 6 -2q23 11 38 32q13 18 40.5 92t59 129.5t68.5 55.5q4 0 8 -2q13 -6 13 -27v-25q1 -28 -5.5 -77t-8.5 -77.5t8 -76.5q2 -5 2 -16v-3v-10q-2 -8 0 -14q0 -1 1 -2.5l2 -3t1 -2.5q6 -14 6 -16q0 -6 10 -12q4 -3 8 -3q3 0 6 6 q8 15 9 20q3 16 24 58q14 26 27 78q9 37 20 64q4 9 10 27q7 24 22 50l15 27q8 17 22 40l1 3q45 70 75 94q4 4 10.5 2.5t9.5 -6.5q2 -3 1.5 -8t-3.5 -8q-30 -26 -70 -96q-3 -5 -20 -35q-25 -41 -51 -115q-12 -29 -14 -49q-4 -27 -22 -70l-5 -12q-18 -42 -25 -71 q-11 -47 -43 -63q-10 -5 -16 -5zM241 479q-8 0 -14 3q-22 10 -22 30q0 10 8 18l19 19q7 8 23 24q3 4 9 10q25 28 26 29q15 18 38 26q1 0 2 1q12 3 17 1q4 -2 6 -4q10 -10 7 -23q-1 -2 -1 -5l-2 -7l-2 -1q-6 -5 -13 -15q-5 -11 -13 -17l-1 -1q-1 -2 -2 -3q-26 -21 -62 -73 q-9 -12 -23 -12z" glyph-name="wacute" horiz-adv-x="543" unicode=""/><glyph d="M337 -136q-16 0 -30 14q-12 12 -17 26q-11 24 -18 70q-11 85 -6 186q1 20 1 61t1 72.5t5 60.5q3 24 3 49q0 9 1 13q-3 -5 -10 -25q-5 -12 -31 -83l-17 -46l-12 -32q-15 -38 -26 -70q-12 -39 -53 -125l-10 -18q-4 -10 -12 -20q-10 -12 -25 -14t-27 8q-16 12 -26 35 t-13 37.5t-6.5 49.5t-4.5 40q-4 43 -4 64t3.5 64t3.5 64q1 24 10 105q8 75 9 119q0 17 10 43l3 8q6 15 22 18q14 2 18 2h1q8 0 14 -3t9 -10t5 -12.5t2 -16.5v-15.5t-1 -16t-1 -12.5q-2 -23 -3 -49.5t-1.5 -59t-1.5 -49.5q-1 -20 -5 -96t-3 -117v-54q0 -1 2 -17q0 -2 3 -11.5 t5 -18t1 -10.5q12 24 32 74q2 7 8 21q19 47 48 136.5t57.5 160t66.5 126.5q5 6 8 16q5 16 14 27l2 3q9 15 18 15q3 0 4 -1q15 -4 15 -26v-4q2 -30 2.5 -40t-2.5 -40.5t-3 -39.5q-2 -42 -4 -130q0 -201 -2 -258q-2 -74 -2 -111v-29l54 152q10 26 28 80q35 103 56 153 q8 19 22 59l21 56l30 75q42 112 77 184l2 5q11 24 21 33q10 11 23 0q6 -8 5 -16q0 -7 -4 -14q-13 -21 -33 -67l-4 -8q-30 -67 -63 -155q-16 -40 -23 -60l-8 -19q-22 -54 -44 -114q-20 -54 -41 -118q-2 -5 -5.5 -15t-5.5 -15q-20 -64 -37 -105q-12 -28 -38 -103l-15 -45 l-2 -4q-8 -21 -12 -27q-15 -20 -34 -20zM307 -89q3 5 1 8q-2 24 -4 34q-10 58 -9 108q1 10 1 34l-3 55q-2 39 -4 53q0 2 -1 6q-2 2 -2 4q0 -1 -3 -4q-1 0 -1 -3v-2q2 -48 2 -72q0 -29 4 -85q4 -50 8 -80q2 -8 2 -13l4 -35zM263 848q-24 -3 -36.5 18.5t-4 46.5t34.5 30 q32 6 48 -10t10.5 -39t-27.5 -36q-12 -8 -25 -10zM411 848q-24 -3 -36.5 18.5t-4 46.5t35.5 30q32 6 47.5 -10t10 -39t-27.5 -36q-13 -8 -25 -10z" glyph-name="Wdieresis" horiz-adv-x="606" unicode=""/><glyph d="M324 -22q-8 0 -13 4q-25 13 -36 30q-43 61 -49 139q-6 61 0 103q-28 -48 -39 -73q-15 -37 -46 -74q-22 -27 -56 -41q-12 -5 -23 -5q-20 0 -36 12t-21 31q-4 15 -5 28v20v8q1 51 18 105q5 16 10 43l2 12q2 12 7 21q11 20 33 12q12 -4 17 -4q18 -3 18 -25q-2 -17 -4 -26 l-3 -14q-14 -59 -19 -77q-13 -46 2 -95l3 -5q2 -3 6 -2q23 11 38 32q13 18 40.5 92t59 129.5t68.5 55.5q4 0 8 -2q13 -6 13 -27v-25q1 -28 -5.5 -77t-8.5 -77.5t8 -76.5q2 -5 2 -16v-3v-10q-2 -8 0 -14q0 -1 1 -2.5l2 -3t1 -2.5q6 -14 6 -16q0 -6 10 -12q4 -3 8 -3q3 0 6 6 q8 15 9 20q3 16 24 58q14 26 27 78q9 37 20 64q4 9 10 27q7 24 22 50l15 27q8 17 22 40l1 3q45 70 75 94q4 4 10.5 2.5t9.5 -6.5q2 -3 1.5 -8t-3.5 -8q-30 -26 -70 -96q-3 -5 -20 -35q-25 -41 -51 -115q-12 -29 -14 -49q-4 -27 -22 -70l-5 -12q-18 -42 -25 -71 q-11 -47 -43 -63q-10 -5 -16 -5zM226 475q-24 -3 -36.5 18.5t-4 46.5t34.5 30q32 6 48 -10t10.5 -39t-27.5 -36q-12 -8 -25 -10zM374 475q-24 -3 -36.5 18.5t-4 46.5t35.5 30q32 6 47.5 -10t10 -39t-27.5 -36q-13 -8 -25 -10z" glyph-name="wdieresis" horiz-adv-x="543" unicode=""/><glyph d="M176 -195q-19 0 -30 16q-25 29 -19 59q11 60 22 92q1 3 2 8t2 7q1 11 6 22q6 15 17 54q2 7 6 19.5t5 17.5q17 45 28 93q3 14 17 59q2 6 5.5 17t5.5 16l2 9q7 24 10 31q-7 -7 -11 -10l-25 -24q-19 -18 -59 -34q-10 -5 -19 -8q-1 -1 -3 -1q-9 -2 -25 -2q-60 0 -90 51 l-15 30l-2 6q-6 13 -6 46l1 5q1 42 0 87l3 42q3 13 3 27q1 10 8 47q4 15 6 29q3 23 25 29q15 3 31 6q17 2 24 -14v-1q11 -28 4 -46q-15 -44 -15 -94q0 -11 -2 -29q-2 -34 -1 -43l5 -44l3 -27q1 -14 15 -38l2 -3q6 -10 27 -10q5 0 7 1q20 6 30 14q6 6 18 14q19 15 24 22 q4 6 16 14q5 5 8 7q32 31 83 115l3 9q1 1 1 2q1 2 1 3l3 9q1 2 4 9t5 11q17 34 26 61q3 7 18 38l7 13q4 8 12.5 24.5t12.5 24.5q2 4 5 7l3 7q10 18 31 18q22 0 33 -19q6 -13 3 -25q-3 -7 -7 -23q-10 -42 -21 -60q-10 -15 -19 -47q-1 -2 -3.5 -9t-3.5 -11q-1 -1 -1 -3t-1 -3 q0 -2 -1.5 -6t-2.5 -6q-9 -19 -25 -57q-42 -99 -48 -115q-3 -7 -19 -54l-4 -13q-2 -8 -8 -26q-20 -68 -30 -92q-8 -22 -12 -48q-6 -31 -32 -105l-1 -2q-28 -74 -34 -121q-2 -12 -4 -17q-4 -14 -3 -21q0 -5 -2 -7q-7 -24 -24 -28q-8 -2 -11 -2zM200 298q3 0 4 1q2 0 4 3 q28 20 42 31q4 2 3 6q-6 3 -4.5 9.5t-0.5 9.5q-21 -35 -36 -46q-4 -1 -10 -10q-2 -1 -2 -4zM166 273q11 6 23 14v2l-2 1q-9 -4 -25 -14zM136 257q3 1 16 9l-1 2q-5 0 -8 -1q-2 -1 -5 -4t-5 -4zM189 -105q12 14 13 19q28 102 41 153q29 96 35 118q3 10 6 29t4 26 q-9 -10 -23 -53q-8 -21 -10 -29q-8 -19 -13 -46q-2 -6 -4.5 -19t-4.5 -20q-1 -6 -7.5 -23.5t-7.5 -27.5q0 -12 -3 -24t-10 -27t-9 -22q7 -6 2 -20q-1 -4 -5 -11.5t-4.5 -11t0.5 -11.5zM284 824q-1 0 -2.5 0.5t-2.5 0.5l-7 2l-1 2q-6 7 -15 12q-12 8 -17 13l-4 4 q-21 26 -73 62q-12 9 -12 23q0 8 3 14q10 22 31 22q8 0 17 -9q7 -6 19 -18q7 -7 25 -23q6 -6 9 -10q28 -25 29 -26q18 -14 26 -37q0 -2 1 -3q3 -12 1 -17q-1 -2 -4 -5q-10 -10 -23 -7z" glyph-name="Ygrave" horiz-adv-x="394" unicode=""/><glyph d="M-18 -498q-65 -5 -120 43.5t-57 115.5q-2 60 32 117q3 5 6.5 10.5t8 12t6.5 10.5q3 5 19 29q18 31 60 38q7 1 12 -4q4 -4 4 -12q0 -7 -5 -14q-4 -5 -12 -7q-27 -8 -44 -40l-2 -4q-3 -5 -12 -20.5t-15 -23.5q-15 -22 -19 -53q-4 -26 -1 -58q6 -50 51 -78q60 -40 123.5 1.5 t83.5 109.5q2 5 5.5 13.5t4.5 11.5l2 4q3 7 19.5 58.5t19.5 62.5q10 34 16 51l1 1q7 19 8 30q0 5 5 25q0 2 2 6l2 11l20 74q2 6 5 16.5t5 15.5q1 4 4.5 15.5t5.5 18.5q5 15 16 60q-2 -3 -13 -22l-17 -25.5t-20 -30.5q-21 -31 -40 -47q-32 -28 -87 -28q-12 0 -20 10 q-59 57 -45 135q11 74 30 114q2 4 4 16q4 20 30 27q10 2 26 -2q9 -3 16 -3q13 0 13 -14q0 -21 -7 -40q-22 -67 -22 -152q0 -13 5 -36q4 -8 8 -8q5 0 9 3q36 25 58 57l4 6q30 41 48 74q30 49 56 71l2 2q13 10 14 11q22 11 38 -4q12 -12 9 -25q-1 -2 -3 -15q0 -1 -1 -7.5 t-2 -10.5q-1 -3 -12 -44l-6 -24q-1 -5 -3.5 -13.5t-3.5 -11.5q-11 -42 -12 -46q-6 -33 -20 -74l-5 -17q-7 -25 -28 -103q-2 -8 -6.5 -24t-6.5 -24q-17 -62 -41 -120q-35 -85 -84 -140.5t-125 -61.5zM200 -181q5 5 5 9q22 68 24 76l45 166q3 15 10.5 44t10.5 42h-1l6 36 q0 2 -2 6q-1 -1 -3 -2.5t-3 -2.5q-2 -8 -2 -14q-1 -3 -12 -47q0 -2 -1 -5t-1 -4q1 -20 -13 -48q-5 -19 -5 -21q3 -27 -13 -45q-3 -2 -6 -13q6 -36 -18 -71q-3 -10 -2 -12q2 -26 -21 -62l-2 -5q12 -3 0 -11q-3 -3 -3 -6q1 -2 4 -6zM186 -219q5 4 7 6q0 1 0.5 4t0.5 4h1v9 q-1 -1 -2.5 -3t-2.5 -3t-2.5 -4t-2.5 -4q0 -1 -1 -3.5t-1 -3.5zM254 409q-1 0 -2.5 0.5t-2.5 0.5l-7 2l-1 2q-6 8 -15 12q-12 8 -17 13l-4 4q-21 26 -73 62q-12 9 -12 23q0 8 3 14q10 22 31 22q8 0 17 -9q7 -6 19 -18q7 -7 25 -23q6 -6 9 -10q28 -25 29 -26q18 -14 26 -37 q0 -2 1 -3q3 -12 1 -17q-1 -2 -4 -5q-10 -10 -23 -7z" glyph-name="ygrave" horiz-adv-x="372" unicode=""/><glyph d="M53 708q-21 -10 -37 5q-7 6 -7 18q0 4 -0.5 13t-1.5 13q0 6 -0.5 17t-1.5 17q0 3 -0.5 7t-0.5 7q0 20 -3 38q-3 24 6 45q1 0 1 1t1 2q2 10 10 13q1 1 3.5 1.5t3.5 0.5q13 0 21 -11q1 -2 4 -5l3 -5v-3q-1 -8 2 -19q4 -14 4 -21v-5q-2 -33 12 -95q3 -14 -7 -26 q-8 -6 -12 -8z" glyph-name="quoteleft" horiz-adv-x="73" unicode=""/><glyph d="M53 708q-21 -10 -37 5q-7 6 -7 18q0 4 -0.5 13t-1.5 13q0 6 -0.5 17t-1.5 17q0 3 -0.5 7t-0.5 7q0 20 -3 38q-3 24 6 45q1 0 1 1t1 2q2 10 10 13q1 1 3.5 1.5t3.5 0.5q13 0 21 -11q1 -2 4 -5l3 -5v-3q-1 -8 2 -19q4 -14 4 -21v-5q-2 -33 12 -95q3 -14 -7 -26 q-8 -6 -12 -8z" glyph-name="quoteright" horiz-adv-x="73" unicode=""/><glyph d="M65 -105q-7 0 -14 3q-21 10 -21 31q0 9 8 17q6 7 18 19q16 16 24 25l9 9q25 28 26 29q16 19 37 26q2 0 3 1q12 3 17 1q4 -2 6 -4q9 -9 6 -23q0 -3 -1 -5l-1 -7l-3 -1q-4 -3 -12 -15q-5 -11 -13 -17l-3 -4q-26 -21 -62 -73q-9 -12 -24 -12z" glyph-name="quotesinglbase" horiz-adv-x="600" unicode=""/><glyph d="M167 708q-21 -10 -37 5q-7 7 -7 18q0 4 -0.5 13t-1.5 13q0 12 -2 34q0 9 -1 14q0 20 -3 38q-3 25 7 45q0 2 1 3q2 9 10 13q1 0 3.5 1t3.5 1q13 0 22 -11q0 -1 1 -2.5t2 -2.5l3 -5v-3q0 -2 2 -19q4 -14 4 -21q0 -1 0.5 -2.5t0.5 -2.5q-3 -33 11 -95q3 -16 -7 -26 q-5 -5 -12 -8zM53 708q-21 -10 -37 5q-7 6 -7 18q0 4 -0.5 13t-1.5 13q0 6 -0.5 17t-1.5 17q0 3 -0.5 7t-0.5 7q0 20 -3 38q-3 24 6 45q1 0 1 1t1 2q2 10 10 13q1 1 3.5 1.5t3.5 0.5q13 0 21 -11q1 -2 4 -5l3 -5v-3q-1 -8 2 -19q4 -14 4 -21v-5q-2 -33 12 -95q3 -14 -7 -26 q-8 -6 -12 -8z" glyph-name="quotedblleft" horiz-adv-x="187" unicode=""/><glyph d="M131 638q-13 3 -18 16q0 2 -2 6l-2 6l1 3q4 7 3 18q0 14 2 22l2 4q10 29 14 95q2 15 14 23q7 3 13 5q22 3 35 -15q6 -9 1 -19q-1 -11 -5 -26q-1 -6 -3.5 -17t-3.5 -16q-3 -13 -3 -14q-6 -21 -7 -37q-4 -24 -18 -42q-2 -2 -3 -2q-4 -9 -13 -10h-7zM21 669q-11 3 -18 16 q-1 1 -1 3t-1 3l-1 6l1 2q1 1 3 19q0 17 2 22v5q11 28 15 94q2 16 14 23q8 4 14 5q22 3 34 -15q5 -10 2 -19q-4 -18 -5 -26q-4 -13 -8 -33q0 -3 -1 -7.5t-2 -6.5q-6 -23 -7 -37q-3 -25 -19 -42q0 -2 -2 -2q-4 -9 -13 -10h-7z" glyph-name="quotedblright" horiz-adv-x="196" unicode=""/><glyph d="M65 -105q-7 0 -14 3q-21 10 -21 31q0 9 8 17q6 7 18 19q16 16 24 25l9 9q25 28 26 29q16 19 37 26q2 0 3 1q12 3 17 1q4 -2 6 -4q9 -9 6 -23q0 -3 -1 -5l-1 -7l-3 -1q-4 -3 -12 -15q-5 -11 -13 -17l-3 -4q-26 -21 -62 -73q-9 -12 -24 -12zM65 -105q-7 0 -14 3 q-21 10 -21 31q0 9 8 17q6 7 18 19q16 16 24 25l9 9q25 28 26 29q16 19 37 26q2 0 3 1q12 3 17 1q4 -2 6 -4q9 -9 6 -23q0 -3 -1 -5l-1 -7l-3 -1q-4 -3 -12 -15q-5 -11 -13 -17l-3 -4q-26 -21 -62 -73q-9 -12 -24 -12z" glyph-name="quotedblbase" horiz-adv-x="600" unicode=""/><glyph d="M123 197q-52 -6 -78.5 41t-8.5 101t75 65q70 13 103.5 -21.5t21.5 -84.5t-59 -80q-29 -18 -54 -21z" glyph-name="bullet" horiz-adv-x="268" unicode=""/><glyph d="M73 1q-24 -3 -36.5 18.5t-4 46.5t34.5 30q32 6 47.5 -10t10 -39t-26.5 -37q-14 -9 -25 -9zM228 1q-24 -3 -36.5 18.5t-4 46.5t34.5 30q32 6 47.5 -10t10 -39t-26.5 -37q-13 -9 -25 -9zM389 1q-24 -3 -36.5 18.5t-4 46.5t34.5 30q32 6 47.5 -10t10 -39t-26.5 -37 q-14 -9 -25 -9z" glyph-name="ellipsis" horiz-adv-x="472" unicode=""/><glyph d="M246 165q-15 1 -23 7q-3 2 -9 5.5t-9 5.5q-24 13 -42 28v1q-19 7 -51 30q-1 1 -9 7t-13 9l-39 27q-3 3 -9 7t-9 7q-2 1 -6.5 4t-6.5 5l-4 2q-26 18 -10 45q10 18 26 26q43 24 85 58l2 2t2 1q14 8 47 35q36 27 41 31q2 1 6 5l6 6l2 2q12 9 17 12q11 6 21 6q21 0 31 -21 q5 -11 0 -19q-4 -4 -7 -10q-18 -26 -31 -36q-10 -8 -20 -14l-36 -27q-18 -17 -49 -35q-26 -16 -43 -30q-8 -5 -10 -9q5 -5 10 -8q26 -15 74 -49l7 -4q19 -15 55 -26q26 -11 34 -18q23 -21 12 -43q-12 -25 -41 -25h-1z" glyph-name="guilsinglleft" horiz-adv-x="294" unicode=""/><glyph d="M33 154q-20 0 -31 22q-5 11 1 19l6 9q16 27 31 37q3 3 10.5 8t9.5 6l36 27q7 6 49 35q25 15 44 30q1 1 5 4.5t5 4.5q-2 2 -11 7q-7 4 -74 49l-6 5q-24 16 -55 26q-23 7 -35 18q-24 19 -12 43t41 24h1q14 0 23 -6q12 -8 19 -11q28 -16 41 -28l1 -1q18 -7 50 -30 q2 -2 22 -16q24 -15 39 -28q3 -2 9 -6.5t9 -6.5q5 -3 13 -9l4 -2q26 -18 11 -46q-12 -17 -26 -25q-45 -24 -86 -59q-1 0 -1 -1l-2 -1q-18 -10 -48 -35q-20 -17 -40 -31q-2 -1 -6 -5l-6 -6l-3 -2q-13 -10 -17 -12q-10 -7 -21 -7z" glyph-name="guilsinglright" horiz-adv-x="294" unicode=""/><glyph d="M52 233q-27 18 -21 52q3 21 20 26q24 3 36 2t37 -4t37 -4q113 -3 127 -4t93 4q3 0 19 3t24 2.5t18.5 -11t14.5 -33.5q6 -33 -12 -33q-5 -1 -20 1q-20 3 -31 1q-12 -2 -25 0h-7q-36 0 -42 -1q0 -1 -9 0h-9q-3 1 -10 1q-29 1 -86 1h-16q-5 -1 -15 -1h-33q-10 0 -29.5 -4.5 t-30.5 -5t-30 7.5z" glyph-name="minus" horiz-adv-x="488" unicode=""/></font>
</defs>
</svg>
